<?xml version="1.0" encoding="UTF-8"?>
<svg id="Layer_2" data-name="Layer 2" xmlns="http://www.w3.org/2000/svg" xmlns:xlink="http://www.w3.org/1999/xlink" viewBox="0 0 995 995">
  <defs>
    <style>
      .cls-1 {
        stroke: #b7d437;
        stroke-miterlimit: 10;
      }

      .cls-1, .cls-2 {
        fill: #e8edd0;
      }

      .cls-3 {
        fill: url(#linear-gradient-38);
      }

      .cls-3, .cls-4, .cls-5, .cls-6, .cls-7, .cls-8, .cls-9, .cls-10, .cls-11, .cls-12, .cls-13, .cls-14, .cls-15, .cls-16, .cls-17, .cls-18, .cls-19, .cls-20, .cls-21, .cls-22, .cls-23, .cls-2, .cls-24, .cls-25, .cls-26, .cls-27, .cls-28, .cls-29, .cls-30, .cls-31, .cls-32, .cls-33, .cls-34, .cls-35, .cls-36, .cls-37, .cls-38, .cls-39, .cls-40, .cls-41, .cls-42, .cls-43, .cls-44, .cls-45, .cls-46 {
        stroke-width: 0px;
      }

      .cls-4 {
        fill: url(#linear-gradient-12);
      }

      .cls-5 {
        fill: url(#linear-gradient-17);
      }

      .cls-6 {
        fill: url(#linear-gradient-19);
      }

      .cls-7 {
        fill: url(#linear-gradient-33);
      }

      .cls-8 {
        fill: url(#linear-gradient);
      }

      .cls-9 {
        fill: url(#linear-gradient-21);
      }

      .cls-10 {
        fill: url(#linear-gradient-6);
      }

      .cls-11 {
        fill: url(#linear-gradient-15);
      }

      .cls-12 {
        fill: url(#linear-gradient-11);
      }

      .cls-13 {
        fill: url(#linear-gradient-5);
      }

      .cls-14 {
        fill: url(#linear-gradient-31);
      }

      .cls-15 {
        fill: url(#linear-gradient-34);
      }

      .cls-16 {
        fill: url(#linear-gradient-41);
      }

      .cls-17 {
        fill: url(#linear-gradient-40);
      }

      .cls-18 {
        fill: url(#linear-gradient-13);
      }

      .cls-19 {
        fill: url(#linear-gradient-23);
      }

      .cls-20 {
        fill: url(#linear-gradient-25);
      }

      .cls-21 {
        fill: url(#linear-gradient-16);
      }

      .cls-22 {
        fill: url(#linear-gradient-22);
      }

      .cls-23 {
        fill: url(#linear-gradient-35);
      }

      .cls-24 {
        fill: url(#linear-gradient-32);
      }

      .cls-25 {
        fill: url(#linear-gradient-20);
      }

      .cls-26 {
        fill: url(#linear-gradient-14);
      }

      .cls-27 {
        fill: url(#linear-gradient-2);
      }

      .cls-28 {
        fill: url(#linear-gradient-7);
      }

      .cls-29 {
        fill: #d9dcb7;
      }

      .cls-30 {
        fill: url(#linear-gradient-39);
      }

      .cls-31 {
        fill: url(#linear-gradient-3);
      }

      .cls-32 {
        fill: url(#linear-gradient-9);
      }

      .cls-33 {
        fill: url(#linear-gradient-27);
      }

      .cls-34 {
        fill: url(#linear-gradient-36);
      }

      .cls-35 {
        fill: url(#linear-gradient-8);
      }

      .cls-36 {
        fill: url(#linear-gradient-24);
      }

      .cls-37 {
        fill: url(#linear-gradient-26);
      }

      .cls-38 {
        fill: url(#linear-gradient-18);
      }

      .cls-39 {
        fill: url(#linear-gradient-30);
      }

      .cls-40 {
        fill: url(#linear-gradient-29);
      }

      .cls-41 {
        fill: #d0d3b0;
      }

      .cls-42 {
        fill: url(#linear-gradient-28);
      }

      .cls-43 {
        fill: url(#linear-gradient-10);
      }

      .cls-44 {
        fill: url(#linear-gradient-4);
      }

      .cls-45 {
        fill: url(#linear-gradient-37);
      }

      .cls-46 {
        fill: #606161;
      }
    </style>
    <linearGradient id="linear-gradient" x1="330.32" y1="207.12" x2="509.92" y2="207.12" gradientUnits="userSpaceOnUse">
      <stop offset="0" stop-color="#c1a831"/>
      <stop offset="1" stop-color="#d2c329"/>
    </linearGradient>
    <linearGradient id="linear-gradient-2" x1="445.23" y1="159.76" x2="537.56" y2="159.76" gradientUnits="userSpaceOnUse">
      <stop offset="0" stop-color="#afa42c"/>
      <stop offset=".32" stop-color="#aba231"/>
      <stop offset=".73" stop-color="#a19c41"/>
      <stop offset="1" stop-color="#999850"/>
    </linearGradient>
    <linearGradient id="linear-gradient-3" x1="505.79" y1="92.71" x2="670.89" y2="92.71" xlink:href="#linear-gradient-2"/>
    <linearGradient id="linear-gradient-4" x1="413.7" y1="68.98" x2="525.31" y2="68.98" xlink:href="#linear-gradient-2"/>
    <linearGradient id="linear-gradient-5" x1="543" y1="194.12" x2="564.94" y2="194.12" xlink:href="#linear-gradient-2"/>
    <linearGradient id="linear-gradient-6" x1="606.67" y1="134.13" x2="700.34" y2="134.13" xlink:href="#linear-gradient-2"/>
    <linearGradient id="linear-gradient-7" x1="560.32" y1="322.18" x2="614.28" y2="322.18" xlink:href="#linear-gradient-2"/>
    <linearGradient id="linear-gradient-8" x1="617.18" y1="286.95" x2="644.69" y2="286.95" xlink:href="#linear-gradient-2"/>
    <linearGradient id="linear-gradient-9" x1="644.38" y1="219.03" x2="668.58" y2="219.03" xlink:href="#linear-gradient-2"/>
    <linearGradient id="linear-gradient-10" x1="640.06" y1="177.1" x2="685.38" y2="177.1" xlink:href="#linear-gradient-2"/>
    <linearGradient id="linear-gradient-11" x1="513.92" y1="277.75" x2="533.78" y2="277.75" xlink:href="#linear-gradient-2"/>
    <linearGradient id="linear-gradient-12" x1="467.21" y1="159.71" x2="608" y2="159.71" xlink:href="#linear-gradient-2"/>
    <linearGradient id="linear-gradient-13" x1="533.51" y1="245.75" x2="638.65" y2="245.75" xlink:href="#linear-gradient-2"/>
    <linearGradient id="linear-gradient-14" x1="554.96" y1="242.4" x2="570.47" y2="242.4" xlink:href="#linear-gradient-2"/>
    <linearGradient id="linear-gradient-15" x1="550.37" y1="249.85" x2="567.99" y2="249.85" xlink:href="#linear-gradient-2"/>
    <linearGradient id="linear-gradient-16" x1="493" y1="96.41" x2="657.01" y2="96.41" xlink:href="#linear-gradient-2"/>
    <linearGradient id="linear-gradient-17" x1="542.59" y1="207.64" x2="562.95" y2="207.64" xlink:href="#linear-gradient-2"/>
    <linearGradient id="linear-gradient-18" x1="452.78" y1="158.22" x2="507" y2="158.22" xlink:href="#linear-gradient-2"/>
    <linearGradient id="linear-gradient-19" x1="502.89" y1="179.61" x2="534.07" y2="179.61" xlink:href="#linear-gradient-2"/>
    <linearGradient id="linear-gradient-20" x1="512.77" y1="276.45" x2="531.23" y2="276.45" xlink:href="#linear-gradient-2"/>
    <linearGradient id="linear-gradient-21" x1="650.02" y1="232.75" x2="664.96" y2="232.75" xlink:href="#linear-gradient-2"/>
    <linearGradient id="linear-gradient-22" x1="632.04" y1="178.84" x2="685.38" y2="178.84" xlink:href="#linear-gradient-2"/>
    <linearGradient id="linear-gradient-23" x1="597.26" y1="133.32" x2="662.82" y2="133.32" xlink:href="#linear-gradient-2"/>
    <linearGradient id="linear-gradient-24" x1="517.09" y1="291.84" x2="531.2" y2="291.84" xlink:href="#linear-gradient-2"/>
    <linearGradient id="linear-gradient-25" x1="453.01" y1="168.94" x2="601.58" y2="168.94" xlink:href="#linear-gradient-2"/>
    <linearGradient id="linear-gradient-26" x1="533.32" y1="306.66" x2="627.13" y2="306.66" xlink:href="#linear-gradient-2"/>
    <linearGradient id="linear-gradient-27" x1="593.06" y1="198.06" x2="625.85" y2="198.06" xlink:href="#linear-gradient-2"/>
    <linearGradient id="linear-gradient-28" x1="560.2" y1="322.11" x2="610.92" y2="322.11" xlink:href="#linear-gradient-2"/>
    <linearGradient id="linear-gradient-29" x1="617.07" y1="284.53" x2="641.58" y2="284.53" xlink:href="#linear-gradient-2"/>
    <linearGradient id="linear-gradient-30" x1="275.89" y1="490.26" x2="469.93" y2="490.26" xlink:href="#linear-gradient"/>
    <linearGradient id="linear-gradient-31" x1="536.84" y1="478.55" x2="732.25" y2="478.55" xlink:href="#linear-gradient"/>
    <linearGradient id="linear-gradient-32" x1="625.37" y1="518.81" x2="847.94" y2="518.81" gradientUnits="userSpaceOnUse">
      <stop offset="0" stop-color="#dee78d"/>
      <stop offset=".28" stop-color="#bcbe6a"/>
      <stop offset=".59" stop-color="#9e9a4a"/>
      <stop offset=".84" stop-color="#8b8337"/>
      <stop offset="1" stop-color="#857b30"/>
    </linearGradient>
    <linearGradient id="linear-gradient-33" x1="674.63" y1="554.32" x2="899.87" y2="554.32" xlink:href="#linear-gradient-32"/>
    <linearGradient id="linear-gradient-34" x1="622.14" y1="693.86" x2="919.96" y2="693.86" xlink:href="#linear-gradient-32"/>
    <linearGradient id="linear-gradient-35" x1="663.27" y1="767.26" x2="864.25" y2="767.26" xlink:href="#linear-gradient-32"/>
    <linearGradient id="linear-gradient-36" x1="720.13" y1="627.08" x2="916.84" y2="627.08" xlink:href="#linear-gradient-32"/>
    <linearGradient id="linear-gradient-37" x1="145.44" y1="518.84" x2="366.7" y2="518.84" gradientUnits="userSpaceOnUse">
      <stop offset="0" stop-color="#857b30"/>
      <stop offset=".16" stop-color="#8b8337"/>
      <stop offset=".41" stop-color="#9e9a4a"/>
      <stop offset=".72" stop-color="#bcbe6a"/>
      <stop offset="1" stop-color="#dee78d"/>
    </linearGradient>
    <linearGradient id="linear-gradient-38" x1="93.44" y1="553.68" x2="320.36" y2="553.68" xlink:href="#linear-gradient-37"/>
    <linearGradient id="linear-gradient-39" x1="73.04" y1="693.58" x2="370.89" y2="693.58" xlink:href="#linear-gradient-37"/>
    <linearGradient id="linear-gradient-40" x1="128.92" y1="767.08" x2="325.4" y2="767.08" xlink:href="#linear-gradient-37"/>
    <linearGradient id="linear-gradient-41" x1="76.7" y1="628.85" x2="274.41" y2="628.85" xlink:href="#linear-gradient-37"/>
  </defs>
  <g id="Layer_1-2" data-name="Layer 1">
    <circle class="cls-2" cx="497.5" cy="497.5" r="497.5"/>
    <g>
      <path class="cls-46" d="M438.72,670.34c-24.3,42.12-38.46,66.88-42.48,74.29-4.02,7.41-6.03,12.32-6.03,14.73,0,2.71,1.1,4.07,3.3,4.07,4.87,0,13.79-9.57,26.77-28.7.29-.6.64-.9,1.04-.9.23.06.35.24.35.54,0,.36-.29.85-.87,1.45l-3.74,5.34c-10.95,15.75-19.03,23.62-24.24,23.62-2.49,0-4.53-.98-6.13-2.94-1.59-1.96-2.39-4.44-2.39-7.46,0-3.31.74-6.52,2.21-9.63,1.48-3.1,6.49-12.07,15.06-26.89,10.47-18.14,19.3-33.86,26.47-47.18,1.74.48,3.27.72,4.6.72,2.2,0,4.22-.36,6.08-1.08Z"/>
      <path class="cls-46" d="M473.05,734.29c0,.96-1.71,3.21-5.12,6.76-5.1,5.29-9.79,7.93-14.07,7.93-1.8,0-3.39-.36-4.78-1.08-7.64,11.27-14.82,16.9-21.54,16.9-3.47,0-6.44-1.49-8.9-4.47-2.46-2.98-3.69-6.55-3.69-10.71,0-9.28,5.84-18.23,17.53-26.84,8.21-6.08,14.98-9.13,20.31-9.13,4.98,0,7.46,2.77,7.46,8.32,0,6.93-3.5,15.27-10.5,25.04,1.16.72,2.46,1.08,3.91,1.08,2.6,0,5.65-1.26,9.13-3.78,3.48-2.52,6.32-5.55,8.53-9.1.64-.84,1.1-1.26,1.39-1.26.23,0,.35.12.35.36ZM458.94,722.13c0-4.88-2.11-7.32-6.34-7.32-5.27,0-11.69,5.24-19.27,15.73-7.58,10.48-11.37,19.31-11.37,26.48,0,4.16,1.91,6.24,5.73,6.24,6.25,0,13.08-5.36,20.48-16.09-1.68-1.93-2.52-3.92-2.52-5.97,0-2.95,1.13-5.99,3.38-9.13,2.26-3.13,4.45-4.7,6.6-4.7.92,0,1.56.6,1.91,1.81.92-2.11,1.39-4.46,1.39-7.05Z"/>
      <path class="cls-46" d="M528.85,734.38c0,1.39-4.2,7.24-12.6,17.56-6.95,8.57-12.45,12.85-16.51,12.85-2.55,0-4.71-1.07-6.47-3.21-1.77-2.14-2.65-4.71-2.65-7.73,0-2.35,1.13-5.63,3.38-9.85l-1.74,2.44c-5.32,7.11-9.23,11.87-11.72,14.28-2.72,2.71-5.29,4.07-7.72,4.07s-4.69-1.04-6.42-3.12c-1.74-2.08-2.6-4.62-2.6-7.64,0-3.49,1.3-7.5,3.91-12.02l15.8-27.66c1.97.42,3.5.63,4.6.63s3.07-.21,5.9-.63l-20.66,35.43c-2.08,3.62-3.12,6.81-3.12,9.58s1.1,4.07,3.3,4.07c5.84,0,15.22-11.36,28.12-34.07l8.51-15c1.79.42,3.3.63,4.51.63,1.45,0,3.5-.21,6.16-.63l-13.89,23.59c-6.6,11.21-9.89,18.41-9.89,21.6,0,2.59,1.19,3.89,3.56,3.89,4.64,0,12.17-7.6,22.6-22.81l2.69-3.89,1.56-1.99c.29-.6.58-.9.87-.9.35,0,.52.18.52.54Z"/>
      <path class="cls-46" d="M574.37,670.34c-24.3,42.12-38.46,66.88-42.48,74.29-4.02,7.41-6.03,12.32-6.03,14.73,0,2.71,1.1,4.07,3.3,4.07,4.87,0,13.79-9.57,26.77-28.7.29-.6.64-.9,1.04-.9.23.06.35.24.35.54,0,.36-.29.85-.87,1.45l-3.74,5.34c-10.95,15.75-19.03,23.62-24.24,23.62-2.49,0-4.53-.98-6.13-2.94-1.59-1.96-2.39-4.44-2.39-7.46,0-3.31.74-6.52,2.21-9.63,1.48-3.1,6.49-12.07,15.06-26.89,10.47-18.14,19.3-33.86,26.47-47.18,1.74.48,3.27.72,4.6.72,2.2,0,4.22-.36,6.08-1.08Z"/>
      <path class="cls-46" d="M608.7,734.29c0,.96-1.71,3.21-5.12,6.76-5.1,5.29-9.79,7.93-14.07,7.93-1.8,0-3.39-.36-4.78-1.08-7.64,11.27-14.82,16.9-21.54,16.9-3.47,0-6.44-1.49-8.9-4.47-2.46-2.98-3.69-6.55-3.69-10.71,0-9.28,5.84-18.23,17.53-26.84,8.21-6.08,14.98-9.13,20.31-9.13,4.98,0,7.46,2.77,7.46,8.32,0,6.93-3.5,15.27-10.5,25.04,1.16.72,2.46,1.08,3.91,1.08,2.6,0,5.65-1.26,9.13-3.78,3.48-2.52,6.32-5.55,8.53-9.1.64-.84,1.1-1.26,1.39-1.26.23,0,.35.12.35.36ZM594.59,722.13c0-4.88-2.11-7.32-6.34-7.32-5.27,0-11.69,5.24-19.27,15.73-7.58,10.48-11.37,19.31-11.37,26.48,0,4.16,1.91,6.24,5.73,6.24,6.25,0,13.08-5.36,20.48-16.09-1.68-1.93-2.52-3.92-2.52-5.97,0-2.95,1.13-5.99,3.38-9.13,2.26-3.13,4.45-4.7,6.6-4.7.92,0,1.56.6,1.91,1.81.92-2.11,1.39-4.46,1.39-7.05Z"/>
    </g>
    <path class="cls-8" d="M465.53,200.58c.98,2.78,1.9,5.93,2.59,9.41,1.75,8.79,1.48,16.52.74,22.32,2.96-3.96,4.83-8.25,7.73-11.86,3.19-3.97,6.71-7.46,11.3-9.76,9.53-4.77,19.67.54,21.52,11.02,1.72,9.77-1.01,18.38-6.62,26.11-6.65,9.17-14.82,16.65-25.62,20.86-3.43,1.34-6.86,1.93-10.55,1.41-4.21-.59-6.74-2.88-7.83-6.91-1.69-6.15,1.07-12.15.89-18.3-.66,2.36-1.74,5.81-3.44,9.82-2.42,5.71-7.82,18.06-20.04,27.96-5.19,4.2-9.92,6.6-13.53,8.43-3.45,1.75-9,4.52-16.21,6.26-4.1.99-5.46.85-19.15,1.53-18.09.89-22.34,1.46-28.24.51-2.67-.43-9.53-1.79-11.48-2.18-1.12-.23-2.79-.59-4.92-1.11-.55-.13-1.1-.27-1.64-.42-9.48-2.63-13.08-9.94-9.1-19.86.97-2.42,2.48-4.61,3.59-6.97,2.39-5.09,2.7-10.08-1.09-14.72-1.67-2.04-1.71-3.9-.03-6.03,1.74-2.21,3.47-1.37,5.25-.32,3.08,1.84,6.12,3.75,9.89,6.07-3.44-5.66-5.98-8.71-7.52-10.35-2.58-2.75-3.87-4.12-4.35-4.53-1.55-1.33-2.28-1.69-2.69-2.76-.91-2.36.91-5.1,1.19-5.52,1.56-2.34,3.08-2.22,6.95-5.92.61-.59,1.44-1.42,2.01-2.75.62-1.46.64-2.77.57-3.32-.22-1.66-.77-2.87-1-3.31-1.39-2.66-3.15-4.12-4.24-5.25-2.34-2.42-4.49-6.34-4.38-9.1.12-2.98,2.87-4.26,12.53-10.64,0,0,15.91-10.51,21.8-18.68.36-.5.69-1,.69-1,1.66-2.52,2.7-4.93,3.35-6.79.31-.89.53-1.65.61-1.92,0-.03.01-.05.02-.08.22-.79.3-1.39.34-1.64.09-.6.21-1.19.31-1.78.16-.99.41-2.5.82-3.88.24-.81.62-1.92,1.29-3.21,4.62-17.39,18.18-30.12,34.82-35.27,21.3-6.59,41.15,6.33,50.86,18.66,3.86,4.9,6.07,9.77,7.37,13.4-.27.23-.78.6-1.41.58-1.13-.03-1.95-1.27-2.16-1.59-2.31-3.38-11.46-9.84-12.52-10.57-4.99-3.47-9.88-4.46-14.55-5.4,0,0-6-1.22-10.64-.47-.23.04-.51.09-.51.09-2.63.45-4.64.96-5.95,1.34,1.3-.04,2.93.11,4.63.79.29.12.56.24.82.37,4.63,2.45,10.55,5.86,17.11,10.44,0,0,5.01,3.5,9.74,7.36,15.1,12.32,29.69,31.91,32.19,35.29-.13.18-.35.4-.66.47-.68.17-1.36-.48-1.66-.73-1.97-1.67-4.09-3.13-6.1-4.76-.54-.43-1.09-.85-1.63-1.28-20.33-15.95-34.78-18.52-34.78-18.52-2.74-.49-6.76-.96-11.79-.64,8.72,5.19,12.94,11.39,14.84,14.76,2.4,4.25,3.58,8.34,4.67,12.14.46,1.61,1.94,6.94,2.64,14.21.57,5.93.99,10.78-.85,16.64-.46,1.48-.96,2.68-1.34,3.5,10.29-10.88,12.81-15.61,12.74-17.76-.01-.44-.21-3.2,1.02-3.79.28-.13.57-.12.77-.09Z"/>
    <path class="cls-1" d="M497.89,238.4c.27-5.06,1.33-9.87-3.42-13.31-3.65-2.65-11.67-.31-12.87,3.84-.35,1.23.58,1.37,1.31,1.86,4.34,2.92,5.56,6.3,3.89,11.32-2.43,7.31-6.56,13.25-14.19,15.93-4.54,1.6-7.38-.58-7.3-5.36.09-5.16,2.83-8.43,7.46-10.19,1.67-.63,2.35-.88,2.01-3.21-1.46-9.94,7.47-21.75,17.37-23.59,5.64-1.05,11.7,4.51,11.02,10.33-.53,4.5-2.36,8.54-5.3,12.37Z"/>
    <g>
      <path class="cls-2" d="M393.33,162.63c-3.7-2.72-8.09-3.95-12.36-5.25-3.7-1.13-4.08-2.93-2.1-5.84,6.75.52,13.39,1.49,19.5,4.64,9.37,4.83,16.77,11.68,21.4,21.46-7.95-6.56-16.33-12.34-26.43-15.01Z"/>
      <path class="cls-2" d="M414.79,194.8c-15.95,6.4-31.01,4.73-46.02-5.29,3.94.11,6.84-.84,9.53-2.5.88-.54,1.61.03,2.34.63,5.27,4.35,11.71,5.36,18.16,6,5.31.52,10.63,1.23,15.99,1.15Z"/>
    </g>
    <g>
      <path class="cls-41" d="M588.71,522.26c-5.36-7.91-12.64-13.82-19.96-19.71-14.34-11.54-26.85-24.99-39.52-38.26-9.71-10.17-18.64-21-25.47-33.39-.47-.86-.92-1.72-1.12-2.8,4.77,4.8,11.35,11.32,19.32,18.97,4.96,4.76,7.42,7.16,10.49,9.93,9.55,8.65,19.47,16.91,29.06,25.52,3.52,3.16,6.59,6.82,9.86,10.25,8.49,8.26,14.45,17.98,17.34,29.49Z"/>
      <g>
        <path class="cls-41" d="M519.15,580.3c-2.96,6.62-9.77,21.91-24.55,34.33-6.41,5.39-13.48,9.52-20.93,19.53-4.5,6.05-7.26,11.71-8.9,15.58-1.32,3.46-2.63,6.92-3.96,10.43-1.15-8.91.77-19.4,4.28-29.45,3.75-10.75,8.45-18.53,13.85-26.9,6.93-10.72,9.33-11.96,14.25-19.18,14-20.54,16.45-42.6,17.93-55.89.34-3.03,1.2-15.83.2-32.67-.37-6.22-1.7-12.3-2.62-18.49,6.04,9.99,9.68,18.88,11.9,25.37,2.45,7.17,3.77,13.17,4.36,16.08,0,0,1.19,5.89,1.77,11.36,2.77,26.16-7.58,49.9-7.58,49.9Z"/>
        <path class="cls-41" d="M589.35,573.5c-.23,6.6-1.48,13.16-2.26,19.74-1.41,7.2-3.76,14.08-7.21,20.63.4-3.96.79-9.57.64-16.29-.16-7.46-1.26-28.48-11.87-52.78-15.87-36.34-53.77-81.74-57.17-87.57-1.25-2.14-2.05-4.42-2.05-4.42-.5-1.42-.83-2.76-1.05-3.99.42.37,1.07.94,1.87,1.64,14.44,12.71,35.25,33.06,56.57,63.27,16.36,23.19,19.22,32.82,20.63,39.1,1.48,6.58,2.14,13.47,1.9,20.68Z"/>
        <path class="cls-41" d="M531.53,640.5c-2.01,1.82-3.8,3.23-5.07,4.19,4.15-8.59,6.56-16.6,8.88-24.68,6.61-22.99,8.53-46.39,6.43-70.13-1.27-14.4-5.77-28.05-10.65-41.56-.42-1.17-.77-2.36-1.15-3.54-3.71-8.46-7.78-16.73-12.32-24.77-.18-.26-.36-.52-.54-.78-.09-.22-.16-.46-.21-.7.14-1.06-.29-2.26.8-3.07,15.31,24.06,29.61,48.61,36.55,76.67,3.29,13.31,5.86,30.4.05,50.41-1.84,6.35-7.15,23.82-22.77,37.97Z"/>
        <path class="cls-41" d="M495.77,520.57c-.57,4.35-1.09,8.31-1.6,12.27-.75,5.79-4.8,19.75-14.66,32.36-10.29,13.16-18.16,12.93-35.66,28.61-11.65,10.44-14.37,16.68-15.14,18.1-.59,1.09-.72,3.23-2.57,2.4-1.39-.61-.72-2.54-.51-3.74,1.72-9.92,5.73-18.63,11.46-26.4h0c.28-.14.52-.37.69-.77,1.42-1.86,3.69-4.67,6.73-7.86,8.2-8.61,11.99-10.14,19.56-15.87,13.39-10.14,24.41-22.21,30.82-38.01.12-.3.41-.53.87-1.09Z"/>
        <path class="cls-41" d="M437.79,583.4c-.17.4-.41.63-.69.76.2-.25.39-.51.58-.76h.11Z"/>
        <path class="cls-41" d="M556.5,423.59c-5.86-.8-10.61-3-15.07-5.2-24.3-12.02-41.28-30.82-50.68-56.33-4.85-12.82-5.83-26.01-3.53-39.89.62,3.28,1.38,6.58,2.27,9.92,11.48,42.89,41.48,72.65,67.01,91.5Z"/>
        <path class="cls-41" d="M489.86,507.68c-6.19,14.17-16.28,24.87-29.43,32.82-15.28,9.24-20.84,9.25-35.65,16.91-7.75,4.01-18.8,10.65-30.92,21.67,2.26-4.88,4.02-9.48,7.5-13.17,8.01-11.84,19.39-19.78,31.43-26.88,8.48-5,7.45-3.43,17.47-9.46,14.74-8.87,33.76-20.64,41.16-41.36.75-2.08,1.22-3.84,1.5-4.95,1.54,5.64.04,17.33-3.06,24.42Z"/>
        <path class="cls-41" d="M576.13,450.62c-5.01-.71-9.49-1.13-13.93-1.66-11.51-1.38-23.12-2.94-33.25-9.08-18.01-10.91-32.87-24.63-38.29-46.09-1.56-5.04-2.71-10.15-3.27-16.14,6.15,12.41,13,21.05,17.96,26.51,11.93,13.16,24.33,20.53,44.92,32.55,10.65,6.22,19.69,10.86,25.86,13.91Z"/>
        <path class="cls-41" d="M518.01,364.8c-.07,0-.34.06-.39-.01-8.25-13.38-18.29-25.83-22.05-41.55-2.45-10.22-3.53-20.5,1.01-30.54.86-3.05,1.73-6.1,2.88-10.17,1.6,4.63.91,8.43,1.39,12.06,1.11,8.37,3.67,16.19,6.85,23.9,4.05,9.85,6.53,20.08,7.08,30.74,1.08,5.18,2.15,10.36,3.23,15.57Z"/>
        <path class="cls-41" d="M478.57,494.51c-6.66,7.32-14.95,12.21-23.84,16.18-5.02,2.24-9.99,4.51-15.27,8.26,1.51-3.28,3.01-5.45,4.95-7.33,5.96-8.59,14.59-14.3,22.44-20.86,10.47-8.76,19.16-18.82,23.81-31.91.54-2.28,1.08-4.56,1.8-7.6,1.72,17.01-2.88,31.15-13.89,43.26Z"/>
        <path class="cls-41" d="M478.99,410.03c-2.13,6.42-4.74,11.29-6.72,14.53-5.42,8.84-11.56,14.39-16.98,19.22-2.45,2.17-5.47,4.67-9.08,7.3-1.32.96-2.72,1.93-4.2,2.91,2.5.3,12.93,1.25,22.86-5.75,10.76-7.58,13.01-18.93,13.41-21.16.87-5.67,1.42-11.34.71-17.05ZM476.6,428.3c.02-.08.1-.92.57-1.27-.3.26-.39.81-.57,1.27ZM477.23,426.99s.04-.04.07-.05c.02-.01.04-.02.07-.02-.05.01-.1.04-.14.07Z"/>
        <path class="cls-41" d="M477.17,427.03c-.3.26-.39.81-.57,1.27.02-.08.1-.92.57-1.27Z"/>
        <path class="cls-41" d="M477.3,426.94s.04-.02.07-.02c-.05.01-.1.04-.14.07.02-.02.04-.04.07-.05Z"/>
      </g>
    </g>
    <path class="cls-29" d="M469.31,308.51c2.73-2.13,5.69-3.95,8.9-6.15-.52,1.68-.97,3.11-1.41,4.53-1.8,10.28-6.71,18.84-14.56,25.64-3.05,2.64-5.51,5.51-7.47,8.59-4.19,6.56-5.05,13.18-6.63,26.49-.17,1.44-.38,3.41.06,3.54.8.23,2.87-5.92,7.57-15.24,2.48-4.91,3.76-7.43,5.81-10.11,3.62-4.72,7.66-7.68,10.43-9.4-4.56,21.74-10.98,37.94-16.43,45.17-3.04,4.04-6.46,7-6.46,7-4.84,4.2-9.71,6.52-13.11,7.82.12-6.93.01-13.51-.26-19.72-.33-7.39-.83-12.79-3.38-19.07-.34-.83-.64-1.51-.86-1.98,1.38-9.77,3.88-20.98,8.35-32.94,1.45-3.89,3-7.56,4.59-10.99,2.18-5.37,5.14-10.25,9.11-14.5,5.58-8.3,13.05-13.55,23.25-14.38,1.89-.53,3.77-1.05,6.75-1.88-4.56,5.57-8.89,9.92-13.33,14.14-7.1,6.76-14.61,13.1-19.32,21.98-3.27,6.17-4.49,12.81-4.96,19.65-.06.89.19,3.22.91,3.35.96.17,2.45-3.66,3.58-6.99,2.73-10.91,10.48-18,18.87-24.56Z"/>
    <path class="cls-2" d="M473.81,369.65c.37,3.15.55,8.41-1.56,14.22-3.39,9.35-11.8,17.59-15.28,16.12-1.45-.61-2.14-2.94-2.2-4.46-.1-2.42,1.35-4.27,1.85-4.93,5.92-8.01,10.56-16.93,17.5-24.84-.12,1.56-.22,2.72-.31,3.89Z"/>
    <path class="cls-2" d="M480.44,460.09c-4.29,9.63-10.37,16.1-14.58,19.86.49-2.97.91-5.58,1.34-8.19-.67-2.8-1.59-5.53-3.47-7.63-1.35-1.49-.52-1.8.51-2.69,7.33-6.35,13.38-13.75,16.77-23.25,1.15-3.25,1.86-6.61,2.66-10.09.59,2.08,1.29,5.12,1.54,8.83.71,10.58-2.76,18.63-4.77,23.16Z"/>
    <path class="cls-29" d="M536.84,391.03c10.93,11.98,21.18,19.65,28.43,24.4,13.86,9.08,30.22,16.32,44.26,29.87,1.95,1.89,6.39,6.34,9.87,13.36,3.25,6.57,3.79,11.59,4.34,16.77.8,7.49-.51,9.05-1.45,9.62-1.13.68-2.57.42-3.74.02,1.5-7.21-.55-13.87-3.49-20.26-4.55-9.87-12.56-16.63-21.03-23.04-12.4-9.37-32.14-22.46-44.86-31.43-2.67-2.04-6.84-5.82-9.76-11.84-1.34-2.75-2.1-5.32-2.56-7.47Z"/>
    <path class="cls-29" d="M393.78,500.4c-.85.13-2.77.31-4.33-.83-1.35-.99-1.78-2.48-1.98-3.19-.49-1.79-3.04-13.53,6.35-27.41.6-.88,2.55-4.41,7.2-8.4,6.85-5.88,14.69-10.53,22.31-15.43,12.24-7.87,25.12-14.82,35.99-24.7,3.28-2.98,6.14-6.29,8.53-10.01,1.06-1.64,1.39-3.34,1.42-3.48.26-1.14.28-2.1.27-2.71.57.75,1.29,1.93,1.47,3.47.38,3.13-1.78,5.63-2.81,7.08-4.36,6.18-9.62,11.65-15.73,16.08-13.17,9.57-26.66,18.71-39.8,28.33-13.87,10.16-16.37,17.02-18.01,22.09-2.45,7.62-1.78,14.6-.91,19.08Z"/>
    <path class="cls-29" d="M558.9,465.64c7.76,2.03,11.52,3.91,13.52,5.29.28.2,1.37.96,2.98,2.04,2.96,1.99,5.14,3.35,5.36,3.49,5.03,3.18,16.52,21.59,22.38,28.34,6.8,7.84,15.59,10.36,33.16,15.4,19.19,5.5,24.27,2.09,39.78,8.73,9.44,4.04,15.59,8.73,21.7,13.4,8.77,6.7,21.62,18.16,33.52,36.27-.1-6.43-1.75-12.57-3.08-18.73-2.82-13.01-6.78-25.7-11.14-38.27-.6-1.72-.76-3.41-.68-5.18,4.28,9.6,8.55,19.22,12.8,28.83,8.85,20,17.63,40.03,26.36,60.08-11.18,10.68-22.36,21.36-33.53,32.05-4.62-16.02-9.32-29.36-13.2-39.54-7.62-19.99-12.67-28.17-17.19-35.5-11.06-17.93-27.61-27.95-47.6-32.96-7.84-1.96-15.83-3.39-23.6-5.6-14.7-4.19-25.64-13.46-33.51-26.39-2.96-4.87-5.09-7.73-6.98-9.87-2.94-3.34-5.15-5.48-7.41-7.63-3.38-3.21-8.11-7.93-13.66-14.25Z"/>
    <path class="cls-29" d="M290.75,525.56c.08.1.27.35.47.7,1.38,2.43.72,5.29.41,6.56-.83,3.37-6.78,22.04-15.38,47.32,1.29-1.01,3.26-2.6,5.56-4.65,2.96-2.65,5.01-4.77,5.52-5.28,6.37-6.44,13.04-12.52,20.29-17.99,11.06-8.35,23.79-12.11,37.26-14.11,13.75-2.04,27.64-3.21,41.17-6.7,16.96-4.38,30.13-14.01,39.98-28.31,3.68-5.34,8.16-10.18,10.62-16.33.46-1.16,1.79-1.23,2.82-1.68,2.46-1.08,4.95-2.14,7.34-3.34,3.19-1.6,7.61-3.44,10.38-7.65,1.04-1.58,1.58-3.06,1.86-3.98.23.33.53.85.71,1.53.5,1.91-.33,3.78-1.37,5.39-3.23,5-7.77,7.54-7.77,7.54-10.6,6.31-18.01,15.45-24.03,25.93-9.98,17.39-25.72,25.63-44.95,28.49-10.57,1.57-21.16,3.12-31.47,6.13-4.8,1.4-9.17,3.28-13.18,5.59-12.61,7.25-20.13,17.77-26.13,27.91-18.04,30.46-32.58,71.13-35.31,78.85-7.29-6.82-14.84-13.69-22.66-20.6-5.18-4.58-10.33-9.04-15.45-13.39,17.77-32.63,35.55-65.27,53.32-97.9Z"/>
    <path class="cls-29" d="M432.37,357.61c-3.45-7.92-6.14-14.23-7.84-18.23-4.61-10.86-5.94-14.25-8.99-18.89-3.81-5.8-7.9-9.86-10.73-12.37,5.53-.55,12.31-2.1,20.09-4.16,6.54-1.73,12.85-4.14,18.75-8.25-2.16,8.01-2.97,15.59-4.21,23.09-.21,1.27-.76,2.71.4,3.9-3.5,11.42-4.74,23.33-7.49,34.92Z"/>
    <path class="cls-29" d="M465.53,200.58c-1.06,1.19-1.17,2.69-1.46,4.16-1.55,7.89-7.04,12.81-13.08,17.48,2.7-11.48,2.49-22.66-.8-33.86-3.35-11.39-9.92-20.32-19.58-27.51,4.16-.44,8.28-.89,12.35.06,13.14,3.09,24.07,10.35,34.48,18.54,2.66,2.09,5.23,4.31,7.85,6.45.66.54,1.31,1.36,2.17.25,1.15,1.82,2.75,3.42,3.09,6.37-16.59-11.25-30.24-26.54-51.9-30.05,14.39,9.72,25.13,20.83,26.88,38.11Z"/>
    <path class="cls-29" d="M347.58,297.21c13.54.92,27.1.96,40.66.72,17.41-.3,33.31-5,47.25-15.86,9.57-7.45,14.94-17.71,19.99-28.24,1.4-2.92,3.06-5.74,4.2-8.95.18,6.14-2.58,12.15-.89,18.3-.48-.17-.87-1.69-1.46-.36-8.18,18.51-23.27,28.68-41.88,34.29-16.34,4.93-33.16,4.53-49.94,3.22-6.04-.47-12.1-1.28-17.93-3.12Z"/>
    <path class="cls-29" d="M428.6,133.34q-2.98,0-5.8-1.32c5.87-2.11,11.52-2.31,17.16-1.28,11.14,2.04,20.36,7.5,27.61,16.25,1.72,2.08,1.79,2.02,3.33,1.22,2.08,3.42,2.85,7.29,4.2,11.75-9.52-11.58-20.73-19.55-34.11-24.34-3.95-1.41-8.02-2.77-12.38-2.27Z"/>
    <g>
      <path class="cls-27" d="M452.78,115.04c-2.28-.91-4.56-1.82-7.55-3.02,16.85-.64,32.39,1.97,47.49,7.34,10.24,3.64,20.05,8.09,27.8,15.99,9.28,9.46,13.92,21.23,16.03,34.06,2.11,12.77.73,25.37-2.48,37.82-.34.22-.86.5-1.29.32-.95-.39-.85-2.64-.83-3.26.18-5.61-.91-11.19-1.34-16.79-.25-3.29-2.17-7.81-6-16.85-.57-1.34-3.34-7.83-7.72-15.57-1.29-2.28-1.95-3.44-3-4.91-2.66-3.74-3.94-4.2-8.62-9.7-1.78-2.09-2.05-2.56-2.32-2.46-1.54.59,5.42,16.31,6.17,34.76.36,8.98-1,16.31-2.11,20.85-.61-1.28-1.03-2.3-1.22-2.79-4.72-11.63-6.9-28.55-7.66-30.77-.25-.75-.64-1.4-.64-1.4-.35-.61-.7-1-.77-1.09-1.57-1.86-12.09-20.19-26.11-32.74-1.78-1.59-3.68-3.15-6.19-4.72-4.55-2.85-8.78-4.29-11.64-5.06Z"/>
      <path class="cls-31" d="M505.79,77.44c4.61-1.35,12.15-3.16,21.53-3.54,11.64-.47,17.45.14,47.03,7.58,11.57,2.91,23.22,5.03,35.21,2.72,8.79-1.69,16.61-5.35,23.32-11.67-2.23,7.91-13.49,17.39-26.84,22.79,15.87,8.23,46.14,10.61,64.85-6.28-.34.62-.86,1.57-1.57,2.69-1.43,2.26-5.39,8.39-12.31,12.76-1.1.7-3.72,2.26-9.72,4.18-2.59.83-12.97,4.09-23.49,4.21-11.03.13-18.98-3.32-34.87-10.21-13.5-5.86-21.38-11.14-39.66-17.28-1.62-.54-2.43-.81-3.66-1.19-15.65-4.78-33.04-6.17-36.15-5.44-.27.06-1.34.36-2.38-.13-.66-.32-1.07-.84-1.29-1.19Z"/>
      <path class="cls-44" d="M525.04,33c-1.92-1.92-11.05,13.42-33.99,21.63-20.62,7.37-39.33,4.31-58.88,20.6h0c-4.18,3.47-13.59,12.41-18.47,29.89,17.23-14.52,32.19-20.47,42.85-23.2,16.48-4.22,22.09-4.31,34.1-10.61,23.61-12.39,36.74-35.96,34.39-38.31Z"/>
      <path class="cls-13" d="M545.74,158.89c-.89-2.56-1.78-5.13-2.74-7.87,15.75,7.78,26.6,42.44,19.95,63.05-.58,1.37-1.52,3.37-2.98,5.6-1.72,2.63-3.36,4.34-3.96,4.98-2.16,2.3-5.34,6.08-9.83,12.57-.42-1.65-.97-4.4-.83-7.79.16-3.93,1.16-6.8,1.47-7.72,2.46-7.43,5.18-25.46,3.96-40.4-.43-5.22-1.58-13.03-5.04-22.42Z"/>
      <path class="cls-10" d="M608.19,123.98c8.3,1.75,16.6,3.5,24.9,5.24,28.17,5.93,35.77,6.99,46.54,6.35,7.2-.43,13.92-2.51,20.7-5.49-2.19,3.57-6.1,6.66-12.05,9.1-8.17,3.36-16.59,5.71-25.58,5.02-.14-.27-.42-.72-.93-1.06-1.02-.67-2.26-.43-2.55-.38-4.17.7-8.39-1.06-12.61-1.44-3.7-.33-10.38-1.71-23.45-6.54,0,0-15.79-5.07-16.44-8.85-.05-.31-.21-1.26.29-1.71.35-.32.89-.29,1.16-.23Z"/>
      <path class="cls-28" d="M560.87,359.83c-.17-1.03-.36-2.36-.47-3.92-.93-13.54,5.38-24.79,9.16-31.37.74-1.29,1.45-2.51,2.55-4.1,3.74-5.43,13.27-13.17,13.27-13.17,15.19-12.85,20.94-17.18,22.8-18.13.26-.13,1.25-.61,2.48-1.48,2.41-1.7,3.43-3.25,3.59-3.14.29.2-2.53,5.2-7.2,11.79-2.08,2.94-4.55,6.55-8.43,10.9-12.63,14.19-15.9,14.67-24.92,26.2-6.45,8.24-9.4,16.76-11.16,21.51-.76,2.05-1.33,3.76-1.68,4.89Z"/>
      <path class="cls-35" d="M617.66,328.08c-.25-1.99-.52-4.96-.47-8.55.12-9.91,2.53-14.84,10.52-36.03,4.59-12.18,11.58-23.68,13.91-36.49.12-.66.19-1.31,1.03-1.16.69.12.99.74,1.1,1.38,1.06,5.7,1.15,11.44.63,17.19-1.36,15.24-8.91,27.87-16.9,40.37-4.57,7.15-8.22,14.78-9.83,23.3Z"/>
      <path class="cls-32" d="M650.02,189.13c-1.78-4.44-3.55-8.88-5.64-14.11,3.92,3.32,6.26,6.82,8.82,10.16,6.13,8,10.68,16.78,13.26,26.49,3.03,11.41,2.41,22.95.65,34.49-.83,5.43-1.44,10.89-2.15,16.33-.33.27-.86.63-1.39.51-.36-.08-1.06-.46-1.53-2.74-1.61-7.84-6.13-49.34-6.13-49.34-.38-3.51-1.29-10.62-4.66-18.96-.5-1.24-.95-2.24-1.22-2.83Z"/>
      <path class="cls-43" d="M667.8,166.67c4.1,4.16,11.41,12.75,15.31,25.63,1.36,4.49,1.97,8.4,2.27,11.2-.58-.08-1.32-.26-2.03-.75-.93-.63-1.37-1.48-2.62-4.21-.7-1.52-1.05-2.28-1.15-2.55-2.31-6.67-27.02-32.23-37.21-39.89-.61-.46-2.47-1.83-2.3-3.38.11-.97.98-1.65,1.54-2.02,5.48,1.71,16.28,5.91,26.19,15.97Z"/>
      <path class="cls-12" d="M531.23,245.01c3.64,11.61,3.15,23.22-.03,34.82-.47.83-1.25,2.13-2.38,3.61-1.14,1.49-2.08,2.44-2.49,2.87-2.37,2.5-4.13,6.21-7.02,12.38-2.5,5.33-3.4,8.18-3.88,11.28-.06.36-.1.66-.12.86-.13-.2-.32-.52-.52-.93-1.77-3.64-.45-6.89.47-12.86.75-4.83.13-4.25.89-8.17.2-1,.88-4.33,2.55-8.72,1.07-2.82,1.59-3.55,3.79-8.13,3.19-6.65,4.78-9.98,5.23-12.04,1.16-5.27,1.73-7.9,1.53-11.19-.06-1.01-.29-3.66.72-4.09.4-.17.89.07,1.25.3Z"/>
      <path class="cls-4" d="M467.58,96.62c4.28-1.03,10.2-2.21,17.32-2.88,28.12-2.65,49.73,5.09,55.71,7.3,31.88,11.81,54.29,32.88,64.21,66.03,3.16,10.56,3.68,21.35,2.78,32.31-.75,9.09-2.61,17.86-6.02,26.3-.5.32-1.25.7-1.72.42-.9-.53-.26-3.13-.13-3.7,1.35-5.93-.4-21.23-1.28-28.85-1.36-11.9-5.44-20.76-7.91-26.04-1.05-2.24-5.83-12.2-15.32-23.11-3.75-4.31-12.38-13.54-25.91-21.7-6.01-3.62-10.66-5.61-19.96-9.57-13.39-5.71-20.09-8.57-27.57-9.87-15.41-2.68-23.11-4.02-28.26-3.4-1.06.13-5.22.7-6.13-1.02-.37-.7-.1-1.57.19-2.22Z"/>
      <path class="cls-18" d="M615.03,146.57c6.27,6.45,16.35,18.77,21.06,36.9,2.71,10.42,2.6,18.79,2.54,21.08-.45,17.74-7.4,32.06-11.08,39.45-.18.36-.33.66-.43.85-3.36,4.09-8.58,9.92-15.76,16.03-1.47,1.25-3.11,2.51-6.07,4.83-7.05,5.54-12.37,9.52-13.61,10.45-23.75,17.8-35.63,26.71-39.87,32.89-5.71,8.32-14.98,25.9-14.87,31.09.01.52.17,3.44-1.47,4.49-.68.44-1.46.42-1.97.36.01-.33.04-.82.07-1.41.5-8.69,1.64-28.76,12.75-46.3,1.51-2.38,10.09-14.24,22.57-22.7,7.13-4.83,14.43-9.41,21.36-14.53.94-.81,1.88-1.62,2.83-2.42,3.6-2.2,8.11-5.45,12.56-10.14,6.11-6.43,9.66-12.96,11.7-17.55,5.08-15.56,5.94-28.67,5.87-37.15-.09-10.36-.13-15.53-2.3-21.32-2.66-7.1-3.92-14.81-7.55-21.47-.28-.5-1.26-2.26-.62-3.09.47-.6,1.6-.48,2.27-.35Z"/>
      <path class="cls-26" d="M556.13,264.66c-.32.03-.71,0-.95-.25-.58-.61.15-2.17.38-2.68,3.55-7.76,5.52-16.16,8.87-24,1.06-2.49,2.37-5.61,2.94-9.96.25-1.94.28-3.55.26-4.63,0,0,.1-.71.1-.72.03-.24.07-.48.1-.72.15-.31.29-.61.44-.92-.04-.21,0-.4.1-.58.69-.02,1.39-.05,2.08-.07-.78,8.83-.73,17.79-4.43,26.13-2.83,6.39-6.3,12.43-9.91,18.4Z"/>
    </g>
    <path class="cls-29" d="M461.58,182.4c7.03,3.29,11.5,15.49,10.43,27.67-1.79-9.67-6.11-18.41-10.43-27.67Z"/>
    <g>
      <path class="cls-11" d="M556.13,264.66c-1.78,3.68-3.57,7.36-5.77,11.9,2.82-19.42,11.49-35.95,17.27-53.41,1.19,5.16-.91,9.87-2.45,14.48-2.69,8.09-6.06,15.95-9.16,23.91-.42,1.08-.9,2.12.11,3.13Z"/>
      <path class="cls-21" d="M507,77.1c1.67.3,4.42.72,7.84.93,2.98.19,5.17.13,5.62.13,10.39-.16,26.04,5.09,26.04,5.09,13.57,4.55,27.03,10.78,42.74,18.55,24.96,12.35,36.81,9.83,40.53,9.66,11.73-.52,21.14-4.06,27.24-6.97-12.97,8.98-27.37,12.17-42.98,11-17.04-1.27-31.92-8.61-46.73-16.21-14.97-7.68-30.65-13.4-47.35-15.64-8.87-1.19-17.84-2.21-26.95-1.96,3.28-1.31,6.82-2.55,10.61-3.65,1.15-.33,2.28-.64,3.39-.93Z"/>
      <path class="cls-5" d="M545.74,158.89c3.54,7.04,4.86,14.69,5.97,22.37,1.97,13.66-.08,26.98-3.23,40.26-1.05,4.44-2.73,8.91-1.91,14.49,3.25-4.26,5.95-8.18,9.03-11.76,2.76-3.2,4.16-7.33,7.35-10.18-.98,7.34-5.2,13.19-9.02,19.17-4.28,6.7-8.22,13.5-9.98,21.35-.08.36-.25.7-.66,1.8-1.05-10.75-.74-19.42-.29-25.28,1.05-13.56,3.69-22.03,5-40.62,0,0,.38-5.43.21-13.33-.14-6.32-.58-11.21-2.04-16.69-.18-.66-.33-1.2-.44-1.58Z"/>
      <path class="cls-38" d="M452.78,115.04c4.85-1.53,8.21,1.9,11.54,4.09,14.88,9.76,26.65,22.43,33.49,39.07,3.95,9.6,7.16,19.49,7.84,30.02.12,1.82.88,3.6,1.35,5.39-.5,2.41-1,4.83-1.7,8.19-3.15-14.06-6.66-27.02-11.75-39.48-3.57-8.73-8.9-19.05-19.09-29.97-7.88-8.44-15.89-13.92-21.67-17.31Z"/>
      <path class="cls-6" d="M502.95,138c.12-.1.54-.05,2.2,1.39,4.94,4.32,9.26,9.2,12.8,14.74,6.46,10.11,11.66,20.73,13.75,32.71.98,5.6,1.22,11.21,1.21,16.86,0,1.22-.78,2.88,1.17,3.53-.8,4.48-2.16,8.78-4.25,14.03-.1-8.73.42-16.36-.77-23.93-4.03-25.74-19.44-48.67-22.33-52.8-.82-1.17-4.31-6.07-3.78-6.52Z"/>
      <path class="cls-25" d="M531.23,245.01c-1.98.91-1.5,2.75-1.49,4.28.06,8.88-2.33,17.02-7.07,24.51-4.82,7.61-6.55,16.2-7.06,24.98-.23,3.91-1.91,7.86-.28,11.82-.31,2.16-.61,4.32-1.03,7.28-2.08-8.54-1.74-16.34-.82-24.22,1.31-11.22,5.48-21.51,9.61-31.85,3.33-8.32,5.59-16.9,4.24-26.79.73,1.27,1.49,2.77,2.18,4.48.81,2.02,1.35,3.89,1.71,5.5Z"/>
      <path class="cls-9" d="M650.02,189.13c4.22,6.34,5.53,13.68,6.53,20.94,2.31,16.7,4.12,33.48,6.1,50.22.17,1.48.64,2.4,2.3,2.2v13.87c-2.31-3.2-2.74-6.51-3.66-9.58-2.78-9.26-3.45-18.9-4.4-28.43-1.65-16.51-2.45-33.11-6.87-49.22Z"/>
      <path class="cls-22" d="M641.61,150.7c-1.73,1.98-1.48,3.26.78,5.01,14.53,11.28,27.67,23.93,37.55,39.65,1.74,2.76,2.45,6.22,5.44,8.15,0,.55-.02,1.15-.09,1.81-.15,1.32-.48,2.44-.81,3.32-.31-1.03-.82-2.55-1.62-4.3-1.52-3.36-3.08-5.4-8.28-11.99-3.33-4.22-5-6.33-6.3-7.92,0,0-3.65-4.69-6.81-8.08-9.08-9.74-19.06-18.6-29.45-27.1,3.35-.48,6.54-.03,9.57,1.45Z"/>
      <path class="cls-19" d="M609.04,124.21c-.74.28-1.96-.22-2.1,1.05-.13,1.24.93,1.62,1.82,2.09,5.41,2.85,10.97,5.35,16.77,7.34,11.21,3.85,22.39,7.81,34.48,7.76,0,0,1.52-.19,2.24.46.35.31.49.71.49.71.08.24.09.45.09.59-10.49-.48-25.3-2.44-41.68-9.03-9.68-3.9-17.64-8.5-23.88-12.75,1.65.08,3.44.24,5.34.51,2.36.33,4.51.78,6.44,1.27Z"/>
      <path class="cls-36" d="M517.09,303.84c.03-.53.1-1.34.26-2.32,1.06-6.43,4.65-10.96,8.63-15.88,1.22-1.51,2.96-3.54,5.22-5.81-2.41,7.69-5.06,11.61-7.11,13.76-.27.29-.8.82-1.45,1.59,0,0-.67.79-1.35,1.74-.9,1.24-2.42,3.68-4.2,6.92Z"/>
      <path class="cls-20" d="M468.05,96.55c.19,1.91,1.71,1.49,2.87,1.58,9.6.78,19.19,1.41,28.76,2.71,9.83,1.34,19.21,3.8,27.94,8.31,17.55,9.06,34.39,19.28,47.84,34.06,12.89,14.17,20.92,30.8,23.99,49.79,1.63,10.09,2.06,20.19.94,30.35-.12,1.06-.22,2.05,1.17,2.33-1.98,5.52-4.26,10.88-7.92,15.64,1.66-5.09,3.2-10.2,3.81-15.51.97-8.37,1.12-16.73-.35-25.07-2.55-14.56-7.74-28.11-15.32-40.8-7.09-11.88-15.98-22.18-26.8-30.79-2.6-2.07-4.63-4.9-8.86-6.78,12.2,13.26,20.89,27.15,23.05,43.85-25.51-44.74-63.4-67.78-116.19-64.66,4.85-2.66,9.8-4.28,15.04-5.01Z"/>
      <path class="cls-37" d="M533.55,344.52c3.23-.07,2.52-2.94,2.67-4.51,1.17-12.24,6.84-22.26,14.23-31.78,11.04-14.21,25.81-23.64,40.56-33.19,12.58-8.14,24.33-17.27,33.94-28.9.59-.72,1.2-1.27,2.17-1.3-4.74,10.71-12.6,18.94-21.25,26.5-11.38,9.95-24.71,17.26-36.38,26.83-8.11,6.65-24.56,20.33-30.96,42.6-3.24,11.27-2.89,21.24-2.15,27.68-2.76-8.43-3.52-16.1-2.84-23.95Z"/>
      <path class="cls-33" d="M615.03,146.57c-2.76.22-2.3,1.78-1.32,3.37,5.33,8.65,8.86,18.01,10.56,27.98,3.06,17.94,1.96,35.4-5.91,52.21-5.15,11-12.89,19.58-22.52,26.69-.88.65-1.74.94-2.78.84,6.75-7.93,13.45-15.88,17.77-25.51,6.77-15.09,10.18-30.97,9.21-47.4-.92-15.7-5.38-30.63-13.15-44.45-.15-.26-.08-.65-.19-1.87,3.48,2.67,6.01,5.28,8.33,8.14Z"/>
      <path class="cls-42" d="M610.9,288.38c.4.68-7.7,5.94-19.86,16.02-9.51,7.88-14.27,11.82-17.77,16.08-9.92,12.08-11.8,26.51-12.48,31.61-.21,1.58-.32,2.9-.39,3.83-.08-.9-.17-2.21-.2-3.8-.06-3.11-.08-15.66,6.06-28.12,6.78-13.76,17.76-20.63,29.73-28.18,7.05-4.44,14.53-8.06,14.91-7.43Z"/>
      <path class="cls-40" d="M641.58,247.29c-.33,4.2-1.13,10.51-3.38,17.81-4.1,13.29-8.96,16.65-14.08,29.59-6.08,15.36-5.81,27.19-6.46,27.09-.71-.11-1.77-14.17,3.58-29.54,3.3-9.48,6.46-12.03,13.07-26.66,3.41-7.54,5.77-13.96,7.27-18.3Z"/>
    </g>
    <path class="cls-39" d="M468.35,410.85c-2.4,3.71-5.25,7.03-8.53,10-10.87,9.87-23.76,16.83-35.99,24.7-7.62,4.9-15.47,9.54-22.32,15.43-11.08,9.52-13.6,22.34-12.3,36.28.27,2.86,2.2,2.91,4.31,2.8,1.99,2.52,4.42,2.77,7.34,1.8,6.74-2.23,12.16-6.26,16.67-11.62,6.79-8.07,13.81-15.88,23.48-20.67,2.76-1.37,5.7-2.19,8.69-2.95,2.59-.66,3.97-.37,5.17.05,2.47.87,3.85,2.87,4.41,3.82-.44,1.91-1.14,3.23-1.63,4.01-2.87,4.61-6.72,6.14-17.72,10.99-1.03.45-2.36.52-2.82,1.68-2.46,6.15-6.94,10.98-10.62,16.33-9.84,14.31-23.02,23.94-39.98,28.32-13.52,3.49-27.42,4.66-41.17,6.7-13.47,2-26.2,5.76-37.26,14.11-7.24,5.48-13.92,11.56-20.29,18-3.58,3.62-7.32,7.06-11.4,10.18-.8-.97-.45-1.67-.3-2.39,3.29-14.99,7.85-29.59,12.96-44.05.98-2.77,2.81-5.55,1.7-8.79,2.9-7.54,7.47-14.08,12.28-20.5,11.27-15.06,21.57-30.79,31.72-46.61,3.08-4.81,6.61-8.79,11.02-11.87,1.82-1.27,2.98-1.52,6.32-3.51,4.48-2.67,7.62-5.07,9.96-6.87,12.66-9.77,15.81-12.79,23.95-18.54,5.29-3.74,7.92-5.27,8.72-5.73,8.56-4.92,8.45-3.78,13.65-6.73,2.26-1.28,4.39-3.04,7.11-3.25.71-.06,2.46-.09,3.35,1.06.49.63.51,1.35.52,1.52.01,1.02-.6,2.02-1.8,3.03-3.2,2.69-10.44,5.39-12.49,6.24-4.32,1.79-2.81,2.48-11.33,8.24-8.18,5.53-9.04,4.54-14.42,8.75-6.33,4.96-4.95,6.18-11.07,10.56-5.63,4.02-7.7,3.63-11.33,7.72-3.05,3.44-4.95,7.51-5.48,8.67-1.06,2.3-1.72,4.34-2.14,5.87,1.64.58,2.04-1.04,2.68-1.89,1.59-2.08,3.08-4.26,4.44-6.49,3.04-4.97,7.49-8.03,13.02-9.4,12.22-3.04,22.37-9.68,31.56-17.93,2.93-2.64,6.1-4.83,9.68-6.25,11.92-4.72,22.07-12.26,32.28-19.73,1.37-1,2.44-3.4,4.66-1.47,2.16,1.89,2.57,4.22,1.18,6.79-.91,1.68-2.29,2.96-3.7,4.23-7.13,6.41-15.77,10.18-24.46,13.81-4.53,1.9-8.84,3.95-12.54,7.33-7.23,6.63-16.23,10.34-25.23,13.53-7.62,2.71-12.64,6.49-12.9,15.2-.08,2.8-1.24,5.68-3.15,9.01,3.77-1.77,5.51-4.6,6.75-7.14,4.05-8.29,10.92-12.49,19.27-15.35,7.22-2.47,14.01-6.03,20.17-10.61,5.17-3.84,10.98-6.42,16.77-9.16,12.67-5.97,24.51-13.25,34.52-23.2,1.87-1.86,3.65-3.3,5.6-.14.19,2.22-.35,4.27-1.54,6.11Z"/>
    <path class="cls-14" d="M732.25,579.42c-1.58.02-2.14-.99-2.87-1.85-9.71-11.35-19.27-22.86-30.47-32.81-6.59-5.85-14.21-10.38-22.42-13.62-12.64-5.01-25.99-7.42-39.24-10.12-12.28-2.51-24.05-6.38-34.02-14.31-9.35-7.44-16.35-16.95-22.79-26.88-1.17-1.81-2.32-3.31-3.96-4.44-1.2-.83-2.25-1.18-2.6-1.31-2.13-.78-6.22-2.82-14.74-8.21-.1-.07-.18-.15-.24-.22-.42-.5-.27-1.19-.24-1.35.41-.98,1.36-2.88,3.38-4.05,1.49-.87,3.31-1.13,5.55-.89,7.95.84,14.5,4.52,20.21,9.77,3.59,3.31,6.85,6.99,10.24,10.51,3.79,3.95,8.21,6.8,13.53,8.3,3.29.94,5.62.24,6.93-3.04,3.09.46,3.97-1.08,3.77-3.9-.16-2.13.06-4.28-.02-6.4-.49-11.49-5.03-21.16-13.61-28.71-13.63-12-29.57-20.63-44.84-30.26-10.42-6.56-20.55-13.57-26.97-24.58.34-1.35,1.06-3.31,2.73-4.1,4.08-1.93,9.12,5.41,20.93,12.71,7.06,4.36,7.35,3.04,20.6,10.3,3.71,2.04,6.6,3.76,12.36,7.21,21.46,12.85,19.91,13.48,25.43,15.6,1.4.54,4.75,1.77,8.05,4.79,1.67,1.53,3.12,3.34,4.37,5.49,2.48,4.29,5.69,8.17,8.86,12.11-.9-3.11-2.41-7.52-5.01-12.5-1.26-2.43-2.07-3.96-3.35-5.66-3.98-5.29-7.8-5.79-15.19-10.56-6.94-4.47-5.52-5.3-12.87-10.04-2.07-1.34-3.65-2.21-13.46-7.06-7.79-3.85-11.98-5.85-18.4-9.11,0,0-10.16-4.59-16.54-11.57-1.62-1.77-3.07-3.71-3.29-6.21-.15-1.72.48-3.19,1.89-4.29.41-.31.78-.44,1.13-.45,1.09-.03,1.97.96,2.17,1.18,4.47,4.92,11.33,6.95,16.89,10.6,2.67,1.75,7.53,4.13,17.25,8.88,14.9,7.29,16.26,7.16,21.11,10.81.85.64,4.34,3.69,11.33,9.78,5.98,5.22,7.57,6.69,10.81,8.75,4.55,2.89,5.28,2.45,8.54,5,2.85,2.24,5.2,4.12,8.17,8.92,1.9,3.07,4,6,6.37,8.8-4.19-11.46-9.98-17.7-14.65-21.31-6.07-4.69-11.54-5.94-18.47-13.78-2.65-2.99-3.34-4.49-6.61-7.49-1.25-1.15-4.27-3.78-13.22-8.73-3.52-1.95-8.21-4.39-13.9-6.95-.51-.19-3.9-1.47-6.05-4.63-1.26-1.86-1.24-3.12-1.16-3.73.14-1.06.75-2.47,1.93-2.96,1.36-.56,2.93.33,3.58.71,25.98,15.26,38.98,22.89,43.67,28.26,6.48,7.41,8.78,12.24,15.83,15.47,2.07.95,5.48,2.18,9.73,5.15,4.04,2.81,6.6,5.61,7.81,6.94,33.57,37.09,48.25,72.8,48.25,72.8,8.93,21.73,12.7,40.37,14.71,50.52,1.5,7.61,2.46,14.06,3.08,18.73Z"/>
    <g>
      <path class="cls-24" d="M771.57,324.7c8.41,5.95,15.6,11.86,21.82,18.9,20.85,23.61,36.01,50.67,44.9,81.25,7.29,25.09,11.29,50.75,8.99,77.02-3.58,40.86-17.89,76.35-48.86,103.73-17.33,15.31-36.17,28.37-54.85,41.72-14.63,10.45-29.23,20.94-43.91,31.31-18.43,13.02-38.28,23.11-59.5,30.3-4.8,1.63-9.65,3.14-14.8,4,5.52-4.78,11.03-9.58,16.57-14.33,18.93-16.24,36.38-34.14,54.27-51.55,12.73-12.39,24.66-25.6,36.37-38.96,8.65-9.86,16.5-20.52,24.56-30.96,9.97-12.92,18.67-26.78,26.71-40.85,10.35-18.1,18.67-37.44,24.13-57.94,3.38-12.69,5.48-25.52,6.21-38.6.61-10.95-1.11-21.72-3.4-32.35-4.13-19.19-12.54-36.58-22.11-53.37-4.94-8.66-10.42-16.99-15.77-25.4-.6-.94-.67-1.88-1.31-3.92Z"/>
      <path class="cls-7" d="M674.63,708.72c5.26-3.24,9.99-6.09,14.67-9.04,21.15-13.32,40.96-28.71,61.58-42.85,13.98-9.59,27.96-19.19,41.62-29.25,17.53-12.91,34.34-26.85,47.25-44.84,14.22-19.81,25.09-41.59,31.26-65.5,5.71-22.15,8.53-44.69,5.58-67.67-1.83-14.25-5.1-28.1-10.29-41.45-.79-2.03-1.52-4.09-2.29-6.14-.26-.68-.67-1.47.11-1.95,1.08-.66,1.37.41,1.91,1.08,9.62,11.87,16.72,25.24,22.52,39.44,8.78,21.52,12.01,44.04,11.21,67.18-.46,13.6-2.67,27.02-6.64,40.06-6.58,21.58-15.31,42.09-27.86,60.81-10.67,15.92-23.95,29.08-39.33,39.93-22.86,16.12-46.85,30.24-72.97,40.03-22.1,8.27-44.69,14.83-67.96,18.63-3.19.52-6.24,1.96-10.35,1.53Z"/>
      <path class="cls-15" d="M622.14,729.41c4.9-2.88,10.23-3.59,15.47-4.42,26.54-4.19,53.34-5.09,80.1-6.32,23.89-1.1,47.75-2.57,71.35-6.38,26.09-4.22,51.41-11.51,75.37-23.42,20.83-10.36,39.3-23.76,53.99-42.36.22-.28.63-.41,1.55-.98-2.14,9.47-5.41,17.86-9.62,25.75-6.86,12.87-14.92,24.91-25.51,34.93-6.45,6.1-13.56,11.25-20.84,16.26-11.06,7.6-23.3,11.97-35.93,15.56-11.53,3.28-23.39,3.72-35.2,4.01-14.69.35-29.4.15-44.01-1.87-19.63-2.71-39.32-4.89-58.94-7.68-17.26-2.45-34.71-2.7-52.12-3.06-5.22-.11-10.44-.02-15.65-.02Z"/>
      <path class="cls-23" d="M864.25,752.54c-5.14,7.09-10.4,13.71-17.76,18.55-5.52,3.63-10.37,8.33-16.32,11.46-26.26,13.83-52.73,14.73-79.34,1.35-9.52-4.79-18.48-10.65-27.48-16.4-17.28-11.03-36.07-18.49-55.38-24.7-1.22-.39-2.41-.88-4.7-1.73,18.95,1.74,36.73,3.65,54.43,6.56,13.07,2.14,26.24,3.58,39.45,4.72,11.83,1.02,23.64,1.05,35.46.77,6.82-.16,13.62-1.06,20.58-1-4.5,1.17-8.97,2.54-13.53,3.45-4.74.95-9.55,1.64-14.36,2.09-4.69.43-9.41.51-14.12.57-4.76.06-9.53-.86-15.53-.05,37.51,9.84,73.23,8.52,108.6-5.66Z"/>
      <path class="cls-34" d="M720.13,709.5c6.1-1.86,12.61-3.73,19.04-5.84,19.51-6.37,39.34-11.65,58.52-19.14,9.99-3.9,19.7-8.37,28.95-13.88,15.75-9.39,28.45-22.39,40.49-36.24,13.41-15.44,25.61-31.73,35-50.14,5.36-10.52,9.92-21.35,12.55-32.97.41-1.82.99-3.6,1.84-6.64,1.15,16.91-.71,32.07-5.53,46.87-8.56,26.28-22.92,48.76-41.95,68.17-24.08,24.57-53.13,38.56-86.41,44.28-20.9,3.59-41.87,5.41-62.49,5.52Z"/>
      <path class="cls-45" d="M221.35,325.66c-5.94,9.9-12.07,19.67-17.76,29.72-8.07,14.25-14.67,29.17-19.07,45.14-3.85,13.97-5.39,28.09-4.82,42.55.48,12.12,3.02,23.84,6,35.49,6.25,24.41,17.25,46.67,30.06,67.92,11.52,19.11,24.67,37.06,39.11,54,17.76,20.82,36.35,40.79,55.95,59.76,17.7,17.15,35.16,34.58,54.45,49.9.66.53,1.75.93,1.32,1.96-.67,1.6-1.59.23-2.42,0-31.67-9.14-59.72-25.58-86.37-45.02-17.97-13.11-36.28-25.73-54.42-38.59-6.75-4.79-13.78-9.5-19.75-15.03-16.91-15.66-32.92-32.33-42.85-54.05-12.39-27.11-16.91-55.64-14.89-85.39,1.07-15.72,4-31.13,8.29-46.22,8.73-30.71,22.24-58.87,43.26-82.74,6.8-7.72,13.91-15.24,22.99-20.23l.9.85Z"/>
      <path class="cls-3" d="M320.36,708.25c-8.44-.16-15.3-2.17-22.18-3.58-27.84-5.72-55.18-13.26-80.82-26.21-20.59-10.4-40.25-22.49-58.37-37-21.5-17.23-36.57-39.64-47.84-65-8.11-18.25-14.62-37.07-16.7-57.08-1.56-15.05-1.39-30.21.95-45.32,3.25-21,10.42-40.35,21.25-58.34,3.17-5.26,6.16-10.66,10.25-15.28.58-.65,1.11-1.69,2.02-1.18,1.35.76.19,1.75-.13,2.6-9.92,25.77-14.6,52.5-12.34,80.16,2.84,34.79,14.37,66.47,33.58,95.24,12.42,18.61,28.55,33.25,46.06,46.42,32.03,24.08,65.47,46.03,98.28,68.92,7.95,5.55,16.21,10.66,25.98,15.65Z"/>
      <path class="cls-30" d="M73.04,645.73c7.8,8.49,15.85,16.29,24.71,23.21,18.81,14.68,39.82,24.89,62.22,32.2,14.14,4.61,28.56,8.11,43.19,10.43,14.48,2.29,29.05,4.03,43.72,4.75,22.79,1.12,45.58,2.28,68.35,3.68,18.04,1.12,36.02,3.02,53.73,6.99.67.15,1.43.09,1.94,1.19-2.16.96-4.39.4-6.53.43-27.55.28-54.97,1.97-82.31,5.97-16.91,2.48-33.9,4.59-50.98,5.86-19.99,1.48-39.87,1.63-59.68-1.83-18.32-3.2-34.88-10.84-49.81-22.03-22.28-16.69-37.95-38.6-47.1-65.42-.6-1.77-.97-3.62-1.45-5.44Z"/>
      <path class="cls-17" d="M129.23,751.61c10,3.32,19.87,7,30.25,9.09,18.5,3.73,36.98,4.53,55.62,1.14,7.5-1.36,14.94-2.85,22.93-5.69-20.25,2.49-39.48,1.55-59.12-4.9,2.62-.54,4.39-.13,6.2.14,1.97.28,3.99.23,5.98.4,16.12,1.38,32.19.86,48.31-.57,11.64-1.03,23.24-2.43,34.77-4.16,11.1-1.67,22.18-3.46,33.33-4.62,5.9-.61,11.81-1.62,17.91-.69-5.18,1.81-10.33,3.7-15.54,5.43-10.18,3.38-19.81,8-29.36,12.92-12.62,6.5-24.09,15.01-36.52,21.86-33.16,18.27-67.75,12.64-96.81-10.46-6.98-5.55-13.64-11.53-18.25-19.51.1-.12.2-.24.31-.36Z"/>
      <path class="cls-16" d="M274.41,708.7c-29.73-.24-59.25-2.1-87.88-10.96-9.37-2.9-18.26-6.93-27.01-11.72-28.1-15.38-48.44-38.6-64.45-66.15-12.1-20.82-19.24-43.41-18.28-68.13.02-.59.05-1.18.15-1.75.04-.22.31-.39.83-.98,1.98,5.72,3.89,11.21,5.77,16.7,5.83,16.98,14.69,32.23,25.13,46.56,9.85,13.52,21.02,25.82,32.49,37.88,13.75,14.45,30.35,24.12,48.32,31.49,26.85,11.02,54.77,18.62,82.5,26.83.77.23,1.62.17,2.43.24Z"/>
    </g>
    <g>
      <path class="cls-46" d="M472.12,879.08c-2.09,2.09-5.99,4.49-11.7,7.21v.71c.08,5.87-1.36,11.92-4.31,18.14-3.19,6.78-7.19,11.4-12,13.89-3.66,1.89-8.9,2.84-15.72,2.84s-14.06-1.24-21.04-3.72l-.41-.71.3-.18c.99.08,2.92.33,5.79.77,2.4.35,4.33.53,5.79.53,4.41,0,9.32-1.14,14.71-3.43,5.16-2.25,9.43-4.94,12.82-8.1,1.73-1.62,3.76-4.08,6.09-7.39,3.19-4.57,4.79-7.88,4.79-9.93,0-.87-.08-1.61-.24-2.25-3.15.95-5.32,1.42-6.5,1.42-2.88,0-4.75-.63-5.61-1.89-.63-.95-.95-2.95-.95-6.03,0-2.36.41-4.67,1.24-6.91,1.06-2.95,2.54-4.43,4.43-4.43,4.41,0,7.58,2.46,9.51,7.39,6.42-3.47,10.75-6.52,13-9.16v11.23ZM435.07,877.13c0,1.69-.45,3.11-1.36,4.25-1.02,1.3-2.34,1.95-3.96,1.95-3.51,0-5.83-2.66-6.97-7.98-.55-2.6-.83-6.66-.83-12.17,0-6.97.57-12.05,1.71-15.25,2.01,18.67,4.21,28.01,6.62,28.01.87,0,2.3-1.12,4.31-3.37.31,1.5.47,3.01.47,4.55ZM453.8,814.56c0,1.5-.12,3.53-.35,6.09-3.35-6.03-6.15-9.04-8.39-9.04-2.88,0-5.1,4.2-6.68,12.59-1.02,5.52-1.6,11.27-1.71,17.25-1.81-19.97-4.33-29.96-7.56-29.96-1.18,0-2.42,1.18-3.72,3.55-1.54-3.55-2.3-6.2-2.3-7.98,0-1.46.59-2.19,1.77-2.19,2.05,0,6.62,3.03,13.71,9.1,4.73-5.44,8.41-8.15,11.05-8.15,2.8,0,4.2,2.92,4.2,8.75ZM457.7,936.76c0,1.5-.12,3.53-.35,6.09-3.7-7.17-6.6-10.75-8.69-10.75s-3.25,4.18-3.25,12.53c0,2.88.12,5.53.35,7.98-3.43-13.2-7.21-19.8-11.35-19.8-1.81,0-3.53,1.48-5.14,4.43-1.54-3.51-2.3-6.17-2.3-7.98,0-1.46.59-2.19,1.77-2.19,1.73,0,4.16,1.2,7.27,3.6l6.44,5.5c4.73-5.44,8.41-8.15,11.05-8.15,2.8,0,4.2,2.92,4.2,8.75ZM464.32,856.98c0,1.69-.45,3.13-1.36,4.31-1.02,1.26-2.34,1.89-3.96,1.89-4.41,0-6.62-2.78-6.62-8.33,0-3.23.75-7.35,2.25-12.35,1.38-4.06,2.76-8.1,4.14-12.11-.04,1.62-.14,5.12-.3,10.52-.16,4.37-.24,7.9-.24,10.58,0,3.19.47,4.79,1.42,4.79.83,0,2.23-1.28,4.2-3.84.31,1.5.47,3.01.47,4.55Z"/>
      <path class="cls-46" d="M489.02,843.81c0,5.71-.16,9.18-.47,10.4-2.17,8.43-7.92,16.96-17.25,25.59v-11.05c5.95-5.83,9.43-9.43,10.46-10.81,3.19-4.21,4.79-8.84,4.79-13.89,0-6.18-4.14-15.15-12.41-26.89,0,2.72.22,6.36.65,10.93.51,5.36.81,8.98.89,10.87l-.47.47-.59-.18c-.75-1.81-1.5-6.93-2.25-15.36-.63-7.37-.95-12.88-.95-16.55,0-1.65.2-2.72.59-3.19,1.77.87,3.96,3.21,6.56,7.03,6.97,10.28,10.46,21.15,10.46,32.62ZM488.31,946.51c0,1.69-.45,3.13-1.36,4.31-.99,1.3-2.3,1.95-3.96,1.95-3.39,0-5.55-2.23-6.5-6.68-.39-1.81-.59-5.36-.59-10.64,0-19.18.96-30.59,2.9-34.21l-.06,5.97c-.16,24.82,1.75,37.23,5.73,37.23,1.02,0,2.15-.81,3.37-2.42.31,1.46.47,2.95.47,4.49Z"/>
      <path class="cls-46" d="M545.16,879.08c-2.09,2.09-5.99,4.49-11.7,7.21v.71c.08,5.87-1.36,11.92-4.31,18.14-3.19,6.78-7.19,11.4-12,13.89-3.66,1.89-8.9,2.84-15.72,2.84s-14.06-1.24-21.04-3.72l-.41-.71.3-.18c.99.08,2.92.33,5.79.77,2.4.35,4.33.53,5.79.53,4.41,0,9.32-1.14,14.71-3.43,5.16-2.25,9.43-4.94,12.82-8.1,1.73-1.62,3.76-4.08,6.09-7.39,3.19-4.57,4.79-7.88,4.79-9.93,0-.87-.08-1.61-.24-2.25-3.15.95-5.32,1.42-6.5,1.42-2.88,0-4.75-.63-5.61-1.89-.63-.95-.95-2.95-.95-6.03,0-2.36.41-4.67,1.24-6.91,1.06-2.95,2.54-4.43,4.43-4.43,4.41,0,7.58,2.46,9.51,7.39,6.42-3.47,10.75-6.52,13-9.16v11.23ZM508.11,877.13c0,1.69-.45,3.11-1.36,4.25-1.02,1.3-2.34,1.95-3.96,1.95-3.51,0-5.83-2.66-6.97-7.98-.55-2.6-.83-6.66-.83-12.17,0-6.97.57-12.05,1.71-15.25,2.01,18.67,4.21,28.01,6.62,28.01.87,0,2.3-1.12,4.31-3.37.31,1.5.47,3.01.47,4.55ZM526.84,814.56c0,1.5-.12,3.53-.35,6.09-3.35-6.03-6.15-9.04-8.39-9.04-2.88,0-5.1,4.2-6.68,12.59-1.02,5.52-1.6,11.27-1.71,17.25-1.81-19.97-4.33-29.96-7.56-29.96-1.18,0-2.42,1.18-3.72,3.55-1.54-3.55-2.3-6.2-2.3-7.98,0-1.46.59-2.19,1.77-2.19,2.05,0,6.62,3.03,13.71,9.1,4.73-5.44,8.41-8.15,11.05-8.15,2.8,0,4.2,2.92,4.2,8.75ZM530.74,936.76c0,1.5-.12,3.53-.35,6.09-3.7-7.17-6.6-10.75-8.69-10.75s-3.25,4.18-3.25,12.53c0,2.88.12,5.53.35,7.98-3.43-13.2-7.21-19.8-11.35-19.8-1.81,0-3.53,1.48-5.14,4.43-1.54-3.51-2.3-6.17-2.3-7.98,0-1.46.59-2.19,1.77-2.19,1.73,0,4.16,1.2,7.27,3.6l6.44,5.5c4.73-5.44,8.41-8.15,11.05-8.15,2.8,0,4.2,2.92,4.2,8.75ZM537.36,856.98c0,1.69-.45,3.13-1.36,4.31-1.02,1.26-2.34,1.89-3.96,1.89-4.41,0-6.62-2.78-6.62-8.33,0-3.23.75-7.35,2.25-12.35,1.38-4.06,2.76-8.1,4.14-12.11-.04,1.62-.14,5.12-.3,10.52-.16,4.37-.24,7.9-.24,10.58,0,3.19.47,4.79,1.42,4.79.83,0,2.23-1.28,4.2-3.84.31,1.5.47,3.01.47,4.55Z"/>
      <path class="cls-46" d="M562.06,843.81c0,5.71-.16,9.18-.47,10.4-2.17,8.43-7.92,16.96-17.25,25.59v-11.05c5.95-5.83,9.43-9.43,10.46-10.81,3.19-4.21,4.79-8.84,4.79-13.89,0-6.18-4.14-15.15-12.41-26.89,0,2.72.22,6.36.65,10.93.51,5.36.81,8.98.89,10.87l-.47.47-.59-.18c-.75-1.81-1.5-6.93-2.25-15.36-.63-7.37-.95-12.88-.95-16.55,0-1.65.2-2.72.59-3.19,1.77.87,3.96,3.21,6.56,7.03,6.97,10.28,10.46,21.15,10.46,32.62ZM561.35,946.51c0,1.69-.45,3.13-1.36,4.31-.99,1.3-2.3,1.95-3.96,1.95-3.39,0-5.55-2.23-6.5-6.68-.39-1.81-.59-5.36-.59-10.64,0-19.18.96-30.59,2.9-34.21l-.06,5.97c-.16,24.82,1.75,37.23,5.73,37.23,1.02,0,2.15-.81,3.37-2.42.31,1.46.47,2.95.47,4.49Z"/>
    </g>
  </g>
</svg>