<?xml version="1.0" encoding="UTF-8"?>
<svg id="Layer_1" data-name="Layer 1" xmlns="http://www.w3.org/2000/svg" xmlns:xlink="http://www.w3.org/1999/xlink" viewBox="0 0 282.82 283.2">
  <defs>
    <style>
      .cls-1 {
        fill: url(#linear-gradient-13);
      }

      .cls-2 {
        fill: url(#linear-gradient-2);
      }

      .cls-3 {
        fill: url(#linear-gradient-10);
      }

      .cls-4 {
        fill: url(#linear-gradient-12);
      }

      .cls-5 {
        fill: #92bfdb;
      }

      .cls-6 {
        fill: #eeeadf;
      }

      .cls-7 {
        fill: url(#linear-gradient-4);
      }

      .cls-8 {
        fill: #e8edd0;
      }

      .cls-9 {
        fill: url(#linear-gradient-3);
      }

      .cls-10 {
        fill: url(#linear-gradient-5);
      }

      .cls-11 {
        fill: url(#linear-gradient-8);
      }

      .cls-12 {
        fill: #c5a482;
      }

      .cls-13 {
        fill: url(#linear-gradient-7);
      }

      .cls-14 {
        fill: url(#linear-gradient-9);
      }

      .cls-15 {
        fill: url(#linear-gradient-11);
      }

      .cls-16 {
        fill: url(#linear-gradient-6);
      }

      .cls-17 {
        fill: #fff;
        font-family: Castellar, Castellar;
        font-size: 30.15px;
      }

      .cls-18 {
        fill: url(#linear-gradient);
      }

      .cls-19 {
        fill: #929480;
      }
    </style>
    <linearGradient id="linear-gradient" x1="38.66" y1="44.31" x2="241.05" y2="235.95" gradientUnits="userSpaceOnUse">
      <stop offset="0" stop-color="#f6861f"/>
      <stop offset=".26" stop-color="#9b721d"/>
      <stop offset=".31" stop-color="#bba23d"/>
      <stop offset=".4" stop-color="#edeb6d"/>
      <stop offset=".55" stop-color="#a7a23a"/>
      <stop offset=".66" stop-color="#7c751a"/>
      <stop offset=".72" stop-color="#6c640e"/>
      <stop offset=".83" stop-color="#5f6109"/>
      <stop offset="1" stop-color="#525e04"/>
    </linearGradient>
    <linearGradient id="linear-gradient-2" x1="106.82" y1="46.75" x2="118.78" y2="46.75" gradientUnits="userSpaceOnUse">
      <stop offset="0" stop-color="#f6861f"/>
      <stop offset=".26" stop-color="#9b721d"/>
      <stop offset=".52" stop-color="#7d6913"/>
      <stop offset=".72" stop-color="#6c640e"/>
      <stop offset=".83" stop-color="#5f6109"/>
      <stop offset="1" stop-color="#525e04"/>
    </linearGradient>
    <linearGradient id="linear-gradient-3" x1="104.29" y1="54.75" x2="117.37" y2="54.75" xlink:href="#linear-gradient-2"/>
    <linearGradient id="linear-gradient-4" x1="178.23" y1="141.46" x2="241.49" y2="141.46" gradientUnits="userSpaceOnUse">
      <stop offset="0" stop-color="#fff"/>
      <stop offset="1" stop-color="#6f6549"/>
    </linearGradient>
    <linearGradient id="linear-gradient-5" x1="192.23" y1="151.56" x2="256.25" y2="151.56" xlink:href="#linear-gradient-4"/>
    <linearGradient id="linear-gradient-6" x1="177.31" y1="191.28" x2="261.96" y2="191.28" xlink:href="#linear-gradient-4"/>
    <linearGradient id="linear-gradient-7" x1="189" y1="212.17" x2="246.13" y2="212.17" xlink:href="#linear-gradient-4"/>
    <linearGradient id="linear-gradient-8" x1="205.16" y1="172.27" x2="261.08" y2="172.27" xlink:href="#linear-gradient-4"/>
    <linearGradient id="linear-gradient-9" x1="42.11" y1="120.11" x2="124.29" y2="167.56" xlink:href="#linear-gradient-4"/>
    <linearGradient id="linear-gradient-10" x1="23.9" y1="134" x2="103.38" y2="179.89" xlink:href="#linear-gradient-4"/>
    <linearGradient id="linear-gradient-11" x1="25.53" y1="175.18" x2="99.19" y2="217.7" xlink:href="#linear-gradient-4"/>
    <linearGradient id="linear-gradient-12" x1="45.56" y1="198.23" x2="86.19" y2="221.69" xlink:href="#linear-gradient-4"/>
    <linearGradient id="linear-gradient-13" x1="18.45" y1="162.09" x2="80.12" y2="197.7" xlink:href="#linear-gradient-4"/>
  </defs>
  <ellipse class="cls-18" cx="141.41" cy="141.6" rx="141.41" ry="141.6"/>
  <path class="cls-6" d="M131.79,56.99c1.02,2.89,1.32,5.86.95,9.03.84-1.13,1.37-2.35,2.2-3.38.91-1.13,1.91-2.12,3.21-2.78,2.71-1.36,5.59.15,6.12,3.14.49,2.78-.29,5.23-1.88,7.43-1.89,2.61-4.21,4.74-7.28,5.94-.98.38-1.95.55-3,.4-1.2-.17-1.92-.82-2.23-1.97-.48-1.75.3-3.46.25-5.21-.32.91-.8,1.72-1.19,2.55-1.44,3-2.96,5.92-5.68,8.04-3.96,3.09-8.48,4.43-13.43,4.51-3.85.07-7.71.06-11.56-.21-.62-.14-1.25-.27-1.87-.44-2.7-.75-3.72-2.83-2.59-5.65.28-.69.71-1.31,1.02-1.98.68-1.45.77-2.87-.31-4.19-.47-.58-.49-1.11,0-1.72.5-.63.99-.39,1.49-.09.88.52,1.74,1.07,2.81,1.73-.98-1.61-1.7-2.48-2.14-2.95-.73-.78-1.1-1.17-1.24-1.29-.44-.38-.65-.48-.76-.78-.26-.67.26-1.45.34-1.57.44-.67.87-.63,1.98-1.69.17-.17.41-.4.57-.78.18-.42.18-.79.16-.94-.06-.47-.22-.82-.28-.94-.4-.76-.9-1.17-1.21-1.49-.67-.69-1.28-1.81-1.24-2.59.03-.85.82-1.21,3.56-3.03,0,0,4.52-2.99,6.2-5.32.1-.14.2-.29.2-.29.67-1.02.98-1.97,1.13-2.5.7.32.4.96.34,1.41-.22,1.46-.13,2.92-.14,4.38,0,.31-.27.81.22.91.41.08.67-.35.88-.68.11-.17.12-.41.2-.6.86-2,1.41-4.22,3.69-5.2,2.87.76,5.25,2.41,7.51,4.27-1.32-2.78-3.42-4.73-6.08-6.11-1.74-.9-3.62-1.17-5.54-1.32-.1-.01-.2-.03-.29-.04,1.9-4.73,4.95-8.51,9.9-10.04,5.18-1.61,11.08.69,14.46,5.31.86,1.18,1.58,2.44,2.1,3.81-.44.23-.46.24-.95-.35-2.06-2.49-4.68-4.04-7.85-4.62-1.6-.29-3.21-.24-4.88.36q.8.37,1.65.38c3.09.87,5.31,3.04,7.63,5.07,3.36,2.93,6.66,5.92,9.02,9.78.04.06.05.13.08.19-.25.32-.43.08-.62-.07-.74-.61-1.48-1.24-2.23-1.84-2.96-2.33-6.07-4.4-9.8-5.28-1.16-.27-2.33-.14-3.51-.02,2.75,2.05,4.61,4.59,5.57,7.83.94,3.19,1,6.37.23,9.64,1.72-1.33,3.28-2.73,3.72-4.97.08-.42.11-.85.42-1.18ZM140.99,67.76c.83-1.09,1.36-2.24,1.51-3.52.19-1.66-1.53-3.24-3.13-2.94-2.82.52-5.35,3.88-4.94,6.71.1.66-.1.73-.57.91-1.32.5-2.1,1.43-2.12,2.9-.02,1.36.78,1.98,2.07,1.52,2.17-.76,3.34-2.45,4.03-4.53.47-1.43.13-2.39-1.11-3.22-.21-.14-.47-.18-.37-.53.34-1.18,2.62-1.85,3.66-1.09,1.35.98,1.05,2.35.97,3.79ZM117.37,55.35c-1.52.02-3.04-.18-4.55-.33-1.84-.18-3.67-.47-5.16-1.71-.21-.17-.42-.33-.66-.18-.76.47-1.59.74-2.71.71,4.27,2.85,8.55,3.33,13.08,1.5Z"/>
  <path class="cls-5" d="M158.84,131.53c0,.16.01.32.02.48-.16-.15-.23-.31-.02-.48Z"/>
  <path class="cls-19" d="M140.99,67.76c.08-1.44.38-2.81-.97-3.79-1.04-.75-3.32-.09-3.66,1.09-.1.35.17.39.37.53,1.23.83,1.58,1.79,1.11,3.22-.69,2.08-1.87,3.77-4.03,4.53-1.29.45-2.1-.16-2.07-1.52.03-1.47.81-2.4,2.12-2.9.47-.18.67-.25.57-.91-.41-2.83,2.12-6.19,4.94-6.71,1.6-.3,3.32,1.28,3.13,2.94-.15,1.28-.67,2.43-1.51,3.52Z"/>
  <g>
    <path class="cls-2" d="M111.27,46.19c-1.05-.77-2.3-1.12-3.51-1.5-1.05-.32-1.16-.83-.6-1.66,1.92.15,3.8.43,5.54,1.32,2.66,1.37,4.77,3.32,6.08,6.11-2.26-1.87-4.64-3.51-7.51-4.27Z"/>
    <path class="cls-9" d="M117.37,55.35c-4.53,1.82-8.82,1.35-13.08-1.5,1.12.03,1.95-.24,2.71-.71.25-.15.46,0,.66.18,1.5,1.24,3.33,1.53,5.16,1.71,1.51.15,3.02.35,4.55.33Z"/>
  </g>
  <g>
    <path class="cls-8" d="M166.8,148.55c-1.52-2.25-3.59-3.93-5.67-5.61-4.08-3.28-7.63-7.11-11.23-10.89-2.76-2.89-5.3-5.98-7.24-9.5-.13-.24-.26-.49-.32-.8,1.36,1.37,3.23,3.22,5.49,5.4,1.41,1.35,2.11,2.04,2.98,2.83,2.71,2.46,5.53,4.81,8.26,7.26,1,.9,1.87,1.94,2.8,2.92,2.41,2.35,4.11,5.12,4.93,8.39Z"/>
    <g>
      <path class="cls-8" d="M147.03,165.07c-.84,1.89-2.78,6.24-6.98,9.77-1.82,1.53-3.83,2.71-5.95,5.56-1.28,1.72-2.06,3.33-2.53,4.43-.38.98-.75,1.97-1.13,2.97-.33-2.54.22-5.52,1.22-8.38,1.07-3.06,2.4-5.27,3.94-7.66,1.97-3.05,2.65-3.4,4.05-5.46,3.98-5.85,4.68-12.13,5.1-15.91.1-.86.34-4.51.06-9.3-.11-1.77-.48-3.5-.74-5.26,1.72,2.84,2.75,5.37,3.38,7.22.7,2.04,1.07,3.75,1.24,4.58,0,0,.34,1.68.5,3.23.79,7.44-2.15,14.2-2.15,14.2Z"/>
      <path class="cls-8" d="M166.98,163.13c-.07,1.88-.42,3.75-.64,5.62-.4,2.05-1.07,4.01-2.05,5.87.11-1.13.22-2.72.18-4.64-.05-2.12-.36-8.11-3.37-15.02-4.51-10.34-15.28-23.26-16.25-24.93-.35-.61-.58-1.26-.58-1.26-.14-.4-.24-.79-.3-1.14.12.11.3.27.53.47,4.1,3.62,10.02,9.41,16.08,18.01,4.65,6.6,5.46,9.34,5.86,11.13.42,1.87.61,3.83.54,5.89Z"/>
      <path class="cls-8" d="M150.55,182.2c-.57.52-1.08.92-1.44,1.19,1.18-2.44,1.86-4.72,2.52-7.02,1.88-6.54,2.42-13.2,1.83-19.96-.36-4.1-1.64-7.98-3.03-11.83-.12-.33-.22-.67-.33-1.01-1.05-2.41-2.21-4.76-3.5-7.05-.05-.07-.1-.15-.15-.22-.03-.06-.05-.13-.06-.2.04-.3-.08-.64.23-.87,4.35,6.85,8.42,13.84,10.39,21.82.94,3.79,1.67,8.65.01,14.35-.52,1.81-2.03,6.78-6.47,10.81Z"/>
      <path class="cls-8" d="M140.38,148.07c-.16,1.24-.31,2.37-.45,3.49-.21,1.65-1.36,5.62-4.17,9.21-2.93,3.74-5.16,3.68-10.14,8.14-3.31,2.97-4.08,4.75-4.3,5.15-.17.31-.2.92-.73.68-.4-.17-.2-.72-.14-1.06.49-2.82,1.63-5.3,3.26-7.51h0c.08-.04.15-.11.2-.22.4-.53,1.05-1.33,1.91-2.24,2.33-2.45,3.41-2.89,5.56-4.52,3.81-2.89,6.94-6.32,8.76-10.82.03-.09.12-.15.25-.31Z"/>
      <path class="cls-8" d="M123.9,165.95c-.05.11-.12.18-.2.22.06-.07.11-.15.16-.22h.03Z"/>
      <path class="cls-8" d="M157.65,120.47c-1.67-.23-3.02-.85-4.28-1.48-6.91-3.42-11.73-8.77-14.41-16.03-1.38-3.65-1.66-7.4-1-11.35.18.93.39,1.87.65,2.82,3.26,12.21,11.79,20.68,19.05,26.04Z"/>
      <path class="cls-8" d="M138.71,144.4c-1.76,4.03-4.63,7.08-8.37,9.34-4.34,2.63-5.92,2.63-10.13,4.81-2.2,1.14-5.34,3.03-8.79,6.17.64-1.39,1.14-2.7,2.13-3.75,2.28-3.37,5.51-5.63,8.93-7.65,2.41-1.42,2.12-.98,4.97-2.69,4.19-2.52,9.59-5.88,11.7-11.77.21-.59.35-1.09.43-1.41.44,1.61.01,4.93-.87,6.95Z"/>
      <path class="cls-8" d="M163.23,128.16c-1.42-.2-2.7-.32-3.96-.47-3.27-.39-6.57-.84-9.45-2.58-5.12-3.11-9.34-7.01-10.88-13.12-.44-1.43-.77-2.89-.93-4.59,1.75,3.53,3.7,5.99,5.1,7.55,3.39,3.75,6.92,5.84,12.77,9.26,3.03,1.77,5.6,3.09,7.35,3.96Z"/>
      <path class="cls-8" d="M146.71,103.73s-.1.02-.11,0c-2.34-3.81-5.2-7.35-6.27-11.83-.7-2.91-1-5.83.29-8.69.24-.87.49-1.74.82-2.89.45,1.32.26,2.4.4,3.43.32,2.38,1.04,4.61,1.95,6.8,1.15,2.8,1.86,5.72,2.01,8.75.31,1.47.61,2.95.92,4.43Z"/>
      <path class="cls-8" d="M135.5,140.65c-1.89,2.08-4.25,3.48-6.78,4.61-1.43.64-2.84,1.28-4.34,2.35.43-.93.86-1.55,1.41-2.09,1.69-2.44,4.15-4.07,6.38-5.94,2.98-2.49,5.45-5.36,6.77-9.08.15-.65.31-1.3.51-2.16.49,4.84-.82,8.87-3.95,12.31Z"/>
      <path class="cls-8" d="M135.62,116.61c-.61,1.83-1.35,3.21-1.91,4.14-1.54,2.52-3.29,4.1-4.83,5.47-.7.62-1.55,1.33-2.58,2.08-.38.27-.77.55-1.19.83.71.09,3.68.36,6.5-1.64,3.06-2.16,3.7-5.39,3.81-6.02.25-1.61.4-3.23.2-4.85ZM134.94,121.81s.03-.26.16-.36c-.09.07-.11.23-.16.36ZM135.12,121.43s.01-.01.02-.01c0,0,.01,0,.02,0-.01,0-.03.01-.04.02Z"/>
      <path class="cls-8" d="M135.1,121.44c-.09.07-.11.23-.16.36,0-.02.03-.26.16-.36Z"/>
      <path class="cls-8" d="M135.14,121.42s.01,0,.02,0c-.01,0-.03.01-.04.02,0,0,.01-.01.02-.01Z"/>
    </g>
  </g>
  <path class="cls-8" d="M132.86,87.71c.78-.61,1.62-1.12,2.53-1.75-.15.48-.28.89-.4,1.29-.51,2.93-1.91,5.36-4.14,7.3-.87.75-1.57,1.57-2.12,2.44-1.19,1.87-1.43,3.75-1.88,7.54-.05.41-.11.97.02,1.01.23.07.82-1.69,2.15-4.34.7-1.4,1.07-2.11,1.65-2.88,1.03-1.34,2.18-2.19,2.96-2.68-1.3,6.19-3.12,10.8-4.67,12.86-.86,1.15-1.84,1.99-1.84,1.99-1.38,1.19-2.76,1.85-3.73,2.22.36-3.84-.22-7.45-1.03-11.04.78-3.3,1.13-6.69,2.13-9.94.32-1.09.77-2.13,1.3-3.13.62-1.53,1.46-2.92,2.59-4.13,1.59-2.36,3.71-3.86,6.61-4.09.54-.15,1.07-.3,1.92-.54-1.3,1.59-2.53,2.82-3.79,4.02-2.02,1.92-4.15,3.73-5.49,6.26-.93,1.76-1.28,3.65-1.41,5.59-.02.25.05.92.26.95.27.05.7-1.04,1.02-1.99.78-3.11,2.98-5.12,5.36-6.99Z"/>
  <path class="cls-8" d="M134.14,105.11c.1.9.16,2.39-.44,4.05-.96,2.66-3.35,5.01-4.34,4.59-.41-.17-.61-.84-.62-1.27-.03-.69.38-1.21.52-1.4,1.68-2.28,3-4.82,4.97-7.07-.03.44-.06.77-.09,1.11Z"/>
  <path class="cls-8" d="M136.03,130.85c-1.22,2.74-2.95,4.58-4.14,5.65.14-.85.26-1.59.38-2.33-.19-.8-.45-1.57-.99-2.17-.38-.42-.15-.51.14-.77,2.08-1.81,3.8-3.91,4.77-6.62.33-.93.53-1.88.76-2.87.17.59.37,1.46.44,2.51.2,3.01-.78,5.3-1.36,6.59Z"/>
  <path class="cls-19" d="M152.08,111.11c2.96,3.55,5.8,5.77,7.8,7.12,3.58,2.43,8.56,4.92,12.75,8.61,2.44,2.15,3.73,4.9,3.87,8.17.03.61-.04,1.22,0,1.82.04.48-.03.77-.24.96-.31.28-.84.15-.99.11.08-.43.17-1.06.17-1.81-.02-2.14-.8-3.7-1.11-4.33-1.66-3.32-5.36-5.8-5.87-6.14-3.65-2.45-7.69-5.29-12.75-8.95,0,0-.19-.1-.47-.29,0,0-.6-.4-1.09-.81-.09-.08-1.48-1.3-1.97-2.77,0,0-.2-.61-.17-1.22,0-.2.05-.37.05-.37.01-.05.02-.08.03-.1Z"/>
  <path class="cls-19" d="M111.35,142.02c-.24.07-.8.21-1.13-.09-.21-.19-.24-.48-.25-.61-.44-5.28.84-7.52.84-7.52.2-.35.72-1.2,2.41-2.8,2.32-2.18,4.38-3.43,6.28-4.58,0,0,6.86-4.16,12.71-9.68.2-.19.51-.52.66-1.01.12-.39.11-.76.06-1.04.18.26.41.7.44,1.26.05.93-.52,1.62-.8,2.02-2.59,3.67-4.47,4.58-4.47,4.58-3.06,1.96-9.83,6.33-13.94,10.19-.35.33-1.25,1.18-2,2.55-.38.69-1.75,3.25-1.01,6.07.08.29.16.51.21.66Z"/>
  <path class="cls-19" d="M158.28,132.52c3.3.68,5.1,2.04,6.13,3.21,1.1,1.24,1.2,2.09,2.76,4.11,0,0,1.65,1.91,3.68,3.77,2.3,2.1,4.69,2.85,9.48,4.36,5.39,1.7,6.61,1.01,11.15,2.88,1.15.48,3.7,1.6,6.5,3.59,4.35,3.08,7.34,6.82,9.35,10.15-.03-1.83-.5-3.58-.88-5.33-.8-3.7-1.93-7.32-3.17-10.89-.17-.49-.22-.97-.19-1.47,1.22,2.73,2.43,5.47,3.64,8.21,2.51,5.69,5.01,11.39,7.49,17.1-3.18,3.04-6.35,6.08-9.53,9.12-1.31-4.56-2.65-8.36-3.75-11.25-2.17-5.69-3.6-8.02-4.89-10.1-3.14-5.1-7.85-7.96-13.53-9.38-2.23-.56-4.5-.96-6.71-1.59-4.18-1.19-7.29-3.83-9.52-7.51-.84-1.39-1.45-2.2-1.98-2.81-.81-.93-1.43-1.53-2.11-2.17-.96-.91-2.31-2.24-3.93-3.97Z"/>
  <path class="cls-19" d="M82.11,149.18c.06.24.14.65.16,1.16.02.74-.11,1.33-.2,1.7-.63,2.38-3.87,10.05-3.02,10.75.88.73,5.25-6.72,13.54-10.71,10.39-4.99,16.77.45,21.98-5.31,1.79-1.98,5.5-7.56,8.8-8.73,1.03-.37,1.65-.68,2.88-1.29,1.38-.69,2.16-1.18,2.86-1.96.44-.48.72-.94.9-1.26.07.17.16.43.18.75,0,.12.03.69-.36,1.39-.75,1.34-2.26,2.15-2.26,2.15-1.08.58-3.88,2.23-6.83,7.38-2.84,4.95-7.31,7.29-12.78,8.11-3.01.45-6.01.89-8.94,1.74-1.36.4-2.61.93-3.75,1.59-3.41,1.96-5.48,4.73-7.43,7.94-3.77,6.2-6.35,12.43-7.98,16.94-3.31-3.22-6.63-6.44-9.94-9.66,4.07-7.56,8.14-15.12,12.2-22.68Z"/>
  <path class="cls-19" d="M122.36,101.69c-.98-2.25-1.74-4.05-2.23-5.19-1.31-3.09-1.69-4.06-2.55-5.38-1.08-1.65-2.25-2.81-3.05-3.52,1.57-.16,3.5-.6,5.71-1.18,1.86-.49,3.65-1.18,5.33-2.35-.61,2.28-.84,4.44-1.2,6.57-.06.36-.22.77.11,1.11-1,3.25-1.35,6.64-2.13,9.94Z"/>
  <path class="cls-19" d="M131.79,56.99c-.3.34-.33.77-.42,1.18-.44,2.24-2,3.65-3.72,4.97.77-3.27.71-6.45-.23-9.64-.95-3.24-2.82-5.78-5.57-7.83,1.18-.12,2.35-.25,3.51.02,3.73.88,6.84,2.95,9.8,5.28.76.6,1.49,1.23,2.23,1.84.19.15.37.39.62.07.33.52.78.97.88,1.81-4.71-3.2-8.6-7.55-14.75-8.55,4.09,2.77,7.14,5.93,7.64,10.85Z"/>
  <path class="cls-19" d="M98.26,84.5c3.85.26,7.7.27,11.56.21,4.95-.08,9.47-1.42,13.43-4.51,2.72-2.12,4.25-5.04,5.68-8.04.4-.83.87-1.63,1.19-2.55.05,1.75-.73,3.46-.25,5.21-.14-.05-.25-.48-.41-.1-2.32,5.27-6.61,8.16-11.9,9.76-4.64,1.4-9.42,1.29-14.2.92-1.72-.13-3.44-.37-5.1-.89Z"/>
  <path class="cls-19" d="M111.27,46.19c-2.28.99-2.84,3.2-3.69,5.2-.08.19-.09.43-.2.6-.21.33-.48.76-.88.68-.49-.09-.22-.6-.22-.91,0-1.46-.08-2.92.14-4.38.07-.45.37-1.09-.34-1.41.24-1,.27-2.06.78-2.99.1.01.2.03.29.04-.56.83-.45,1.34.6,1.66,1.22.37,2.46.72,3.51,1.5Z"/>
  <path class="cls-19" d="M121.29,37.85q-.85,0-1.65-.38c1.67-.6,3.28-.66,4.88-.36,3.17.58,5.79,2.13,7.85,4.62.49.59.51.57.95.35.59.97.81,2.08,1.19,3.34-2.71-3.29-5.89-5.57-9.69-6.93-1.12-.4-2.28-.79-3.52-.65Z"/>
  <g>
    <path class="cls-12" d="M128.17,32.64c-.65-.26-1.3-.52-2.15-.86,4.79-.18,9.21.56,13.5,2.09,2.91,1.04,5.7,2.3,7.9,4.55,2.64,2.69,3.96,6.04,4.56,9.69.6,3.63.21,7.22-.71,10.76-.55-.18-.33-.66-.33-1,0-1.61-.07-3.2-.35-4.8-.59-3.41-2.07-6.43-3.91-9.31-1.01-1.58-2.24-2.96-3.64-4.19-.26-.23-.47-.46-.62-.4-.61.27,1.54,4.67,1.75,9.89.1,2.56-.29,4.64-.6,5.93-.13-.51-.35-1.02-.38-1.53-.19-2.99-1.11-5.81-2.23-8.54-1.94-4.73-5.29-8.34-9.52-11.12-.95-.62-1.9-1.6-3.28-1.16Z"/>
    <path class="cls-12" d="M143.23,21.94c1.31-.38,3.45-.9,6.12-1.01,3.31-.13,4.96.04,13.37,2.16,3.29.83,6.6,1.43,10.01.78,2.5-.48,4.72-1.52,6.63-3.32-.63,2.25-3.83,4.95-7.63,6.49,4.51,2.34,13.11,3.02,18.43-1.79-.1.18-.25.45-.45.77-.41.64-1.53,2.39-3.5,3.63-.31.2-1.06.64-2.76,1.19-.63.2-3.75,1.17-6.68,1.2-2.59.02-4.34-.7-9.82-3.15-10.77-4.83-10.51-4.8-12.15-5.28-3.45-1.01-6.92-1.65-10.53-1.28-.08,0-.38.1-.68-.04-.19-.09-.3-.24-.37-.34Z"/>
    <path class="cls-12" d="M148.7,9.29c-.54-.55-3.14,3.82-9.66,6.16-5.86,2.1-11.18,1.23-16.74,5.86h0c-1.19.99-3.86,3.53-5.25,8.51,4.9-4.13,9.15-5.83,12.18-6.6,4.68-1.2,6.28-1.23,9.69-3.02,6.71-3.53,10.44-10.23,9.78-10.9Z"/>
    <path class="cls-12" d="M154.59,45.13c-.25-.73-.51-1.46-.78-2.24,4.48,2.21,7.56,12.08,5.67,17.94-.91.81-1.31,1.99-2.09,2.9-.88,1.02-1.64,2.13-2.57,3.35-.23-1.59.24-2.86.54-4.12.9-3.78,1.48-7.57.92-11.46-.32-2.19-.69-4.36-1.7-6.37Z"/>
    <path class="cls-12" d="M172.34,35.19c2.36.5,4.72.99,7.08,1.49,8.01,1.69,10.17,1.99,13.23,1.81,2.05-.12,3.96-.71,5.89-1.56-.62,1.02-1.73,1.89-3.43,2.59-2.32.96-4.72,1.63-7.27,1.43-.04-.08-.12-.21-.26-.3-.29-.19-.65-.12-.73-.11,0,0-1.44-.2-4.3-.61-1.38-.2-2.91-.69-5.95-1.66,0,0-4.49-1.44-4.67-2.52-.02-.09-.06-.36.08-.49.1-.09.25-.08.33-.07Z"/>
    <path class="cls-12" d="M158.89,102.32c-.05-.29-.1-.67-.13-1.11-.26-3.85,1.53-7.06,2.61-8.93.21-.37.41-.71.72-1.17,1.06-1.55,3.77-3.75,3.77-3.75,4.32-3.66,5.95-4.89,6.48-5.16.07-.04.36-.17.71-.42.69-.48.97-.93,1.02-.89.08.06-.72,1.48-2.05,3.36-.59.84-1.29,1.86-2.39,3.1-3.59,4.04-4.52,4.17-7.08,7.46-1.83,2.35-2.67,4.77-3.17,6.12-.22.58-.38,1.07-.48,1.39Z"/>
    <path class="cls-12" d="M175.03,93.28c-.27-4.5,1.05-8.66,2.86-12.69,1.52-3.39,3.28-6.68,3.95-10.39.03-.19.05-.37.29-.33.2.03.28.21.31.39.3,1.62.33,3.25.18,4.89-.39,4.34-2.53,7.93-4.8,11.49-1.3,2.03-2.34,4.21-2.79,6.63Z"/>
    <path class="cls-12" d="M184.23,53.73c-.5-1.26-1.01-2.53-1.6-4.02,1.11.95,1.78,1.94,2.51,2.89,1.74,2.28,3.04,4.77,3.77,7.54.86,3.25.69,6.53.18,9.82-.24,1.54-.41,3.1-.61,4.65-.47.06-.61-.2-.65-.63-.56-4.77-1.08-9.54-1.73-14.3-.29-2.06-.66-4.16-1.86-5.96Z"/>
    <path class="cls-12" d="M189.28,47.34c1.16,1.18,3.24,3.63,4.35,7.29.39,1.28.56,2.39.65,3.19-.85-.55-1.05-1.53-1.55-2.32-2.81-4.48-6.54-8.07-10.67-11.29-.64-.5-.71-.86-.22-1.43,1.56.49,4.63,1.68,7.44,4.55Z"/>
    <path class="cls-12" d="M150.47,69.64c1.03,3.3.9,6.61,0,9.91-.5.55-1.02,1.08-1.48,1.65-1.23,1.54-2.39,3.12-2.37,5.23-.22.62-.44,1.25-.65,1.87-.46-1.13.01-2.25.08-3.36.14-2.5.64-4.94,2.01-7.11,1.35-2.13,2.03-4.45,2.01-6.98,0-.44-.14-.96.42-1.22Z"/>
    <path class="cls-12" d="M132.37,27.4c1.22-.29,2.9-.63,4.92-.82,7.99-.75,14.14,1.45,15.83,2.08,9.06,3.36,15.43,9.36,18.25,18.79.9,3,1.05,6.08.79,9.2-.21,2.59-.74,5.08-1.71,7.49-.39-.08-.37-.36-.33-.66.32-2.89.2-5.77-.27-8.64-.87-5.4-3.15-10.14-6.82-14.17-3.82-4.21-8.61-7.12-13.6-9.69-2.48-1.28-5.15-1.98-7.94-2.36-2.72-.37-5.45-.55-8.18-.77-.07,0-.4.06-.68-.12-.13-.09-.22-.21-.27-.31Z"/>
    <path class="cls-12" d="M174.28,41.62c2.7,3.1,4.95,6.48,5.99,10.5.76,2.96.74,5.33.72,6-.13,5.05-2.1,9.12-3.15,11.23-.05.1-.09.19-.12.24-.96,1.16-2.44,2.82-4.48,4.56-2.29,1.95-3.97,2.89-5.78,4.03-5.26,3.32-8.57,5.64-11.53,9.45-2.1,2.71-3.71,5.56-4.05,9.04-.04.45.16,1.26-.76,1.28.07-8.3,3.03-15.14,10.05-19.9,2.03-1.37,4.1-2.68,6.07-4.14.27-.23.54-.46.8-.69.07,0,.18.02.31,0,0,0,.24-.05.47-.22,2.74-2.02,4.94-4.47,6.4-7.6,2.24-4.78,2.55-9.75,1.68-14.86-.48-2.84-1.49-5.5-3-7.96-.28-.45-.41-.9.37-.96Z"/>
    <path class="cls-12" d="M157.54,75.23c-.29-.29-.15-.58-.03-.89.88-2.26,1.84-4.5,2.6-6.8.44-1.31,1.04-2.65.7-4.12.02-.14.04-.27.06-.41.04-.09.08-.17.12-.26-.01-.06,0-.11.03-.17.2,0,.39-.01.59-.02-.22,2.51-.21,5.06-1.26,7.44-.81,1.82-1.79,3.54-2.82,5.24Z"/>
  </g>
  <path class="cls-19" d="M130.67,51.82c2,.94,3.27,4.41,2.96,7.87-.51-2.75-1.74-5.24-2.96-7.87Z"/>
  <g>
    <path class="cls-6" d="M157.54,75.23c-.51,1.05-1.01,2.1-1.64,3.39.8-5.53,3.27-10.23,4.91-15.2.34,1.47-.26,2.81-.7,4.12-.77,2.3-1.72,4.54-2.6,6.8-.12.31-.26.6.03.89Z"/>
    <path class="cls-6" d="M143.58,21.85c.48.08,1.26.2,2.23.26.85.05,1.47.04,1.6.04,2.95-.05,7.4,1.45,7.4,1.45,3.86,1.29,7.68,3.07,12.15,5.28,7.09,3.52,10.46,2.8,11.52,2.75,3.33-.15,6.01-1.16,7.74-1.98-3.69,2.56-7.78,3.46-12.22,3.13-4.84-.36-9.07-2.45-13.28-4.61-4.26-2.19-8.71-3.81-13.46-4.45-2.52-.34-5.07-.63-7.66-.56.93-.37,1.94-.72,3.01-1.04.33-.09.65-.18.96-.26Z"/>
    <path class="cls-6" d="M154.59,45.13c1.01,2,1.38,4.18,1.7,6.37.56,3.89-.02,7.68-.92,11.46-.3,1.26-.77,2.54-.54,4.12.92-1.21,1.69-2.33,2.57-3.35.78-.91,1.18-2.09,2.09-2.9-.28,2.09-1.48,3.75-2.56,5.46-1.22,1.91-2.34,3.84-2.84,6.08-.02.1-.07.2-.19.51-.7-2.62-.4-4.93-.08-7.2.75-5.25,1.76-10.46,1.37-15.8-.12-1.59-.39-3.17-.59-4.75Z"/>
    <path class="cls-6" d="M128.17,32.64c1.38-.44,2.33.54,3.28,1.16,4.23,2.78,7.58,6.39,9.52,11.12,1.12,2.73,2.04,5.55,2.23,8.54.03.52.25,1.02.38,1.53-.14.69-.28,1.37-.48,2.33-.89-4-1.89-7.69-3.34-11.24-1.01-2.48-2.53-5.42-5.43-8.53-2.24-2.4-4.52-3.96-6.16-4.93Z"/>
    <path class="cls-6" d="M142.43,39.18s.15-.01.62.4c1.4,1.23,2.63,2.62,3.64,4.19,1.84,2.88,3.31,5.9,3.91,9.31.28,1.59.35,3.19.35,4.8,0,.35-.22.82.33,1-.23,1.28-.61,2.5-1.21,3.99-.03-2.49.12-4.66-.22-6.81-1.15-7.33-5.53-13.85-6.35-15.03-.23-.33-1.22-1.73-1.07-1.86Z"/>
    <path class="cls-6" d="M150.47,69.64c-.56.26-.43.78-.42,1.22.02,2.53-.66,4.84-2.01,6.98-1.37,2.17-1.86,4.61-2.01,7.11-.06,1.11-.54,2.24-.08,3.36-.09.61-.17,1.23-.29,2.07-.59-2.43-.49-4.65-.23-6.89.37-3.19,1.56-6.12,2.73-9.07.95-2.37,1.59-4.81,1.21-7.62.21.36.42.79.62,1.28.23.57.38,1.11.49,1.57Z"/>
    <path class="cls-6" d="M184.23,53.73c1.2,1.8,1.57,3.89,1.86,5.96.66,4.75,1.17,9.53,1.73,14.3.05.42.18.68.65.63v3.95c-.66-.91-.78-1.85-1.04-2.73-.79-2.64-.98-5.38-1.25-8.09-.47-4.7-.7-9.42-1.95-14.01Z"/>
    <path class="cls-6" d="M181.84,42.79c-.49.56-.42.93.22,1.43,4.13,3.21,7.87,6.81,10.67,11.29.49.79.7,1.77,1.55,2.32,0,.16,0,.33-.03.51-.04.38-.14.69-.23.94-.09-.29-.23-.72-.46-1.22-.43-.96-.87-1.54-2.35-3.41-.95-1.2-1.42-1.8-1.79-2.25,0,0-1.04-1.34-1.93-2.3-2.58-2.77-5.42-5.29-8.37-7.71.95-.14,1.86,0,2.72.41Z"/>
    <path class="cls-6" d="M172.58,35.25c-.21.08-.56-.06-.6.3-.04.35.26.46.52.59,1.54.81,3.12,1.52,4.77,2.09,3.19,1.1,6.36,2.22,9.8,2.21,0,0,.43-.05.64.13.1.09.14.2.14.2.02.07.03.13.03.17-2.98-.14-7.19-.69-11.85-2.57-2.75-1.11-5.01-2.42-6.79-3.63.47.02.98.07,1.52.14.67.09,1.28.22,1.83.36Z"/>
    <path class="cls-6" d="M146.6,86.44c-.02-2.11,1.14-3.69,2.37-5.23.46-.58.99-1.1,1.48-1.65-.69,2.19-1.44,3.3-2.02,3.92-.13.13-.44.45-.8.95-.56.78-.86,1.52-1.04,2.02Z"/>
    <path class="cls-6" d="M132.51,27.38c.06.54.48.42.82.45,2.73.22,5.46.4,8.18.77,2.79.38,5.46,1.08,7.94,2.36,4.99,2.58,9.77,5.49,13.6,9.69,3.67,4.03,5.95,8.77,6.82,14.17.46,2.87.58,5.75.27,8.64-.03.3-.06.58.33.66-.56,1.57-1.21,3.1-2.25,4.45.47-1.45.91-2.9,1.08-4.41.27-2.38.32-4.76-.1-7.13-.73-4.14-2.2-8-4.35-11.61-2.02-3.38-4.54-6.31-7.62-8.76-.74-.59-1.31-1.39-2.52-1.93,3.47,3.78,5.94,7.73,6.55,12.48-7.25-12.73-18.02-19.29-33.03-18.4,1.38-.76,2.78-1.22,4.28-1.43Z"/>
    <path class="cls-6" d="M151.12,97.96c.92-.02.72-.84.76-1.28.33-3.48,1.94-6.33,4.05-9.04,3.14-4.04,7.34-6.73,11.53-9.45,3.58-2.32,6.91-4.92,9.65-8.22.17-.2.34-.36.62-.37-1.35,3.05-3.58,5.39-6.04,7.54-3.23,2.83-7.02,4.91-10.34,7.64-2.31,1.89-6.98,5.79-8.8,12.13-.92,3.21-.82,6.05-.61,7.88-.78-2.4-1-4.58-.81-6.82Z"/>
    <path class="cls-6" d="M174.28,41.62c-.78.06-.65.51-.37.96,1.51,2.46,2.52,5.13,3,7.96.87,5.11.56,10.08-1.68,14.86-1.46,3.13-3.66,5.57-6.4,7.6-.25.18-.5.27-.79.24,1.92-2.26,3.82-4.52,5.05-7.26,1.92-4.3,2.89-8.81,2.62-13.49-.26-4.47-1.53-8.72-3.74-12.65-.04-.08-.02-.19-.05-.53.99.76,1.71,1.5,2.37,2.32Z"/>
    <path class="cls-6" d="M173.11,81.98c.11.19-2.19,1.69-5.65,4.56-2.7,2.24-4.06,3.36-5.05,4.58-2.82,3.44-3.36,7.54-3.55,9-.06.45-.09.82-.11,1.09-.02-.26-.05-.63-.06-1.08-.02-.88-.02-4.46,1.72-8,1.93-3.92,5.05-5.87,8.45-8.02,2-1.26,4.13-2.29,4.24-2.11Z"/>
    <path class="cls-6" d="M181.83,70.29c-.09,1.19-.32,2.99-.96,5.07-1.17,3.78-2.55,4.74-4,8.42-1.73,4.37-1.65,7.74-1.84,7.71-.2-.03-.5-4.03,1.02-8.41.94-2.7,1.84-3.42,3.71-7.59.97-2.15,1.64-3.97,2.07-5.21Z"/>
  </g>
  <path class="cls-6" d="M132.57,116.57c-.68,1.06-1.49,2-2.43,2.85-3.09,2.81-6.75,4.79-10.23,7.03-2.17,1.4-4.4,2.72-6.34,4.39-3.15,2.71-3.87,6.36-3.5,10.33.08.82.62.83,1.22.8.56.72,1.26.79,2.09.51,1.91-.63,3.46-1.78,4.74-3.31,1.93-2.3,3.92-4.52,6.67-5.88.79-.39,1.62-.62,2.47-.84,1.23-.32,2.06.11,2.72,1.09.03.46-.17.81-.46,1.15-1.36,1.57-3.21,2.32-5.04,3.13-.29.13-.67.15-.8.48-.7,1.75-1.97,3.13-3.02,4.65-2.8,4.07-6.54,6.81-11.36,8.06-3.84.99-7.79,1.33-11.7,1.91-3.83.57-7.45,1.64-10.59,4.02-2.06,1.56-3.96,3.29-5.77,5.12-1.02,1.03-2.08,2.01-3.24,2.9-.23-.28-.13-.48-.09-.68.93-4.27,2.23-8.42,3.68-12.54.28-.79.8-1.58.48-2.5.83-2.15,2.12-4.01,3.49-5.84,3.2-4.29,6.13-8.76,9.02-13.27.88-1.37,1.88-2.5,3.13-3.38.52-.36.85-.43,1.8-1,1.27-.76,2.17-1.44,2.83-1.96,3.6-2.78,4.49-3.64,6.81-5.28,1.5-1.06,2.25-1.5,2.48-1.63,2.43-1.4,2.4-1.08,3.88-1.92.64-.36,1.25-.86,2.02-.92.2-.02.7-.03.95.3.14.18.15.38.15.43,0,.29-.17.57-.51.86-.91.77-2.97,1.54-3.55,1.78-1.23.51-.8.71-3.22,2.35-2.33,1.57-2.57,1.29-4.1,2.49-1.8,1.41-1.41,1.76-3.15,3-1.6,1.14-2.19,1.03-3.22,2.2-.87.98-1.41,2.14-1.56,2.47-.3.65-.49,1.24-.61,1.67.47.17.58-.3.76-.54.45-.59.87-1.21,1.26-1.85.86-1.42,2.13-2.28,3.7-2.68,3.47-.86,6.36-2.76,8.97-5.1.83-.75,1.73-1.37,2.75-1.78,3.39-1.34,6.27-3.49,9.18-5.61.39-.28.69-.97,1.32-.42.61.54.73,1.2.34,1.93-.26.48-.65.84-1.05,1.2-2.03,1.83-4.48,2.9-6.95,3.93-1.29.54-2.51,1.13-3.56,2.09-2.06,1.89-4.61,2.94-7.17,3.85-2.17.77-3.59,1.85-3.67,4.33-.02.8-.35,1.62-.89,2.56,1.07-.51,1.57-1.31,1.92-2.03,1.15-2.36,3.1-3.56,5.48-4.37,2.05-.7,3.98-1.72,5.73-3.02,1.47-1.09,3.12-1.83,4.77-2.61,3.6-1.7,6.97-3.77,9.81-6.6.53-.53,1.04-.94,1.59-.04.05.63-.1,1.21-.44,1.74Z"/>
  <path class="cls-6" d="M207.6,164.82c-.45,0-.61-.28-.82-.53-2.76-3.23-5.48-6.51-8.66-9.34-1.87-1.66-4.04-2.95-6.37-3.88-3.59-1.43-7.39-2.11-11.15-2.88-3.49-.71-6.84-1.82-9.67-4.07-2.66-2.12-4.65-4.83-6.48-7.65-.48-.75-.95-1.31-1.87-1.64-1.53-.55-2.95-1.4-4.31-2.32-.03-.11-.05-.28-.02-.47.11-.69.79-1.06.96-1.15.6-.33,1.22-.29,1.58-.25,2.26.24,4.12,1.29,5.74,2.78,1.02.94,1.95,1.99,2.91,2.99,1.08,1.13,2.33,1.93,3.85,2.36.93.27,1.6.07,1.97-.86.88.13,1.13-.31,1.07-1.11-.05-.61.02-1.22,0-1.82-.14-3.27-1.43-6.02-3.87-8.17-3.88-3.42-8.4-5.87-12.74-8.61-2.96-1.87-5.84-3.86-7.67-7,.1-.38.3-.94.78-1.17,1.16-.55,2.59,1.54,5.95,3.62,2.01,1.24,2.09.86,5.85,2.93,1.06.58,1.87,1.07,3.51,2.05,6.1,3.66,5.66,3.84,7.23,4.44.4.15,1.35.5,2.29,1.36.48.44.89.95,1.24,1.56.71,1.22,1.62,2.32,2.52,3.45-.26-.88-.69-2.14-1.42-3.56-.36-.69-.59-1.13-.95-1.61-1.13-1.5-2.22-1.65-4.32-3-1.97-1.27-1.57-1.51-3.66-2.86-.59-.38-1.04-.63-3.83-2.01-2.22-1.1-3.41-1.67-5.23-2.59,0,0-2.89-1.31-4.7-3.29-.46-.51-.87-1.06-.93-1.77-.04-.49.14-.91.54-1.22.12-.09.22-.13.32-.13.31,0,.56.27.62.34,1.27,1.4,3.22,1.98,4.8,3.02.76.5,2.14,1.17,4.9,2.53,4.23,2.07,4.62,2.04,6,3.08.24.18,1.23,1.05,3.22,2.78,1.7,1.48,2.15,1.9,3.07,2.49,1.29.82,1.5.7,2.43,1.42.81.64,1.48,1.17,2.32,2.54.54.87,1.14,1.71,1.81,2.51-1.19-3.26-2.84-5.04-4.16-6.07-1.73-1.34-3.28-1.69-5.25-3.92-.75-.85-.95-1.28-1.88-2.13-.36-.33-1.21-1.08-3.76-2.49-1-.55-2.33-1.25-3.95-1.98-.14-.05-1.11-.42-1.72-1.32-.36-.53-.35-.89-.33-1.06.04-.3.21-.7.55-.84.39-.16.83.09,1.02.2,7.39,4.34,11.08,6.52,12.41,8.04,1.84,2.11,2.49,3.48,4.5,4.4.59.27,1.56.62,2.77,1.46,1.15.8,1.88,1.6,2.22,1.97,9.54,10.56,13.71,20.72,13.71,20.72,2.54,6.18,3.61,11.49,4.18,14.38.43,2.17.7,4,.87,5.33Z"/>
  <g>
    <path class="cls-7" d="M219.79,86.21c2.39,1.69,4.44,3.38,6.2,5.38,5.93,6.72,10.24,14.42,12.76,23.13,2.07,7.14,3.21,14.45,2.56,21.92-1.02,11.63-5.09,21.73-13.89,29.52-4.93,4.36-10.28,8.07-15.59,11.87-4.16,2.97-8.31,5.96-12.48,8.91-5.24,3.71-10.88,6.58-16.91,8.62-1.37.46-2.74.89-4.21,1.14,1.57-1.36,3.13-2.73,4.71-4.08,5.38-4.62,10.34-9.72,15.42-14.67,3.62-3.53,7.01-7.29,10.34-11.09,2.46-2.81,4.69-5.84,6.98-8.81,2.83-3.68,5.31-7.62,7.59-11.63,2.94-5.15,5.31-10.66,6.86-16.49.96-3.61,1.56-7.26,1.76-10.99.17-3.12-.32-6.18-.97-9.21-1.18-5.46-3.56-10.41-6.29-15.19-1.4-2.47-2.96-4.84-4.48-7.23-.17-.27-.19-.54-.37-1.12Z"/>
    <g>
      <path class="cls-10" d="M192.23,195.51c1.49-.92,2.84-1.73,4.17-2.57,6.01-3.79,11.64-8.17,17.5-12.2,3.97-2.73,7.95-5.46,11.83-8.32,4.98-3.67,9.76-7.64,13.43-12.76,4.04-5.64,7.13-11.84,8.88-18.64,1.62-6.3,2.42-12.72,1.59-19.26-.52-4.06-1.45-8-2.93-11.8-.22-.58-.43-1.17-.65-1.75-.07-.19-.19-.42.03-.55.31-.19.39.12.54.31,2.73,3.38,4.75,7.18,6.4,11.23,2.5,6.13,3.41,12.54,3.19,19.12-.13,3.87-.76,7.69-1.89,11.4-1.87,6.14-4.35,11.98-7.92,17.31-3.03,4.53-6.81,8.28-11.18,11.36-6.5,4.59-13.32,8.61-20.74,11.39-6.28,2.35-12.7,4.22-19.32,5.3-.91.15-1.77.56-2.94.43Z"/>
      <path class="cls-16" d="M177.31,201.4c1.39-.82,2.91-1.02,4.4-1.26,7.54-1.19,15.16-1.45,22.77-1.8,6.79-.31,13.57-.73,20.28-1.82,7.42-1.2,14.61-3.28,21.42-6.67,5.92-2.95,11.17-6.76,15.35-12.06.06-.08.18-.12.44-.28-.61,2.7-1.54,5.08-2.73,7.33-1.95,3.66-4.24,7.09-7.25,9.94-1.83,1.74-3.85,3.2-5.92,4.63-3.14,2.16-6.62,3.41-10.21,4.43-3.28.93-6.65,1.06-10,1.14-4.17.1-8.36.04-12.51-.53-5.58-.77-11.18-1.39-16.75-2.18-4.91-.7-9.87-.77-14.82-.87-1.48-.03-2.97,0-4.45,0Z"/>
      <path class="cls-13" d="M246.13,207.98c-1.46,2.02-2.95,3.9-5.05,5.28-1.57,1.03-2.95,2.37-4.64,3.26-7.46,3.94-14.99,4.19-22.55.38-2.71-1.36-5.25-3.03-7.81-4.67-4.91-3.14-10.25-5.26-15.74-7.03-.35-.11-.69-.25-1.34-.49,5.39.5,10.44,1.04,15.47,1.87,3.71.61,7.46,1.02,11.21,1.34,3.36.29,6.72.3,10.08.22,1.94-.04,3.87-.3,5.85-.28-1.28.33-2.55.72-3.84.98-1.35.27-2.72.47-4.08.59-1.33.12-2.67.14-4.01.16-1.35.02-2.71-.24-4.41-.01,10.66,2.8,20.81,2.42,30.87-1.61Z"/>
      <path class="cls-11" d="M205.16,195.73c1.73-.53,3.58-1.06,5.41-1.66,5.54-1.81,11.18-3.32,16.63-5.45,2.84-1.11,5.6-2.38,8.23-3.95,4.48-2.67,8.09-6.37,11.51-10.32,3.81-4.4,7.28-9.03,9.95-14.27,1.52-2.99,2.82-6.08,3.57-9.38.12-.52.28-1.02.52-1.89.33,4.81-.2,9.13-1.57,13.34-2.43,7.48-6.51,13.88-11.92,19.4-6.84,6.99-15.1,10.98-24.56,12.6-5.94,1.02-11.9,1.54-17.76,1.57Z"/>
    </g>
  </g>
  <g>
    <path class="cls-14" d="M64.87,88.96c-1.69,2.82-3.43,5.6-5.05,8.46-2.29,4.06-4.17,8.3-5.42,12.85-1.09,3.98-1.53,8-1.37,12.11.14,3.45.86,6.79,1.71,10.1,1.78,6.95,4.9,13.28,8.54,19.33,3.27,5.44,7.01,10.55,11.12,15.37,5.05,5.93,10.33,11.61,15.9,17.01,5.03,4.88,10,9.84,15.48,14.2.19.15.5.26.38.56-.19.46-.45.07-.69,0-9-2.6-16.98-7.28-24.55-12.81-5.11-3.73-10.31-7.32-15.47-10.98-1.92-1.36-3.92-2.7-5.61-4.28-4.81-4.46-9.36-9.2-12.18-15.38-3.52-7.72-4.81-15.84-4.23-24.3.3-4.47,1.14-8.86,2.36-13.16,2.48-8.74,6.32-16.76,12.3-23.55,1.93-2.2,3.95-4.34,6.53-5.76l.26.24Z"/>
    <path class="cls-3" d="M93.01,197.86c-2.4-.05-4.35-.62-6.3-1.02-7.91-1.63-15.69-3.77-22.97-7.46-5.85-2.96-11.44-6.4-16.59-10.53-6.11-4.9-10.39-11.28-13.6-18.5-2.31-5.2-4.16-10.55-4.75-16.25-.44-4.28-.39-8.6.27-12.9.92-5.98,2.96-11.48,6.04-16.6.9-1.5,1.75-3.03,2.91-4.35.16-.19.32-.48.57-.34.38.22.05.5-.04.74-2.82,7.33-4.15,14.94-3.51,22.82.81,9.9,4.08,18.92,9.54,27.11,3.53,5.3,8.11,9.46,13.09,13.21,9.1,6.85,18.61,13.1,27.94,19.62,2.26,1.58,4.61,3.03,7.38,4.46Z"/>
    <path class="cls-15" d="M22.71,180.06c2.22,2.42,4.5,4.64,7.02,6.6,5.35,4.18,11.32,7.08,17.69,9.16,4.02,1.31,8.12,2.31,12.28,2.97,4.12.65,8.26,1.15,12.43,1.35,6.48.32,12.95.65,19.43,1.05,5.13.32,10.24.86,15.27,1.99.19.04.41.03.55.34-.61.27-1.25.12-1.86.12-7.83.08-15.63.56-23.39,1.7-4.81.7-9.63,1.31-14.49,1.67-5.68.42-11.33.47-16.96-.52-5.21-.91-9.91-3.08-14.16-6.27-6.33-4.75-10.79-10.99-13.39-18.62-.17-.5-.28-1.03-.41-1.55Z"/>
    <path class="cls-4" d="M38.68,210.2c2.84.95,5.65,1.99,8.6,2.59,5.26,1.06,10.51,1.29,15.81.33,2.13-.39,4.25-.81,6.52-1.62-5.76.71-11.22.44-16.8-1.4.74-.15,1.25-.04,1.76.04.56.08,1.13.06,1.7.11,4.58.39,9.15.25,13.73-.16,3.31-.29,6.6-.69,9.88-1.19,3.15-.48,6.3-.98,9.47-1.31,1.68-.17,3.36-.46,5.09-.2-1.47.52-2.94,1.05-4.42,1.54-2.89.96-5.63,2.28-8.35,3.68-3.59,1.85-6.85,4.27-10.38,6.22-9.43,5.2-19.26,3.6-27.52-2.98-1.98-1.58-3.88-3.28-5.19-5.55.03-.03.06-.07.09-.1Z"/>
    <path class="cls-1" d="M79.95,197.99c-8.45-.07-16.84-.6-24.98-3.12-2.66-.82-5.19-1.97-7.68-3.34-7.99-4.38-13.77-10.99-18.32-18.83-3.44-5.93-5.47-12.36-5.2-19.39,0-.17.01-.34.04-.5.01-.06.09-.11.24-.28.56,1.63,1.1,3.19,1.64,4.75,1.66,4.83,4.18,9.17,7.14,13.25,2.8,3.85,5.97,7.35,9.23,10.78,3.91,4.11,8.63,6.86,13.73,8.96,7.63,3.14,15.57,5.3,23.45,7.64.22.06.46.05.69.07Z"/>
  </g>
  <text class="cls-17" transform="translate(67.45 246.04) scale(.74 1)"><tspan x="0" y="0">seelenruhe</tspan></text>
</svg>