<?xml version="1.0" encoding="UTF-8"?>
<svg id="Layer_1" data-name="Layer 1" xmlns="http://www.w3.org/2000/svg" xmlns:xlink="http://www.w3.org/1999/xlink" viewBox="0 0 141.73 141.73">
  <defs>
    <style>
      .cls-1 {
        fill: url(#linear-gradient-13);
      }

      .cls-2 {
        fill: url(#linear-gradient-2);
      }

      .cls-3 {
        fill: url(#linear-gradient-10);
      }

      .cls-4 {
        fill: url(#linear-gradient-12);
      }

      .cls-5 {
        fill: #92bfdb;
      }

      .cls-6 {
        fill: #eeeadf;
      }

      .cls-7 {
        fill: #fff;
        font-family: Castellar, Castellar;
        font-size: 15.09px;
      }

      .cls-8 {
        fill: url(#linear-gradient-4);
      }

      .cls-9 {
        fill: #e8edd0;
      }

      .cls-10 {
        fill: url(#linear-gradient-3);
      }

      .cls-11 {
        fill: url(#linear-gradient-5);
      }

      .cls-12 {
        fill: url(#linear-gradient-8);
      }

      .cls-13 {
        fill: #c5a482;
      }

      .cls-14 {
        fill: url(#linear-gradient-7);
      }

      .cls-15 {
        fill: url(#linear-gradient-9);
      }

      .cls-16 {
        fill: url(#linear-gradient-11);
      }

      .cls-17 {
        fill: url(#linear-gradient-6);
      }

      .cls-18 {
        fill: url(#linear-gradient);
      }

      .cls-19 {
        fill: #929480;
      }
    </style>
    <linearGradient id="linear-gradient" x1="19.43" y1="22.13" x2="120.8" y2="118.13" gradientUnits="userSpaceOnUse">
      <stop offset="0" stop-color="#f6861f"/>
      <stop offset=".26" stop-color="#9b721d"/>
      <stop offset=".31" stop-color="#bba23d"/>
      <stop offset=".4" stop-color="#edeb6d"/>
      <stop offset=".55" stop-color="#a7a23a"/>
      <stop offset=".66" stop-color="#7c751a"/>
      <stop offset=".72" stop-color="#6c640e"/>
      <stop offset=".83" stop-color="#5f6109"/>
      <stop offset="1" stop-color="#525e04"/>
    </linearGradient>
    <linearGradient id="linear-gradient-2" x1="53.55" y1="23.4" x2="59.55" y2="23.4" gradientUnits="userSpaceOnUse">
      <stop offset="0" stop-color="#f6861f"/>
      <stop offset=".26" stop-color="#9b721d"/>
      <stop offset=".52" stop-color="#7d6913"/>
      <stop offset=".72" stop-color="#6c640e"/>
      <stop offset=".83" stop-color="#5f6109"/>
      <stop offset="1" stop-color="#525e04"/>
    </linearGradient>
    <linearGradient id="linear-gradient-3" x1="52.28" y1="27.4" x2="58.84" y2="27.4" xlink:href="#linear-gradient-2"/>
    <linearGradient id="linear-gradient-4" x1="89.35" y1="70.79" x2="121.07" y2="70.79" gradientUnits="userSpaceOnUse">
      <stop offset="0" stop-color="#fff"/>
      <stop offset="1" stop-color="#6f6549"/>
    </linearGradient>
    <linearGradient id="linear-gradient-5" x1="96.37" y1="75.85" x2="128.47" y2="75.85" xlink:href="#linear-gradient-4"/>
    <linearGradient id="linear-gradient-6" x1="88.89" y1="95.73" x2="131.33" y2="95.73" xlink:href="#linear-gradient-4"/>
    <linearGradient id="linear-gradient-7" x1="94.75" y1="106.18" x2="123.39" y2="106.18" xlink:href="#linear-gradient-4"/>
    <linearGradient id="linear-gradient-8" x1="102.85" y1="86.22" x2="130.88" y2="86.22" xlink:href="#linear-gradient-4"/>
    <linearGradient id="linear-gradient-9" x1="21.12" y1="60.1" x2="62.29" y2="83.87" xlink:href="#linear-gradient-4"/>
    <linearGradient id="linear-gradient-10" x1="11.99" y1="67.06" x2="51.81" y2="90.05" xlink:href="#linear-gradient-4"/>
    <linearGradient id="linear-gradient-11" x1="12.81" y1="87.65" x2="49.73" y2="108.97" xlink:href="#linear-gradient-4"/>
    <linearGradient id="linear-gradient-12" x1="22.84" y1="99.2" x2="43.21" y2="110.96" xlink:href="#linear-gradient-4"/>
    <linearGradient id="linear-gradient-13" x1="9.26" y1="81.12" x2="40.15" y2="98.96" xlink:href="#linear-gradient-4"/>
  </defs>
  <ellipse class="cls-18" cx="70.89" cy="70.87" rx="70.89" ry="70.87"/>
  <path class="cls-6" d="M66.07,28.52c.51,1.45.66,2.93.47,4.52.42-.56.69-1.18,1.1-1.69.45-.57.96-1.06,1.61-1.39,1.36-.68,2.8.08,3.07,1.57.24,1.39-.14,2.62-.94,3.72-.95,1.31-2.11,2.37-3.65,2.97-.49.19-.98.27-1.5.2-.6-.08-.96-.41-1.12-.98-.24-.88.15-1.73.13-2.61-.16.46-.4.86-.6,1.28-.72,1.5-1.49,2.96-2.85,4.02-1.99,1.55-4.25,2.22-6.73,2.26-1.93.03-3.86.03-5.79-.1-.31-.07-.63-.13-.94-.22-1.35-.38-1.86-1.42-1.3-2.83.14-.34.35-.66.51-.99.34-.72.39-1.44-.16-2.1-.24-.29-.24-.56,0-.86.25-.31.49-.2.75-.05.44.26.87.53,1.41.86-.49-.81-.85-1.24-1.07-1.47-.37-.39-.55-.59-.62-.65-.22-.19-.32-.24-.38-.39-.13-.34.13-.73.17-.79.22-.33.44-.32.99-.84.09-.08.21-.2.29-.39.09-.21.09-.4.08-.47-.03-.24-.11-.41-.14-.47-.2-.38-.45-.59-.6-.75-.33-.35-.64-.9-.62-1.3.02-.42.41-.61,1.79-1.52,0,0,2.27-1.5,3.11-2.66.05-.07.1-.14.1-.14.33-.51.49-.99.57-1.25.35.16.2.48.17.7-.11.73-.07,1.46-.07,2.19,0,.15-.13.41.11.45.2.04.34-.17.44-.34.05-.09.06-.2.1-.3.43-1,.71-2.11,1.85-2.6,1.44.38,2.63,1.2,3.77,2.14-.66-1.39-1.71-2.37-3.05-3.06-.87-.45-1.82-.59-2.78-.66-.05,0-.1-.01-.15-.02.95-2.37,2.48-4.26,4.96-5.02,2.6-.8,5.56.35,7.25,2.66.43.59.79,1.22,1.05,1.91-.22.11-.23.12-.47-.17-1.03-1.25-2.35-2.02-3.93-2.31-.8-.15-1.61-.12-2.44.18q.4.19.83.19c1.55.44,2.66,1.52,3.83,2.54,1.69,1.47,3.34,2.96,4.52,4.89.02.03.03.06.04.1-.12.16-.22.04-.31-.04-.37-.31-.74-.62-1.12-.92-1.48-1.17-3.04-2.2-4.91-2.64-.58-.14-1.17-.07-1.76,0,1.38,1.02,2.31,2.3,2.79,3.92.47,1.6.5,3.19.11,4.82.86-.66,1.64-1.37,1.86-2.49.04-.21.06-.42.21-.59ZM70.68,33.91c.42-.55.68-1.12.75-1.76.1-.83-.77-1.62-1.57-1.47-1.41.26-2.68,1.94-2.48,3.36.05.33-.05.37-.29.46-.66.25-1.05.72-1.06,1.45-.01.68.39.99,1.04.76,1.09-.38,1.68-1.23,2.02-2.27.24-.72.06-1.2-.55-1.61-.1-.07-.24-.09-.19-.26.17-.59,1.31-.92,1.83-.55.68.49.53,1.18.49,1.9ZM58.84,27.7c-.76.01-1.52-.09-2.28-.16-.92-.09-1.84-.23-2.59-.85-.1-.09-.21-.17-.33-.09-.38.24-.8.37-1.36.36,2.14,1.43,4.29,1.66,6.56.75Z"/>
  <path class="cls-5" d="M79.63,65.83c0,.08,0,.16,0,.24-.08-.08-.12-.15,0-.24Z"/>
  <path class="cls-19" d="M70.68,33.91c.04-.72.19-1.41-.49-1.9-.52-.38-1.66-.04-1.83.55-.05.17.08.19.19.26.62.42.79.9.55,1.61-.35,1.04-.94,1.89-2.02,2.27-.65.23-1.05-.08-1.04-.76.01-.73.4-1.2,1.06-1.45.24-.09.34-.13.29-.46-.21-1.42,1.06-3.1,2.48-3.36.8-.15,1.67.64,1.57,1.47-.07.64-.34,1.22-.75,1.76Z"/>
  <g>
    <path class="cls-2" d="M55.78,23.12c-.53-.39-1.15-.56-1.76-.75-.53-.16-.58-.42-.3-.83.96.07,1.91.21,2.78.66,1.34.69,2.39,1.66,3.05,3.06-1.13-.93-2.33-1.76-3.77-2.14Z"/>
    <path class="cls-10" d="M58.84,27.7c-2.27.91-4.42.67-6.56-.75.56.02.98-.12,1.36-.36.12-.08.23,0,.33.09.75.62,1.67.76,2.59.85.76.07,1.52.18,2.28.16Z"/>
  </g>
  <g>
    <path class="cls-9" d="M83.62,74.34c-.76-1.13-1.8-1.97-2.84-2.81-2.04-1.64-3.83-3.56-5.63-5.45-1.38-1.45-2.66-2.99-3.63-4.76-.07-.12-.13-.25-.16-.4.68.68,1.62,1.61,2.75,2.7.71.68,1.06,1.02,1.49,1.41,1.36,1.23,2.77,2.41,4.14,3.64.5.45.94.97,1.41,1.46,1.21,1.18,2.06,2.56,2.47,4.2Z"/>
    <g>
      <path class="cls-9" d="M73.71,82.61c-.42.94-1.39,3.12-3.5,4.89-.91.77-1.92,1.36-2.98,2.78-.64.86-1.03,1.67-1.27,2.22-.19.49-.37.99-.56,1.49-.16-1.27.11-2.76.61-4.2.53-1.53,1.2-2.64,1.97-3.83.99-1.53,1.33-1.7,2.03-2.73,1.99-2.93,2.34-6.07,2.56-7.96.05-.43.17-2.25.03-4.65-.05-.89-.24-1.75-.37-2.63.86,1.42,1.38,2.69,1.7,3.61.35,1.02.54,1.88.62,2.29,0,0,.17.84.25,1.62.39,3.73-1.08,7.11-1.08,7.11Z"/>
      <path class="cls-9" d="M83.71,81.64c-.03.94-.21,1.87-.32,2.81-.2,1.03-.54,2.01-1.03,2.94.06-.56.11-1.36.09-2.32-.02-1.06-.18-4.06-1.69-7.52-2.26-5.18-7.66-11.64-8.15-12.47-.18-.31-.29-.63-.29-.63-.07-.2-.12-.39-.15-.57.06.05.15.13.27.23,2.06,1.81,5.02,4.71,8.06,9.01,2.33,3.3,2.74,4.68,2.94,5.57.21.94.3,1.92.27,2.95Z"/>
      <path class="cls-9" d="M75.47,91.19c-.29.26-.54.46-.72.6.59-1.22.93-2.36,1.27-3.52.94-3.27,1.22-6.61.92-9.99-.18-2.05-.82-4-1.52-5.92-.06-.17-.11-.34-.16-.5-.53-1.21-1.11-2.38-1.76-3.53-.03-.04-.05-.07-.08-.11-.01-.03-.02-.07-.03-.1.02-.15-.04-.32.11-.44,2.18,3.43,4.22,6.92,5.21,10.92.47,1.9.83,4.33,0,7.18-.26.9-1.02,3.39-3.24,5.41Z"/>
      <path class="cls-9" d="M70.38,74.1c-.08.62-.16,1.18-.23,1.75-.11.82-.68,2.81-2.09,4.61-1.47,1.87-2.59,1.84-5.08,4.08-1.66,1.49-2.05,2.38-2.16,2.58-.08.16-.1.46-.37.34-.2-.09-.1-.36-.07-.53.25-1.41.82-2.65,1.63-3.76h0s.07-.05.1-.11c.2-.26.53-.67.96-1.12,1.17-1.23,1.71-1.44,2.79-2.26,1.91-1.44,3.48-3.16,4.39-5.41.02-.04.06-.08.12-.16Z"/>
      <path class="cls-9" d="M62.12,83.05c-.02.06-.06.09-.1.11.03-.04.06-.07.08-.11h.02Z"/>
      <path class="cls-9" d="M79.03,60.29c-.84-.11-1.51-.43-2.15-.74-3.46-1.71-5.88-4.39-7.22-8.02-.69-1.83-.83-3.7-.5-5.68.09.47.2.94.32,1.41,1.64,6.11,5.91,10.35,9.55,13.03Z"/>
      <path class="cls-9" d="M69.54,72.27c-.88,2.02-2.32,3.54-4.19,4.68-2.18,1.32-2.97,1.32-5.08,2.41-1.1.57-2.68,1.52-4.41,3.09.32-.7.57-1.35,1.07-1.88,1.14-1.69,2.76-2.82,4.48-3.83,1.21-.71,1.06-.49,2.49-1.35,2.1-1.26,4.81-2.94,5.87-5.89.11-.3.17-.55.21-.71.22.8,0,2.47-.44,3.48Z"/>
      <path class="cls-9" d="M81.83,64.14c-.71-.1-1.35-.16-1.98-.24-1.64-.2-3.29-.42-4.74-1.29-2.57-1.55-4.68-3.51-5.46-6.57-.22-.72-.39-1.45-.47-2.3.88,1.77,1.85,3,2.56,3.78,1.7,1.87,3.47,2.92,6.4,4.64,1.52.89,2.81,1.55,3.69,1.98Z"/>
      <path class="cls-9" d="M73.55,51.91s-.05,0-.06,0c-1.18-1.91-2.61-3.68-3.14-5.92-.35-1.46-.5-2.92.14-4.35.12-.43.25-.87.41-1.45.23.66.13,1.2.2,1.72.16,1.19.52,2.31.98,3.4.58,1.4.93,2.86,1.01,4.38.15.74.31,1.48.46,2.22Z"/>
      <path class="cls-9" d="M67.93,70.39c-.95,1.04-2.13,1.74-3.4,2.3-.72.32-1.42.64-2.18,1.18.22-.47.43-.78.71-1.04.85-1.22,2.08-2.04,3.2-2.97,1.49-1.25,2.73-2.68,3.39-4.55.08-.32.15-.65.26-1.08.25,2.42-.41,4.44-1.98,6.16Z"/>
      <path class="cls-9" d="M67.99,58.36c-.3.91-.68,1.61-.96,2.07-.77,1.26-1.65,2.05-2.42,2.74-.35.31-.78.67-1.29,1.04-.19.14-.39.27-.6.41.36.04,1.84.18,3.26-.82,1.53-1.08,1.85-2.7,1.91-3.01.12-.81.2-1.62.1-2.43ZM67.65,60.96s.01-.13.08-.18c-.04.04-.06.12-.08.18ZM67.74,60.77s0,0,0,0c0,0,0,0,0,0,0,0-.01,0-.02,0Z"/>
      <path class="cls-9" d="M67.73,60.78s-.06.12-.08.18c0-.01.01-.13.08-.18Z"/>
      <path class="cls-9" d="M67.75,60.77s0,0,0,0c0,0-.01,0-.02,0,0,0,0,0,0,0Z"/>
    </g>
  </g>
  <path class="cls-9" d="M66.61,43.9c.39-.3.81-.56,1.27-.88-.07.24-.14.44-.2.65-.26,1.46-.96,2.68-2.07,3.65-.43.38-.79.79-1.07,1.22-.6.94-.72,1.88-.94,3.77-.02.2-.05.49,0,.5.11.03.41-.84,1.08-2.17.35-.7.54-1.06.83-1.44.52-.67,1.09-1.09,1.49-1.34-.65,3.1-1.57,5.4-2.34,6.43-.43.57-.92,1-.92,1-.69.6-1.38.93-1.87,1.11.18-1.92-.11-3.73-.52-5.52.39-1.65.57-3.35,1.07-4.97.16-.55.39-1.06.65-1.57.31-.76.73-1.46,1.3-2.07.8-1.18,1.86-1.93,3.31-2.05.27-.08.54-.15.96-.27-.65.79-1.27,1.41-1.9,2.01-1.01.96-2.08,1.87-2.75,3.13-.47.88-.64,1.82-.71,2.8,0,.13.03.46.13.48.14.02.35-.52.51-1,.39-1.55,1.49-2.56,2.69-3.5Z"/>
  <path class="cls-9" d="M67.25,52.61c.05.45.08,1.2-.22,2.03-.48,1.33-1.68,2.51-2.18,2.3-.21-.09-.3-.42-.31-.63-.01-.34.19-.61.26-.7.84-1.14,1.5-2.41,2.49-3.54-.02.22-.03.39-.04.55Z"/>
  <path class="cls-9" d="M68.19,65.49c-.61,1.37-1.48,2.29-2.08,2.83.07-.42.13-.79.19-1.17-.1-.4-.23-.79-.49-1.09-.19-.21-.07-.26.07-.38,1.04-.9,1.91-1.96,2.39-3.31.16-.46.27-.94.38-1.44.08.3.18.73.22,1.26.1,1.51-.39,2.65-.68,3.3Z"/>
  <path class="cls-19" d="M76.24,55.61c1.48,1.77,2.91,2.89,3.91,3.57,1.8,1.22,4.29,2.46,6.39,4.31,1.22,1.08,1.87,2.45,1.94,4.09.01.3-.02.61,0,.91.02.24-.01.39-.12.48-.16.14-.42.08-.5.06.04-.22.09-.53.08-.91,0-1.07-.4-1.85-.56-2.17-.83-1.66-2.69-2.9-2.94-3.08-1.83-1.23-3.85-2.65-6.39-4.48,0,0-.09-.05-.24-.15,0,0-.3-.2-.54-.41-.05-.04-.74-.65-.99-1.39,0,0-.1-.3-.09-.61,0-.1.02-.18.02-.18,0-.02.01-.04.01-.05Z"/>
  <path class="cls-19" d="M55.82,71.07c-.12.04-.4.1-.57-.04-.11-.09-.12-.24-.13-.31-.22-2.64.42-3.76.42-3.76.1-.17.36-.6,1.21-1.4,1.16-1.09,2.2-1.72,3.15-2.29,0,0,3.44-2.08,6.37-4.84.1-.09.25-.26.33-.51.06-.2.05-.38.03-.52.09.13.2.35.22.63.02.46-.26.81-.4,1.01-1.3,1.84-2.24,2.29-2.24,2.29-1.53.98-4.93,3.17-6.99,5.1-.18.17-.62.59-1,1.28-.19.35-.88,1.63-.51,3.04.04.14.08.26.11.33Z"/>
  <path class="cls-19" d="M79.35,66.32c1.66.34,2.55,1.02,3.07,1.61.55.62.6,1.05,1.38,2.06,0,0,.83.96,1.85,1.89,1.15,1.05,2.35,1.43,4.75,2.18,2.7.85,3.31.5,5.59,1.44.58.24,1.85.8,3.26,1.79,2.18,1.54,3.68,3.41,4.69,5.08-.01-.92-.25-1.79-.44-2.67-.4-1.85-.97-3.66-1.59-5.45-.08-.24-.11-.49-.1-.74.61,1.37,1.22,2.74,1.82,4.11,1.26,2.85,2.51,5.7,3.76,8.56-1.59,1.52-3.19,3.04-4.78,4.56-.66-2.28-1.33-4.18-1.88-5.63-1.09-2.85-1.8-4.01-2.45-5.06-1.58-2.55-3.93-3.98-6.78-4.69-1.12-.28-2.26-.48-3.36-.8-2.1-.6-3.65-1.92-4.77-3.76-.42-.69-.73-1.1-.99-1.41-.41-.46-.72-.76-1.06-1.09-.48-.46-1.16-1.12-1.97-1.99Z"/>
  <path class="cls-19" d="M41.16,74.66c.03.12.07.32.08.58.01.37-.05.66-.1.85-.32,1.19-1.94,5.03-1.51,5.38.44.36,2.63-3.36,6.79-5.36,5.21-2.5,8.41.23,11.02-2.66.9-.99,2.76-3.78,4.41-4.37.52-.18.83-.34,1.44-.64.69-.34,1.08-.59,1.43-.98.22-.24.36-.47.45-.63.04.08.08.21.09.37,0,.06.02.34-.18.69-.37.67-1.13,1.08-1.13,1.08-.54.29-1.94,1.12-3.42,3.69-1.42,2.48-3.66,3.65-6.4,4.06-1.51.22-3.02.44-4.48.87-.68.2-1.31.47-1.88.8-1.71.98-2.75,2.37-3.72,3.98-1.89,3.1-3.18,6.22-4,8.48-1.66-1.61-3.32-3.22-4.98-4.84,2.04-3.78,4.08-7.57,6.12-11.35Z"/>
  <path class="cls-19" d="M61.34,50.89c-.49-1.13-.87-2.03-1.12-2.6-.66-1.55-.85-2.03-1.28-2.69-.54-.83-1.13-1.41-1.53-1.76.79-.08,1.75-.3,2.86-.59.93-.25,1.83-.59,2.67-1.18-.31,1.14-.42,2.22-.6,3.29-.03.18-.11.39.06.55-.5,1.63-.68,3.32-1.07,4.97Z"/>
  <path class="cls-19" d="M66.07,28.52c-.15.17-.17.38-.21.59-.22,1.12-1,1.82-1.86,2.49.38-1.63.36-3.23-.11-4.82-.48-1.62-1.41-2.89-2.79-3.92.59-.06,1.18-.13,1.76,0,1.87.44,3.43,1.47,4.91,2.64.38.3.75.61,1.12.92.09.08.19.19.31.04.16.26.39.49.44.91-2.36-1.6-4.31-3.78-7.4-4.28,2.05,1.38,3.58,2.97,3.83,5.43Z"/>
  <path class="cls-19" d="M49.26,42.29c1.93.13,3.86.14,5.79.1,2.48-.04,4.75-.71,6.73-2.26,1.36-1.06,2.13-2.52,2.85-4.02.2-.42.44-.82.6-1.28.03.88-.37,1.73-.13,2.61-.07-.02-.12-.24-.21-.05-1.17,2.64-3.32,4.08-5.97,4.88-2.33.7-4.72.65-7.12.46-.86-.07-1.72-.18-2.56-.44Z"/>
  <path class="cls-19" d="M55.78,23.12c-1.14.5-1.42,1.6-1.85,2.6-.04.1-.05.21-.1.3-.1.17-.24.38-.44.34-.25-.05-.11-.3-.11-.45,0-.73-.04-1.46.07-2.19.03-.22.18-.54-.17-.7.12-.5.13-1.03.39-1.5.05,0,.1.01.15.02-.28.41-.23.67.3.83.61.19,1.23.36,1.76.75Z"/>
  <path class="cls-19" d="M60.81,18.94q-.42,0-.83-.19c.84-.3,1.64-.33,2.44-.18,1.59.29,2.9,1.07,3.93,2.31.24.3.25.29.47.17.3.49.41,1.04.6,1.67-1.36-1.65-2.95-2.79-4.86-3.47-.56-.2-1.14-.4-1.76-.32Z"/>
  <g>
    <path class="cls-13" d="M64.25,16.34c-.32-.13-.65-.26-1.08-.43,2.4-.09,4.61.28,6.77,1.05,1.46.52,2.86,1.15,3.96,2.28,1.32,1.35,1.98,3.02,2.28,4.85.3,1.82.1,3.61-.35,5.39-.28-.09-.17-.33-.17-.5,0-.81-.03-1.6-.17-2.4-.3-1.71-1.04-3.22-1.96-4.66-.5-.79-1.12-1.48-1.82-2.1-.13-.11-.24-.23-.31-.2-.3.14.77,2.34.88,4.95.05,1.28-.14,2.32-.3,2.97-.07-.26-.18-.51-.19-.77-.1-1.5-.56-2.91-1.12-4.28-.97-2.37-2.65-4.17-4.77-5.56-.48-.31-.95-.8-1.64-.58Z"/>
    <path class="cls-13" d="M71.81,10.98c.66-.19,1.73-.45,3.07-.5,1.66-.07,2.49.02,6.7,1.08,1.65.41,3.31.72,5.02.39,1.25-.24,2.37-.76,3.32-1.66-.32,1.13-1.92,2.48-3.82,3.25,2.26,1.17,6.57,1.51,9.24-.9-.05.09-.12.22-.22.38-.2.32-.77,1.19-1.75,1.82-.16.1-.53.32-1.39.6-.31.1-1.88.59-3.35.6-1.3.01-2.18-.35-4.92-1.58-5.4-2.42-5.27-2.4-6.09-2.64-1.73-.5-3.47-.82-5.28-.64-.04,0-.19.05-.34-.02-.09-.04-.15-.12-.18-.17Z"/>
    <path class="cls-13" d="M74.55,4.65c-.27-.27-1.57,1.91-4.84,3.08-2.94,1.05-5.6.61-8.39,2.93h0c-.6.49-1.94,1.77-2.63,4.26,2.46-2.07,4.59-2.92,6.11-3.3,2.35-.6,3.15-.61,4.86-1.51,3.36-1.77,5.24-5.12,4.9-5.46Z"/>
    <path class="cls-13" d="M77.5,22.58c-.13-.37-.25-.73-.39-1.12,2.24,1.11,3.79,6.05,2.84,8.98-.45.41-.65.99-1.05,1.45-.44.51-.82,1.07-1.29,1.67-.12-.79.12-1.43.27-2.06.45-1.89.74-3.79.46-5.73-.16-1.09-.35-2.18-.85-3.19Z"/>
    <path class="cls-13" d="M86.4,17.61c1.18.25,2.37.5,3.55.75,4.01.85,5.1,1,6.63.9,1.03-.06,1.98-.36,2.95-.78-.31.51-.87.95-1.72,1.3-1.16.48-2.36.81-3.65.71-.02-.04-.06-.1-.13-.15-.15-.1-.32-.06-.36-.05,0,0-.72-.1-2.15-.3-.69-.1-1.46-.34-2.98-.83,0,0-2.25-.72-2.34-1.26,0-.04-.03-.18.04-.24.05-.05.13-.04.17-.03Z"/>
    <path class="cls-13" d="M79.66,51.21c-.02-.15-.05-.34-.07-.56-.13-1.93.77-3.53,1.31-4.47.11-.18.21-.36.36-.58.53-.77,1.89-1.88,1.89-1.88,2.16-1.83,2.98-2.45,3.25-2.58.04-.02.18-.09.35-.21.34-.24.49-.46.51-.45.04.03-.36.74-1.03,1.68-.3.42-.65.93-1.2,1.55-1.8,2.02-2.27,2.09-3.55,3.73-.92,1.17-1.34,2.39-1.59,3.06-.11.29-.19.54-.24.7Z"/>
    <path class="cls-13" d="M87.75,46.68c-.14-2.25.52-4.33,1.43-6.35.76-1.69,1.64-3.34,1.98-5.2.02-.09.03-.19.15-.17.1.02.14.11.16.2.15.81.16,1.63.09,2.45-.19,2.17-1.27,3.97-2.41,5.75-.65,1.02-1.17,2.11-1.4,3.32Z"/>
    <path class="cls-13" d="M92.36,26.89c-.25-.63-.51-1.27-.8-2.01.56.47.89.97,1.26,1.45.87,1.14,1.52,2.39,1.89,3.77.43,1.63.34,3.27.09,4.91-.12.77-.21,1.55-.31,2.33-.24.03-.3-.1-.33-.31-.28-2.39-.54-4.77-.87-7.15-.14-1.03-.33-2.08-.93-2.98Z"/>
    <path class="cls-13" d="M94.89,23.69c.58.59,1.63,1.82,2.18,3.65.19.64.28,1.2.32,1.6-.43-.27-.53-.77-.78-1.16-1.41-2.24-3.28-4.04-5.35-5.65-.32-.25-.36-.43-.11-.71.78.24,2.32.84,3.73,2.28Z"/>
    <path class="cls-13" d="M75.43,34.85c.52,1.65.45,3.31,0,4.96-.25.28-.51.54-.74.83-.62.77-1.2,1.56-1.19,2.62-.11.31-.22.62-.33.94-.23-.56,0-1.13.04-1.68.07-1.25.32-2.47,1.01-3.56.68-1.07,1.02-2.23,1.01-3.49,0-.22-.07-.48.21-.61Z"/>
    <path class="cls-13" d="M66.36,13.71c.61-.15,1.45-.31,2.47-.41,4.01-.38,7.09.72,7.94,1.04,4.54,1.68,7.74,4.68,9.15,9.41.45,1.5.52,3.04.4,4.6-.11,1.3-.37,2.54-.86,3.75-.2-.04-.18-.18-.17-.33.16-1.45.1-2.89-.13-4.32-.44-2.7-1.58-5.07-3.42-7.09-1.92-2.11-4.32-3.56-6.82-4.85-1.24-.64-2.58-.99-3.98-1.18-1.36-.19-2.73-.28-4.1-.39-.04,0-.2.03-.34-.06-.07-.04-.11-.1-.14-.16Z"/>
    <path class="cls-13" d="M87.37,20.83c1.35,1.55,2.48,3.25,3,5.26.38,1.48.37,2.67.36,3-.06,2.53-1.05,4.57-1.58,5.62-.03.05-.05.09-.06.12-.48.58-1.22,1.41-2.25,2.28-1.15.98-1.99,1.45-2.9,2.02-2.64,1.66-4.3,2.82-5.78,4.73-1.05,1.36-1.86,2.78-2.03,4.53-.02.22.08.63-.38.64.03-4.15,1.52-7.58,5.04-9.96,1.02-.69,2.06-1.34,3.04-2.07.13-.12.27-.23.4-.35.04,0,.09,0,.16,0,0,0,.12-.03.24-.11,1.37-1.01,2.48-2.24,3.21-3.8,1.12-2.39,1.28-4.88.84-7.44-.24-1.42-.74-2.75-1.5-3.99-.14-.23-.21-.45.19-.48Z"/>
    <path class="cls-13" d="M78.98,37.65c-.14-.14-.08-.29-.02-.45.44-1.13.92-2.25,1.31-3.41.22-.66.52-1.33.35-2.06,0-.07.02-.14.03-.21.02-.04.04-.09.06-.13,0-.03,0-.06.01-.08.1,0,.2,0,.3,0-.11,1.26-.1,2.53-.63,3.72-.4.91-.9,1.77-1.41,2.62Z"/>
  </g>
  <path class="cls-19" d="M65.51,25.93c1,.47,1.64,2.21,1.49,3.94-.25-1.38-.87-2.62-1.49-3.94Z"/>
  <g>
    <path class="cls-6" d="M78.98,37.65c-.25.52-.51,1.05-.82,1.69.4-2.77,1.64-5.12,2.46-7.61.17.73-.13,1.41-.35,2.06-.38,1.15-.86,2.27-1.31,3.41-.06.15-.13.3.02.45Z"/>
    <path class="cls-6" d="M71.98,10.93c.24.04.63.1,1.12.13.42.03.74.02.8.02,1.48-.02,3.71.72,3.71.72,1.93.65,3.85,1.54,6.09,2.64,3.56,1.76,5.25,1.4,5.77,1.38,1.67-.07,3.01-.58,3.88-.99-1.85,1.28-3.9,1.73-6.12,1.57-2.43-.18-4.55-1.23-6.66-2.31-2.13-1.09-4.37-1.91-6.75-2.23-1.26-.17-2.54-.32-3.84-.28.47-.19.97-.36,1.51-.52.16-.05.32-.09.48-.13Z"/>
    <path class="cls-6" d="M77.5,22.58c.5,1,.69,2.09.85,3.19.28,1.95-.01,3.84-.46,5.73-.15.63-.39,1.27-.27,2.06.46-.61.85-1.16,1.29-1.67.39-.46.59-1.04,1.05-1.45-.14,1.05-.74,1.88-1.28,2.73-.61.95-1.17,1.92-1.42,3.04-.01.05-.04.1-.09.26-.35-1.31-.2-2.47-.04-3.6.37-2.63.88-5.24.69-7.91-.06-.8-.2-1.59-.3-2.38Z"/>
    <path class="cls-6" d="M64.25,16.34c.69-.22,1.17.27,1.64.58,2.12,1.39,3.8,3.2,4.77,5.56.56,1.37,1.02,2.78,1.12,4.28.02.26.13.51.19.77-.07.34-.14.69-.24,1.17-.45-2-.95-3.85-1.67-5.62-.51-1.24-1.27-2.71-2.72-4.27-1.12-1.2-2.26-1.98-3.09-2.47Z"/>
    <path class="cls-6" d="M71.4,19.61s.08,0,.31.2c.7.62,1.32,1.31,1.82,2.1.92,1.44,1.66,2.95,1.96,4.66.14.8.17,1.6.17,2.4,0,.17-.11.41.17.5-.11.64-.31,1.25-.61,2-.01-1.24.06-2.33-.11-3.41-.57-3.67-2.77-6.93-3.18-7.52-.12-.17-.61-.86-.54-.93Z"/>
    <path class="cls-6" d="M75.43,34.85c-.28.13-.21.39-.21.61,0,1.27-.33,2.42-1.01,3.49-.69,1.08-.93,2.31-1.01,3.56-.03.56-.27,1.12-.04,1.68-.04.31-.09.62-.15,1.04-.3-1.22-.25-2.33-.12-3.45.19-1.6.78-3.06,1.37-4.54.47-1.18.8-2.41.6-3.82.1.18.21.39.31.64.12.29.19.55.24.78Z"/>
    <path class="cls-6" d="M92.36,26.89c.6.9.79,1.95.93,2.98.33,2.38.59,4.77.87,7.15.02.21.09.34.33.31v1.98c-.33-.46-.39-.93-.52-1.37-.4-1.32-.49-2.69-.63-4.05-.24-2.35-.35-4.72-.98-7.01Z"/>
    <path class="cls-6" d="M91.16,21.42c-.25.28-.21.46.11.71,2.07,1.61,3.94,3.41,5.35,5.65.25.39.35.89.78,1.16,0,.08,0,.16-.01.26-.02.19-.07.35-.12.47-.04-.15-.12-.36-.23-.61-.22-.48-.44-.77-1.18-1.71-.47-.6-.71-.9-.9-1.13,0,0-.52-.67-.97-1.15-1.29-1.39-2.72-2.65-4.2-3.86.48-.07.93,0,1.36.21Z"/>
    <path class="cls-6" d="M86.52,17.64c-.11.04-.28-.03-.3.15-.02.18.13.23.26.3.77.41,1.56.76,2.39,1.04,1.6.55,3.19,1.11,4.91,1.11,0,0,.22-.03.32.07.05.04.07.1.07.1.01.03.01.06.01.08-1.49-.07-3.61-.35-5.94-1.29-1.38-.55-2.51-1.21-3.4-1.82.24.01.49.03.76.07.34.05.64.11.92.18Z"/>
    <path class="cls-6" d="M73.5,43.26c-.01-1.06.57-1.85,1.19-2.62.23-.29.49-.55.74-.83-.34,1.1-.72,1.65-1.01,1.96-.06.07-.22.23-.4.47-.28.39-.43.76-.52,1.01Z"/>
    <path class="cls-6" d="M66.43,13.7c.03.27.24.21.41.23,1.37.11,2.73.2,4.1.39,1.4.19,2.74.54,3.98,1.18,2.5,1.29,4.9,2.75,6.82,4.85,1.84,2.02,2.98,4.39,3.42,7.09.23,1.44.29,2.88.13,4.32-.02.15-.03.29.17.33-.28.79-.61,1.55-1.13,2.23.24-.73.46-1.45.54-2.21.14-1.19.16-2.38-.05-3.57-.36-2.07-1.1-4-2.18-5.81-1.01-1.69-2.28-3.16-3.82-4.39-.37-.29-.66-.7-1.26-.97,1.74,1.89,2.98,3.87,3.29,6.25-3.64-6.37-9.03-9.66-16.56-9.21.69-.38,1.4-.61,2.14-.71Z"/>
    <path class="cls-6" d="M75.76,49.03c.46-.01.36-.42.38-.64.17-1.74.97-3.17,2.03-4.53,1.57-2.02,3.68-3.37,5.78-4.73,1.79-1.16,3.47-2.46,4.84-4.12.08-.1.17-.18.31-.18-.68,1.53-1.8,2.7-3.03,3.77-1.62,1.42-3.52,2.46-5.18,3.82-1.16.95-3.5,2.9-4.41,6.07-.46,1.61-.41,3.03-.31,3.94-.39-1.2-.5-2.29-.41-3.41Z"/>
    <path class="cls-6" d="M87.37,20.83c-.39.03-.33.25-.19.48.76,1.23,1.26,2.57,1.5,3.99.44,2.56.28,5.04-.84,7.44-.73,1.57-1.84,2.79-3.21,3.8-.13.09-.25.13-.4.12.96-1.13,1.92-2.26,2.53-3.63.96-2.15,1.45-4.41,1.31-6.75-.13-2.24-.77-4.36-1.87-6.33-.02-.04-.01-.09-.03-.27.5.38.86.75,1.19,1.16Z"/>
    <path class="cls-6" d="M86.79,41.03c.06.1-1.1.85-2.83,2.28-1.36,1.12-2.03,1.68-2.53,2.29-1.41,1.72-1.68,3.78-1.78,4.5-.03.22-.05.41-.06.54-.01-.13-.02-.32-.03-.54,0-.44-.01-2.23.86-4.01.97-1.96,2.53-2.94,4.24-4.01,1-.63,2.07-1.15,2.12-1.06Z"/>
    <path class="cls-6" d="M91.16,35.18c-.05.6-.16,1.5-.48,2.54-.58,1.89-1.28,2.37-2.01,4.22-.87,2.19-.83,3.87-.92,3.86-.1-.01-.25-2.02.51-4.21.47-1.35.92-1.71,1.86-3.8.49-1.07.82-1.99,1.04-2.61Z"/>
  </g>
  <path class="cls-6" d="M66.46,58.34c-.34.53-.75,1-1.22,1.43-1.55,1.41-3.39,2.4-5.13,3.52-1.09.7-2.2,1.36-3.18,2.2-1.58,1.36-1.94,3.18-1.75,5.17.04.41.31.42.61.4.28.36.63.4,1.05.26.96-.32,1.73-.89,2.38-1.65.97-1.15,1.97-2.26,3.35-2.94.39-.2.81-.31,1.24-.42.62-.16,1.03.05,1.37.55.02.23-.08.4-.23.58-.68.79-1.61,1.16-2.52,1.57-.15.06-.34.07-.4.24-.35.88-.99,1.56-1.51,2.33-1.4,2.04-3.28,3.41-5.7,4.03-1.93.5-3.91.66-5.87.95-1.92.28-3.73.82-5.31,2.01-1.03.78-1.98,1.65-2.89,2.56-.51.52-1.04,1.01-1.62,1.45-.11-.14-.06-.24-.04-.34.47-2.13,1.12-4.21,1.85-6.27.14-.4.4-.79.24-1.25.41-1.07,1.06-2.01,1.75-2.92,1.61-2.14,3.07-4.39,4.52-6.64.44-.69.94-1.25,1.57-1.69.26-.18.43-.22.9-.5.64-.38,1.09-.72,1.42-.98,1.8-1.39,2.25-1.82,3.41-2.64.75-.53,1.13-.75,1.24-.82,1.22-.7,1.2-.54,1.95-.96.32-.18.63-.43,1.01-.46.1,0,.35-.01.48.15.07.09.07.19.07.22,0,.15-.09.29-.26.43-.46.38-1.49.77-1.78.89-.62.25-.4.35-1.61,1.17-1.17.79-1.29.65-2.05,1.25-.9.71-.7.88-1.58,1.5-.8.57-1.1.52-1.61,1.1-.44.49-.71,1.07-.78,1.24-.15.33-.24.62-.3.84.23.08.29-.15.38-.27.23-.3.44-.61.63-.93.43-.71,1.07-1.14,1.86-1.34,1.74-.43,3.19-1.38,4.5-2.55.42-.38.87-.69,1.38-.89,1.7-.67,3.14-1.75,4.6-2.81.2-.14.35-.48.66-.21.31.27.37.6.17.97-.13.24-.33.42-.53.6-1.02.91-2.25,1.45-3.48,1.97-.65.27-1.26.56-1.79,1.04-1.03.94-2.31,1.47-3.6,1.93-1.09.39-1.8.93-1.84,2.16-.01.4-.18.81-.45,1.28.54-.25.78-.66.96-1.02.58-1.18,1.56-1.78,2.75-2.19,1.03-.35,2-.86,2.87-1.51.74-.55,1.56-.92,2.39-1.3,1.8-.85,3.49-1.89,4.92-3.31.27-.26.52-.47.8-.02.03.32-.05.61-.22.87Z"/>
  <path class="cls-6" d="M104.08,82.49c-.23,0-.3-.14-.41-.26-1.38-1.62-2.75-3.26-4.34-4.67-.94-.83-2.02-1.48-3.19-1.94-1.8-.71-3.7-1.06-5.59-1.44-1.75-.36-3.43-.91-4.85-2.04-1.33-1.06-2.33-2.41-3.25-3.83-.24-.37-.48-.66-.94-.82-.77-.27-1.48-.7-2.16-1.16-.01-.06-.02-.14-.01-.23.05-.35.4-.53.48-.58.3-.16.61-.15.79-.13,1.13.12,2.07.64,2.88,1.39.51.47.98,1,1.46,1.5.54.56,1.17.97,1.93,1.18.47.13.8.03.99-.43.44.07.57-.15.54-.56-.02-.3,0-.61,0-.91-.07-1.64-.72-3.01-1.94-4.09-1.94-1.71-4.21-2.94-6.39-4.31-1.48-.93-2.93-1.93-3.84-3.5.05-.19.15-.47.39-.58.58-.27,1.3.77,2.98,1.81,1.01.62,1.05.43,2.94,1.47.53.29.94.54,1.76,1.03,3.06,1.83,2.84,1.92,3.62,2.22.2.08.68.25,1.15.68.24.22.45.48.62.78.35.61.81,1.16,1.26,1.73-.13-.44-.34-1.07-.71-1.78-.18-.35-.29-.56-.48-.81-.57-.75-1.11-.82-2.16-1.5-.99-.64-.79-.75-1.83-1.43-.3-.19-.52-.32-1.92-1.01-1.11-.55-1.71-.83-2.62-1.3,0,0-1.45-.65-2.36-1.65-.23-.25-.44-.53-.47-.88-.02-.25.07-.45.27-.61.06-.04.11-.06.16-.06.15,0,.28.14.31.17.64.7,1.62.99,2.41,1.51.38.25,1.07.59,2.46,1.27,2.12,1.04,2.32,1.02,3.01,1.54.12.09.62.53,1.61,1.39.85.74,1.08.95,1.54,1.25.65.41.75.35,1.22.71.41.32.74.59,1.16,1.27.27.44.57.85.91,1.25-.6-1.63-1.42-2.52-2.09-3.04-.86-.67-1.64-.85-2.63-1.96-.38-.43-.48-.64-.94-1.07-.18-.16-.61-.54-1.88-1.24-.5-.28-1.17-.63-1.98-.99-.07-.03-.56-.21-.86-.66-.18-.27-.18-.44-.17-.53.02-.15.11-.35.28-.42.19-.08.42.05.51.1,3.7,2.17,5.55,3.26,6.22,4.03.92,1.06,1.25,1.74,2.26,2.2.29.14.78.31,1.39.73.58.4.94.8,1.11.99,4.78,5.28,6.88,10.37,6.88,10.37,1.27,3.1,1.81,5.75,2.1,7.2.21,1.08.35,2,.44,2.67Z"/>
  <g>
    <path class="cls-8" d="M110.18,43.14c1.2.85,2.22,1.69,3.11,2.69,2.97,3.36,5.13,7.22,6.4,11.57,1.04,3.57,1.61,7.23,1.28,10.97-.51,5.82-2.55,10.88-6.96,14.78-2.47,2.18-5.15,4.04-7.82,5.94-2.08,1.49-4.17,2.98-6.26,4.46-2.63,1.86-5.45,3.29-8.48,4.32-.68.23-1.37.45-2.11.57.79-.68,1.57-1.36,2.36-2.04,2.7-2.31,5.18-4.86,7.73-7.34,1.81-1.76,3.51-3.65,5.18-5.55,1.23-1.4,2.35-2.92,3.5-4.41,1.42-1.84,2.66-3.81,3.81-5.82,1.47-2.58,2.66-5.33,3.44-8.25.48-1.81.78-3.63.88-5.5.09-1.56-.16-3.09-.48-4.61-.59-2.73-1.79-5.21-3.15-7.6-.7-1.23-1.49-2.42-2.25-3.62-.09-.13-.1-.27-.19-.56Z"/>
    <g>
      <path class="cls-11" d="M96.37,97.85c.75-.46,1.42-.87,2.09-1.29,3.01-1.9,5.84-4.09,8.77-6.1,1.99-1.37,3.98-2.73,5.93-4.17,2.5-1.84,4.89-3.82,6.73-6.39,2.03-2.82,3.58-5.92,4.45-9.33.81-3.15,1.22-6.37.79-9.64-.26-2.03-.73-4-1.47-5.91-.11-.29-.22-.58-.33-.87-.04-.1-.1-.21.02-.28.15-.09.19.06.27.15,1.37,1.69,2.38,3.59,3.21,5.62,1.25,3.07,1.71,6.27,1.6,9.57-.07,1.94-.38,3.85-.95,5.71-.94,3.07-2.18,6-3.97,8.66-1.52,2.27-3.41,4.14-5.6,5.69-3.26,2.3-6.68,4.31-10.4,5.7-3.15,1.18-6.37,2.11-9.68,2.65-.45.07-.89.28-1.48.22Z"/>
      <path class="cls-17" d="M88.89,100.79c.7-.41,1.46-.51,2.2-.63,3.78-.6,7.6-.72,11.41-.9,3.4-.16,6.8-.37,10.17-.91,3.72-.6,7.33-1.64,10.74-3.34,2.97-1.48,5.6-3.38,7.69-6.03.03-.04.09-.06.22-.14-.3,1.35-.77,2.54-1.37,3.67-.98,1.83-2.13,3.55-3.63,4.98-.92.87-1.93,1.6-2.97,2.32-1.58,1.08-3.32,1.71-5.12,2.22-1.64.47-3.33.53-5.02.57-2.09.05-4.19.02-6.27-.27-2.8-.39-5.6-.7-8.4-1.09-2.46-.35-4.95-.38-7.43-.44-.74-.02-1.49,0-2.23,0Z"/>
      <path class="cls-14" d="M123.39,104.09c-.73,1.01-1.48,1.95-2.53,2.64-.79.52-1.48,1.19-2.32,1.63-3.74,1.97-7.51,2.1-11.31.19-1.36-.68-2.63-1.52-3.92-2.34-2.46-1.57-5.14-2.63-7.89-3.52-.17-.06-.34-.13-.67-.25,2.7.25,5.23.52,7.76.93,1.86.31,3.74.51,5.62.67,1.69.15,3.37.15,5.05.11.97-.02,1.94-.15,2.93-.14-.64.17-1.28.36-1.93.49-.68.13-1.36.23-2.05.3-.67.06-1.34.07-2.01.08-.68,0-1.36-.12-2.21,0,5.35,1.4,10.44,1.21,15.48-.81Z"/>
      <path class="cls-12" d="M102.85,97.96c.87-.27,1.8-.53,2.71-.83,2.78-.91,5.61-1.66,8.34-2.73,1.42-.56,2.81-1.19,4.12-1.98,2.24-1.34,4.05-3.19,5.77-5.16,1.91-2.2,3.65-4.52,4.99-7.14.76-1.5,1.41-3.04,1.79-4.7.06-.26.14-.51.26-.95.16,2.41-.1,4.57-.79,6.68-1.22,3.74-3.27,6.95-5.98,9.71-3.43,3.5-7.57,5.49-12.31,6.31-2.98.51-5.97.77-8.9.79Z"/>
    </g>
  </g>
  <g>
    <path class="cls-15" d="M32.52,44.52c-.85,1.41-1.72,2.8-2.53,4.23-1.15,2.03-2.09,4.16-2.72,6.43-.55,1.99-.77,4-.69,6.06.07,1.73.43,3.4.86,5.06.89,3.48,2.46,6.65,4.28,9.68,1.64,2.72,3.51,5.28,5.57,7.69,2.53,2.97,5.18,5.81,7.97,8.51,2.52,2.44,5.01,4.93,7.76,7.11.09.08.25.13.19.28-.1.23-.23.03-.34,0-4.51-1.3-8.51-3.64-12.31-6.41-2.56-1.87-5.17-3.67-7.75-5.5-.96-.68-1.96-1.35-2.81-2.14-2.41-2.23-4.69-4.61-6.11-7.7-1.77-3.86-2.41-7.93-2.12-12.16.15-2.24.57-4.43,1.18-6.58,1.24-4.37,3.17-8.39,6.16-11.79.97-1.1,1.98-2.17,3.28-2.88l.13.12Z"/>
    <path class="cls-3" d="M46.63,99.02c-1.2-.02-2.18-.31-3.16-.51-3.97-.82-7.86-1.89-11.52-3.73-2.93-1.48-5.74-3.2-8.32-5.27-3.06-2.45-5.21-5.65-6.82-9.26-1.16-2.6-2.08-5.28-2.38-8.13-.22-2.14-.2-4.3.14-6.46.46-2.99,1.48-5.75,3.03-8.31.45-.75.88-1.52,1.46-2.18.08-.09.16-.24.29-.17.19.11.03.25-.02.37-1.41,3.67-2.08,7.48-1.76,11.42.4,4.96,2.05,9.47,4.78,13.57,1.77,2.65,4.07,4.74,6.56,6.61,4.56,3.43,9.33,6.56,14.01,9.82,1.13.79,2.31,1.52,3.7,2.23Z"/>
    <path class="cls-16" d="M11.39,90.12c1.11,1.21,2.26,2.32,3.52,3.31,2.68,2.09,5.67,3.55,8.87,4.59,2.01.66,4.07,1.16,6.15,1.49,2.06.33,4.14.57,6.23.68,3.25.16,6.49.32,9.74.52,2.57.16,5.13.43,7.66,1,.1.02.2.01.28.17-.31.14-.63.06-.93.06-3.93.04-7.83.28-11.73.85-2.41.35-4.83.65-7.26.83-2.85.21-5.68.23-8.5-.26-2.61-.46-4.97-1.54-7.1-3.14-3.17-2.38-5.41-5.5-6.71-9.32-.09-.25-.14-.52-.21-.77Z"/>
    <path class="cls-4" d="M19.39,105.2c1.42.47,2.83,1,4.31,1.29,2.64.53,5.27.65,7.93.16,1.07-.19,2.13-.41,3.27-.81-2.89.35-5.63.22-8.42-.7.37-.08.63-.02.88.02.28.04.57.03.85.06,2.3.2,4.59.12,6.88-.08,1.66-.15,3.31-.35,4.96-.59,1.58-.24,3.16-.49,4.75-.66.84-.09,1.68-.23,2.55-.1-.74.26-1.47.53-2.21.77-1.45.48-2.82,1.14-4.18,1.84-1.8.93-3.43,2.14-5.2,3.11-4.73,2.6-9.65,1.8-13.8-1.49-1-.79-1.94-1.64-2.6-2.78.01-.02.03-.03.04-.05Z"/>
    <path class="cls-1" d="M40.08,99.08c-4.24-.03-8.44-.3-12.52-1.56-1.33-.41-2.6-.99-3.85-1.67-4-2.19-6.9-5.5-9.18-9.42-1.72-2.97-2.74-6.18-2.6-9.7,0-.08,0-.17.02-.25,0-.03.04-.06.12-.14.28.82.55,1.6.82,2.38.83,2.42,2.09,4.59,3.58,6.63,1.4,1.93,2.99,3.68,4.63,5.4,1.96,2.06,4.32,3.44,6.88,4.49,3.83,1.57,7.8,2.65,11.76,3.82.11.03.23.02.35.03Z"/>
  </g>
  <text class="cls-7" transform="translate(33.82 123.13) scale(.74 1)"><tspan x="0" y="0">seelenruhe</tspan></text>
</svg>