<?xml version="1.0" encoding="UTF-8"?>
<svg id="Layer_1" data-name="Layer 1" xmlns="http://www.w3.org/2000/svg" xmlns:xlink="http://www.w3.org/1999/xlink" viewBox="0 0 283.46 283.2">
  <defs>
    <style>
      .cls-1 {
        fill: url(#linear-gradient-13);
      }

      .cls-2 {
        fill: url(#linear-gradient-2);
      }

      .cls-3 {
        fill: url(#linear-gradient-10);
      }

      .cls-4 {
        fill: url(#linear-gradient-12);
      }

      .cls-5 {
        fill: #92bfdb;
      }

      .cls-6 {
        fill: #eeeadf;
      }

      .cls-7 {
        fill: url(#linear-gradient-4);
      }

      .cls-8 {
        fill: #e8edd0;
      }

      .cls-9 {
        fill: url(#linear-gradient-3);
      }

      .cls-10 {
        fill: url(#linear-gradient-5);
      }

      .cls-11 {
        fill: url(#linear-gradient-8);
      }

      .cls-12 {
        fill: #c5a482;
      }

      .cls-13 {
        fill: url(#linear-gradient-7);
      }

      .cls-14 {
        fill: url(#linear-gradient-9);
      }

      .cls-15 {
        fill: url(#linear-gradient-11);
      }

      .cls-16 {
        fill: url(#linear-gradient-6);
      }

      .cls-17 {
        fill: #fff;
        font-family: Castellar, Castellar;
        font-size: 30.15px;
      }

      .cls-18 {
        fill: url(#linear-gradient);
      }

      .cls-19 {
        fill: #929480;
      }
    </style>
    <linearGradient id="linear-gradient" x1="-324.69" y1="21.72" x2="-75.32" y2="257.85" gradientTransform="translate(.76) rotate(-180) scale(.71 -1)" gradientUnits="userSpaceOnUse">
      <stop offset="0" stop-color="#f6861f"/>
      <stop offset=".26" stop-color="#9b721d"/>
      <stop offset=".31" stop-color="#bba23d"/>
      <stop offset=".4" stop-color="#edeb6d"/>
      <stop offset=".55" stop-color="#a7a23a"/>
      <stop offset=".66" stop-color="#7c751a"/>
      <stop offset=".72" stop-color="#6c640e"/>
      <stop offset=".83" stop-color="#5f6109"/>
      <stop offset="1" stop-color="#525e04"/>
    </linearGradient>
    <linearGradient id="linear-gradient-2" x1="-246.81" y1="46.75" x2="-229.96" y2="46.75" gradientTransform="translate(.76) rotate(-180) scale(.71 -1)" gradientUnits="userSpaceOnUse">
      <stop offset="0" stop-color="#f6861f"/>
      <stop offset=".26" stop-color="#9b721d"/>
      <stop offset=".52" stop-color="#7d6913"/>
      <stop offset=".72" stop-color="#6c640e"/>
      <stop offset=".83" stop-color="#5f6109"/>
      <stop offset="1" stop-color="#525e04"/>
    </linearGradient>
    <linearGradient id="linear-gradient-3" x1="-250.38" y1="54.75" x2="-231.95" y2="54.75" xlink:href="#linear-gradient-2"/>
    <linearGradient id="linear-gradient-4" x1="-146.24" y1="141.46" x2="-57.13" y2="141.46" gradientTransform="translate(.76) rotate(-180) scale(.71 -1)" gradientUnits="userSpaceOnUse">
      <stop offset="0" stop-color="#fff"/>
      <stop offset="1" stop-color="#6f6549"/>
    </linearGradient>
    <linearGradient id="linear-gradient-5" x1="-126.51" y1="151.56" x2="-36.35" y2="151.56" xlink:href="#linear-gradient-4"/>
    <linearGradient id="linear-gradient-6" x1="-147.53" y1="191.28" x2="-28.3" y2="191.28" xlink:href="#linear-gradient-4"/>
    <linearGradient id="linear-gradient-7" x1="-131.06" y1="212.17" x2="-50.6" y2="212.17" xlink:href="#linear-gradient-4"/>
    <linearGradient id="linear-gradient-8" x1="-108.3" y1="172.27" x2="-29.55" y2="172.27" xlink:href="#linear-gradient-4"/>
    <linearGradient id="linear-gradient-9" x1="-332.64" y1="116.54" x2="-233.28" y2="173.9" xlink:href="#linear-gradient-4"/>
    <linearGradient id="linear-gradient-10" x1="-358.59" y1="131.84" x2="-260.76" y2="188.32" xlink:href="#linear-gradient-4"/>
    <linearGradient id="linear-gradient-11" x1="-357.37" y1="166.38" x2="-257.78" y2="223.88" xlink:href="#linear-gradient-4"/>
    <linearGradient id="linear-gradient-12" x1="-332.72" y1="192.68" x2="-274.99" y2="226.01" xlink:href="#linear-gradient-4"/>
    <linearGradient id="linear-gradient-13" x1="-368.05" y1="160.32" x2="-289.19" y2="205.85" xlink:href="#linear-gradient-4"/>
  </defs>
  <ellipse class="cls-18" cx="141.73" cy="141.6" rx="141.73" ry="141.6"/>
  <path class="cls-6" d="M151.37,56.99c-1.02,2.89-1.32,5.86-.95,9.03-.84-1.13-1.38-2.35-2.2-3.38-.91-1.13-1.91-2.12-3.22-2.78-2.71-1.36-5.6.15-6.13,3.14-.49,2.78.29,5.23,1.89,7.43,1.89,2.61,4.22,4.74,7.3,5.94.98.38,1.96.55,3.01.4,1.2-.17,1.92-.82,2.23-1.97.48-1.75-.3-3.46-.25-5.21.33.91.8,1.72,1.2,2.55,1.44,3,2.97,5.92,5.69,8.04,3.97,3.09,8.5,4.43,13.46,4.51,3.86.07,7.73.06,11.58-.21.62-.14,1.25-.27,1.87-.44,2.7-.75,3.72-2.83,2.59-5.65-.28-.69-.71-1.31-1.02-1.98-.68-1.45-.77-2.87.31-4.19.47-.58.49-1.11,0-1.72-.5-.63-.99-.39-1.49-.09-.88.52-1.74,1.07-2.82,1.73.98-1.61,1.7-2.48,2.14-2.95.74-.78,1.1-1.17,1.24-1.29.44-.38.65-.48.77-.78.26-.67-.26-1.45-.34-1.57-.44-.67-.88-.63-1.98-1.69-.17-.17-.41-.4-.57-.78-.18-.42-.18-.79-.16-.94.06-.47.22-.82.28-.94.4-.76.9-1.17,1.21-1.49.67-.69,1.28-1.81,1.25-2.59-.03-.85-.82-1.21-3.57-3.03,0,0-4.53-2.99-6.21-5.32-.1-.14-.2-.29-.2-.29-.67-1.02-.99-1.97-1.13-2.5-.71.32-.4.96-.34,1.41.22,1.46.13,2.92.14,4.38,0,.31.27.81-.22.91-.41.08-.68-.35-.88-.68-.11-.17-.12-.41-.2-.6-.86-2-1.42-4.22-3.7-5.2-2.88.76-5.27,2.41-7.53,4.27,1.32-2.78,3.43-4.73,6.1-6.11,1.74-.9,3.63-1.17,5.55-1.32.1-.01.2-.03.29-.04-1.9-4.73-4.96-8.51-9.92-10.04-5.2-1.61-11.11.69-14.49,5.31-.86,1.18-1.58,2.44-2.1,3.81.44.23.46.24.95-.35,2.06-2.49,4.69-4.04,7.86-4.62,1.6-.29,3.22-.24,4.89.36q-.81.37-1.65.38c-3.09.87-5.32,3.04-7.65,5.07-3.37,2.93-6.67,5.92-9.04,9.78-.04.06-.05.13-.08.19.25.32.43.08.62-.07.75-.61,1.48-1.24,2.24-1.84,2.97-2.33,6.08-4.4,9.82-5.28,1.16-.27,2.33-.14,3.52-.02-2.75,2.05-4.62,4.59-5.58,7.83-.94,3.19-1,6.37-.23,9.64-1.72-1.33-3.28-2.73-3.73-4.97-.08-.42-.11-.85-.42-1.18ZM142.16,67.76c-.84-1.09-1.36-2.24-1.51-3.52-.19-1.66,1.53-3.24,3.14-2.94,2.82.52,5.36,3.88,4.95,6.71-.1.66.1.73.57.91,1.32.5,2.1,1.43,2.13,2.9.02,1.36-.79,1.98-2.08,1.52-2.17-.76-3.35-2.45-4.04-4.53-.48-1.43-.13-2.39,1.11-3.22.21-.14.47-.18.37-.53-.34-1.18-2.62-1.85-3.67-1.09-1.35.98-1.05,2.35-.97,3.79ZM165.83,55.35c1.53.02,3.04-.18,4.56-.33,1.84-.18,3.67-.47,5.17-1.71.21-.17.42-.33.67-.18.77.47,1.59.74,2.71.71-4.28,2.85-8.57,3.33-13.11,1.5Z"/>
  <path class="cls-5" d="M124.26,131.53c0,.16-.01.32-.02.48.16-.15.24-.31.02-.48Z"/>
  <path class="cls-19" d="M142.16,67.76c-.08-1.44-.38-2.81.97-3.79,1.04-.75,3.32-.09,3.67,1.09.1.35-.17.39-.37.53-1.24.83-1.59,1.79-1.11,3.22.69,2.08,1.87,3.77,4.04,4.53,1.29.45,2.1-.16,2.08-1.52-.03-1.47-.81-2.4-2.13-2.9-.48-.18-.67-.25-.57-.91.41-2.83-2.13-6.19-4.95-6.71-1.61-.3-3.33,1.28-3.14,2.94.15,1.28.67,2.43,1.51,3.52Z"/>
  <g>
    <path class="cls-2" d="M171.94,46.19c1.06-.77,2.3-1.12,3.52-1.5,1.05-.32,1.16-.83.6-1.66-1.92.15-3.81.43-5.55,1.32-2.67,1.37-4.78,3.32-6.1,6.11,2.26-1.87,4.65-3.51,7.53-4.27Z"/>
    <path class="cls-9" d="M165.83,55.35c4.54,1.82,8.84,1.35,13.11-1.5-1.12.03-1.95-.24-2.71-.71-.25-.15-.46,0-.67.18-1.5,1.24-3.33,1.53-5.17,1.71-1.51.15-3.03.35-4.56.33Z"/>
  </g>
  <g>
    <path class="cls-8" d="M116.28,148.55c1.53-2.25,3.6-3.93,5.69-5.61,4.09-3.28,7.65-7.11,11.26-10.89,2.77-2.89,5.31-5.98,7.26-9.5.13-.24.26-.49.32-.8-1.36,1.37-3.23,3.22-5.5,5.4-1.41,1.35-2.11,2.04-2.99,2.83-2.72,2.46-5.55,4.81-8.28,7.26-1,.9-1.88,1.94-2.81,2.92-2.42,2.35-4.12,5.12-4.94,8.39Z"/>
    <g>
      <path class="cls-8" d="M136.1,165.07c.84,1.89,2.78,6.24,6.99,9.77,1.83,1.53,3.84,2.71,5.96,5.56,1.28,1.72,2.07,3.33,2.54,4.43.38.98.75,1.97,1.13,2.97.33-2.54-.22-5.52-1.22-8.38-1.07-3.06-2.41-5.27-3.95-7.66-1.97-3.05-2.66-3.4-4.06-5.46-3.99-5.85-4.69-12.13-5.11-15.91-.1-.86-.34-4.51-.06-9.3.11-1.77.48-3.5.75-5.26-1.72,2.84-2.76,5.37-3.39,7.22-.7,2.04-1.07,3.75-1.24,4.58,0,0-.34,1.68-.5,3.23-.79,7.44,2.16,14.2,2.16,14.2Z"/>
      <path class="cls-8" d="M116.1,163.13c.07,1.88.42,3.75.64,5.62.4,2.05,1.07,4.01,2.05,5.87-.11-1.13-.22-2.72-.18-4.64.05-2.12.36-8.11,3.38-15.02,4.52-10.34,15.32-23.26,16.29-24.93.36-.61.58-1.26.58-1.26.14-.4.24-.79.3-1.14-.12.11-.3.27-.53.47-4.11,3.62-10.04,9.41-16.12,18.01-4.66,6.6-5.48,9.34-5.88,11.13-.42,1.87-.61,3.83-.54,5.89Z"/>
      <path class="cls-8" d="M132.57,182.2c.57.52,1.08.92,1.45,1.19-1.18-2.44-1.87-4.72-2.53-7.02-1.88-6.54-2.43-13.2-1.83-19.96.36-4.1,1.64-7.98,3.03-11.83.12-.33.22-.67.33-1.01,1.06-2.41,2.22-4.76,3.51-7.05.05-.07.1-.15.15-.22.03-.06.05-.13.06-.2-.04-.3.08-.64-.23-.87-4.36,6.85-8.44,13.84-10.41,21.82-.94,3.79-1.67,8.65-.01,14.35.53,1.81,2.04,6.78,6.49,10.81Z"/>
      <path class="cls-8" d="M142.76,148.07c.16,1.24.31,2.37.46,3.49.21,1.65,1.37,5.62,4.18,9.21,2.93,3.74,5.17,3.68,10.16,8.14,3.32,2.97,4.09,4.75,4.31,5.15.17.31.21.92.73.68.4-.17.21-.72.15-1.06-.49-2.82-1.63-5.3-3.26-7.51h0c-.08-.04-.15-.11-.2-.22-.41-.53-1.05-1.33-1.92-2.24-2.34-2.45-3.42-2.89-5.57-4.52-3.81-2.89-6.95-6.32-8.78-10.82-.03-.09-.12-.15-.25-.31Z"/>
      <path class="cls-8" d="M159.28,165.95c.05.11.12.18.2.22-.06-.07-.11-.15-.17-.22h-.03Z"/>
      <path class="cls-8" d="M125.46,120.47c1.67-.23,3.02-.85,4.29-1.48,6.92-3.42,11.76-8.77,14.44-16.03,1.38-3.65,1.66-7.4,1.01-11.35-.18.93-.39,1.87-.65,2.82-3.27,12.21-11.82,20.68-19.09,26.04Z"/>
      <path class="cls-8" d="M144.44,144.4c1.76,4.03,4.64,7.08,8.38,9.34,4.35,2.63,5.94,2.63,10.16,4.81,2.21,1.14,5.35,3.03,8.81,6.17-.64-1.39-1.15-2.7-2.14-3.75-2.28-3.37-5.52-5.63-8.95-7.65-2.42-1.42-2.12-.98-4.98-2.69-4.2-2.52-9.62-5.88-11.73-11.77-.21-.59-.35-1.09-.43-1.41-.44,1.61-.01,4.93.87,6.95Z"/>
      <path class="cls-8" d="M119.87,128.16c1.43-.2,2.7-.32,3.97-.47,3.28-.39,6.59-.84,9.47-2.58,5.13-3.11,9.36-7.01,10.91-13.12.44-1.43.77-2.89.93-4.59-1.75,3.53-3.7,5.99-5.12,7.55-3.4,3.75-6.93,5.84-12.8,9.26-3.03,1.77-5.61,3.09-7.37,3.96Z"/>
      <path class="cls-8" d="M136.42,103.73s.1.02.11,0c2.35-3.81,5.21-7.35,6.28-11.83.7-2.91,1.01-5.83-.29-8.69-.25-.87-.49-1.74-.82-2.89-.46,1.32-.26,2.4-.4,3.43-.32,2.38-1.05,4.61-1.95,6.8-1.15,2.8-1.86,5.72-2.02,8.75-.31,1.47-.61,2.95-.92,4.43Z"/>
      <path class="cls-8" d="M147.66,140.65c1.9,2.08,4.26,3.48,6.79,4.61,1.43.64,2.85,1.28,4.35,2.35-.43-.93-.86-1.55-1.41-2.09-1.7-2.44-4.16-4.07-6.39-5.94-2.98-2.49-5.46-5.36-6.78-9.08-.15-.65-.31-1.3-.51-2.16-.49,4.84.82,8.87,3.96,12.31Z"/>
      <path class="cls-8" d="M147.54,116.61c.61,1.83,1.35,3.21,1.91,4.14,1.54,2.52,3.29,4.1,4.84,5.47.7.62,1.56,1.33,2.59,2.08.38.27.77.55,1.2.83-.71.09-3.68.36-6.51-1.64-3.07-2.16-3.71-5.39-3.82-6.02-.25-1.61-.4-3.23-.2-4.85ZM148.22,121.81s-.03-.26-.16-.36c.09.07.11.23.16.36ZM148.04,121.43s-.01-.01-.02-.01c0,0-.01,0-.02,0,.01,0,.03.01.04.02Z"/>
      <path class="cls-8" d="M148.06,121.44c.09.07.11.23.16.36,0-.02-.03-.26-.16-.36Z"/>
      <path class="cls-8" d="M148.02,121.42s-.01,0-.02,0c.01,0,.03.01.04.02,0,0-.01-.01-.02-.01Z"/>
    </g>
  </g>
  <path class="cls-8" d="M150.3,87.71c-.78-.61-1.62-1.12-2.54-1.75.15.48.28.89.4,1.29.51,2.93,1.91,5.36,4.15,7.3.87.75,1.57,1.57,2.13,2.44,1.19,1.87,1.44,3.75,1.89,7.54.05.41.11.97-.02,1.01-.23.07-.82-1.69-2.16-4.34-.71-1.4-1.07-2.11-1.66-2.88-1.03-1.34-2.18-2.19-2.97-2.68,1.3,6.19,3.13,10.8,4.68,12.86.87,1.15,1.84,1.99,1.84,1.99,1.38,1.19,2.77,1.85,3.73,2.22-.36-3.84.22-7.45,1.04-11.04-.78-3.3-1.13-6.69-2.13-9.94-.32-1.09-.77-2.13-1.31-3.13-.62-1.53-1.46-2.92-2.6-4.13-1.59-2.36-3.72-3.86-6.62-4.09-.54-.15-1.07-.3-1.92-.54,1.3,1.59,2.53,2.82,3.8,4.02,2.02,1.92,4.16,3.73,5.5,6.26.93,1.76,1.28,3.65,1.41,5.59.02.25-.05.92-.26.95-.27.05-.7-1.04-1.02-1.99-.78-3.11-2.99-5.12-5.38-6.99Z"/>
  <path class="cls-8" d="M149.02,105.11c-.1.9-.16,2.39.44,4.05.97,2.66,3.36,5.01,4.35,4.59.41-.17.61-.84.63-1.27.03-.69-.39-1.21-.53-1.4-1.69-2.28-3.01-4.82-4.99-7.07.03.44.06.77.09,1.11Z"/>
  <path class="cls-8" d="M147.13,130.85c1.22,2.74,2.95,4.58,4.15,5.65-.14-.85-.26-1.59-.38-2.33.19-.8.45-1.57.99-2.17.38-.42.15-.51-.15-.77-2.09-1.81-3.81-3.91-4.78-6.62-.33-.93-.53-1.88-.76-2.87-.17.59-.37,1.46-.44,2.51-.2,3.01.78,5.3,1.36,6.59Z"/>
  <path class="cls-19" d="M131.04,111.11c-2.96,3.55-5.81,5.77-7.81,7.12-3.59,2.43-8.58,4.92-12.78,8.61-2.45,2.15-3.74,4.9-3.88,8.17-.03.61.04,1.22,0,1.82-.04.48.03.77.24.96.31.28.84.15.99.11-.08-.43-.18-1.06-.17-1.81.02-2.14.8-3.7,1.12-4.33,1.66-3.32,5.37-5.8,5.88-6.14,3.66-2.45,7.7-5.29,12.78-8.95,0,0,.19-.1.47-.29,0,0,.6-.4,1.09-.81.09-.08,1.48-1.3,1.97-2.77,0,0,.2-.61.17-1.22,0-.2-.05-.37-.05-.37-.01-.05-.02-.08-.03-.1Z"/>
  <path class="cls-19" d="M171.86,142.02c.24.07.8.21,1.13-.09.21-.19.24-.48.26-.61.44-5.28-.84-7.52-.84-7.52-.2-.35-.72-1.2-2.41-2.8-2.32-2.18-4.39-3.43-6.3-4.58,0,0-6.87-4.16-12.74-9.68-.2-.19-.51-.52-.66-1.01-.12-.39-.11-.76-.06-1.04-.18.26-.41.7-.44,1.26-.05.93.52,1.62.8,2.02,2.59,3.67,4.48,4.58,4.48,4.58,3.07,1.96,9.85,6.33,13.98,10.19.35.33,1.25,1.18,2,2.55.38.69,1.75,3.25,1.01,6.07-.08.29-.16.51-.21.66Z"/>
  <path class="cls-19" d="M124.82,132.52c-3.31.68-5.11,2.04-6.14,3.21-1.1,1.24-1.2,2.09-2.76,4.11,0,0-1.66,1.91-3.69,3.77-2.31,2.1-4.7,2.85-9.5,4.36-5.41,1.7-6.62,1.01-11.18,2.88-1.15.48-3.71,1.6-6.51,3.59-4.36,3.08-7.36,6.82-9.37,10.15.03-1.83.5-3.58.88-5.33.8-3.7,1.93-7.32,3.17-10.89.17-.49.22-.97.19-1.47-1.22,2.73-2.44,5.47-3.65,8.21-2.52,5.69-5.02,11.39-7.51,17.1,3.18,3.04,6.37,6.08,9.55,9.12,1.32-4.56,2.65-8.36,3.76-11.25,2.17-5.69,3.61-8.02,4.9-10.1,3.15-5.1,7.87-7.96,13.56-9.38,2.23-.56,4.51-.96,6.72-1.59,4.19-1.19,7.31-3.83,9.55-7.51.84-1.39,1.45-2.2,1.99-2.81.81-.93,1.43-1.53,2.11-2.17.96-.91,2.31-2.24,3.94-3.97Z"/>
  <path class="cls-19" d="M201.17,149.18c-.06.24-.14.65-.16,1.16-.02.74.11,1.33.21,1.7.64,2.38,3.88,10.05,3.03,10.75-.88.73-5.26-6.72-13.57-10.71-10.41-4.99-16.8.45-22.03-5.31-1.79-1.98-5.51-7.56-8.82-8.73-1.03-.37-1.65-.68-2.89-1.29-1.38-.69-2.16-1.18-2.87-1.96-.44-.48-.73-.94-.9-1.26-.07.17-.16.43-.18.75,0,.12-.03.69.36,1.39.75,1.34,2.27,2.15,2.27,2.15,1.08.58,3.89,2.23,6.84,7.38,2.84,4.95,7.33,7.29,12.81,8.11,3.01.45,6.03.89,8.96,1.74,1.37.4,2.61.93,3.76,1.59,3.41,1.96,5.49,4.73,7.44,7.94,3.78,6.2,6.36,12.43,8,16.94,3.32-3.22,6.64-6.44,9.96-9.66-4.08-7.56-8.15-15.12-12.23-22.68Z"/>
  <path class="cls-19" d="M160.82,101.69c.98-2.25,1.75-4.05,2.23-5.19,1.31-3.09,1.69-4.06,2.56-5.38,1.09-1.65,2.25-2.81,3.06-3.52-1.58-.16-3.51-.6-5.72-1.18-1.86-.49-3.66-1.18-5.34-2.35.62,2.28.84,4.44,1.2,6.57.06.36.22.77-.12,1.11,1,3.25,1.35,6.64,2.13,9.94Z"/>
  <path class="cls-19" d="M151.37,56.99c.3.34.33.77.42,1.18.44,2.24,2.01,3.65,3.73,4.97-.77-3.27-.71-6.45.23-9.64.95-3.24,2.83-5.78,5.58-7.83-1.18-.12-2.36-.25-3.52.02-3.74.88-6.86,2.95-9.82,5.28-.76.6-1.49,1.23-2.24,1.84-.19.15-.37.39-.62.07-.33.52-.78.97-.88,1.81,4.73-3.2,8.62-7.55,14.79-8.55-4.1,2.77-7.16,5.93-7.66,10.85Z"/>
  <path class="cls-19" d="M184.98,84.5c-3.86.26-7.72.27-11.58.21-4.96-.08-9.49-1.42-13.46-4.51-2.72-2.12-4.26-5.04-5.69-8.04-.4-.83-.87-1.63-1.2-2.55-.05,1.75.74,3.46.25,5.21.14-.05.25-.48.42-.1,2.33,5.27,6.63,8.16,11.93,9.76,4.66,1.4,9.45,1.29,14.23.92,1.72-.13,3.45-.37,5.11-.89Z"/>
  <path class="cls-19" d="M171.94,46.19c2.28.99,2.84,3.2,3.7,5.2.08.19.09.43.2.6.21.33.48.76.88.68.49-.09.22-.6.22-.91,0-1.46.08-2.92-.14-4.38-.07-.45-.37-1.09.34-1.41-.24-1-.27-2.06-.79-2.99-.1.01-.2.03-.29.04.56.83.45,1.34-.6,1.66-1.22.37-2.47.72-3.52,1.5Z"/>
  <path class="cls-19" d="M161.9,37.85q.85,0,1.65-.38c-1.67-.6-3.28-.66-4.89-.36-3.17.58-5.8,2.13-7.86,4.62-.49.59-.51.57-.95.35-.59.97-.81,2.08-1.2,3.34,2.71-3.29,5.9-5.57,9.72-6.93,1.13-.4,2.29-.79,3.53-.65Z"/>
  <g>
    <path class="cls-12" d="M155.01,32.64c.65-.26,1.3-.52,2.15-.86-4.8-.18-9.23.56-13.53,2.09-2.92,1.04-5.71,2.3-7.92,4.55-2.64,2.69-3.96,6.04-4.57,9.69-.6,3.63-.21,7.22.71,10.76.55-.18.33-.66.33-1,0-1.61.07-3.2.35-4.8.59-3.41,2.07-6.43,3.92-9.31,1.01-1.58,2.24-2.96,3.65-4.19.26-.23.48-.46.63-.4.61.27-1.55,4.67-1.76,9.89-.1,2.56.29,4.64.6,5.93.13-.51.35-1.02.39-1.53.19-2.99,1.11-5.81,2.23-8.54,1.95-4.73,5.3-8.34,9.54-11.12.95-.62,1.91-1.6,3.29-1.16Z"/>
    <path class="cls-12" d="M139.9,21.94c-1.31-.38-3.46-.9-6.13-1.01-3.32-.13-4.97.04-13.4,2.16-3.3.83-6.62,1.43-10.03.78-2.5-.48-4.73-1.52-6.64-3.32.64,2.25,3.84,4.95,7.65,6.49-4.52,2.34-13.14,3.02-18.47-1.79.1.18.25.45.45.77.41.64,1.53,2.39,3.51,3.63.31.2,1.06.64,2.77,1.19.63.2,3.76,1.17,6.69,1.2,2.59.02,4.35-.7,9.84-3.15,10.8-4.83,10.53-4.8,12.18-5.28,3.46-1.01,6.94-1.65,10.55-1.28.08,0,.38.1.68-.04.19-.09.3-.24.37-.34Z"/>
    <path class="cls-12" d="M134.42,9.29c.55-.55,3.15,3.82,9.68,6.16,5.87,2.1,11.2,1.23,16.77,5.86h0c1.19.99,3.87,3.53,5.26,8.51-4.91-4.13-9.17-5.83-12.21-6.6-4.69-1.2-6.29-1.23-9.71-3.02-6.73-3.53-10.47-10.23-9.8-10.9Z"/>
    <path class="cls-12" d="M128.52,45.13c.25-.73.51-1.46.78-2.24-4.49,2.21-7.58,12.08-5.68,17.94.91.81,1.31,1.99,2.09,2.9.88,1.02,1.65,2.13,2.57,3.35.23-1.59-.24-2.86-.54-4.12-.9-3.78-1.48-7.57-.92-11.46.32-2.19.69-4.36,1.7-6.37Z"/>
    <path class="cls-12" d="M110.73,35.19c-2.36.5-4.73.99-7.09,1.49-8.03,1.69-10.19,1.99-13.26,1.81-2.05-.12-3.97-.71-5.9-1.56.63,1.02,1.74,1.89,3.43,2.59,2.33.96,4.73,1.63,7.29,1.43.04-.08.12-.21.26-.3.29-.19.65-.12.73-.11,0,0,1.44-.2,4.31-.61,1.39-.2,2.91-.69,5.96-1.66,0,0,4.5-1.44,4.68-2.52.02-.09.06-.36-.08-.49-.1-.09-.25-.08-.33-.07Z"/>
    <path class="cls-12" d="M124.21,102.32c.05-.29.1-.67.13-1.11.26-3.85-1.53-7.06-2.61-8.93-.21-.37-.41-.71-.73-1.17-1.07-1.55-3.78-3.75-3.78-3.75-4.33-3.66-5.97-4.89-6.49-5.16-.07-.04-.36-.17-.71-.42-.69-.48-.98-.93-1.02-.89-.08.06.72,1.48,2.05,3.36.59.84,1.3,1.86,2.4,3.1,3.6,4.04,4.53,4.17,7.1,7.46,1.84,2.35,2.68,4.77,3.18,6.12.22.58.38,1.07.48,1.39Z"/>
    <path class="cls-12" d="M108.04,93.28c.28-4.5-1.05-8.66-2.86-12.69-1.52-3.39-3.29-6.68-3.96-10.39-.03-.19-.05-.37-.29-.33-.2.03-.28.21-.31.39-.3,1.62-.33,3.25-.18,4.89.39,4.34,2.54,7.93,4.81,11.49,1.3,2.03,2.34,4.21,2.8,6.63Z"/>
    <path class="cls-12" d="M98.81,53.73c.51-1.26,1.01-2.53,1.61-4.02-1.12.95-1.78,1.94-2.51,2.89-1.75,2.28-3.04,4.77-3.78,7.54-.86,3.25-.69,6.53-.18,9.82.24,1.54.41,3.1.61,4.65.47.06.61-.2.66-.63.56-4.77,1.08-9.54,1.74-14.3.29-2.06.66-4.16,1.86-5.96Z"/>
    <path class="cls-12" d="M93.75,47.34c-1.17,1.18-3.25,3.63-4.36,7.29-.39,1.28-.56,2.39-.65,3.19.85-.55,1.06-1.53,1.55-2.32,2.81-4.48,6.56-8.07,10.7-11.29.64-.5.71-.86.22-1.43-1.56.49-4.64,1.68-7.46,4.55Z"/>
    <path class="cls-12" d="M132.66,69.64c-1.04,3.3-.9,6.61,0,9.91.5.55,1.02,1.08,1.49,1.65,1.24,1.54,2.4,3.12,2.38,5.23.22.62.44,1.25.66,1.87.46-1.13-.01-2.25-.08-3.36-.15-2.5-.64-4.94-2.01-7.11-1.35-2.13-2.03-4.45-2.01-6.98,0-.44.14-.96-.42-1.22Z"/>
    <path class="cls-12" d="M150.79,27.4c-1.22-.29-2.91-.63-4.94-.82-8.01-.75-14.17,1.45-15.87,2.08-9.08,3.36-15.47,9.36-18.29,18.79-.9,3-1.05,6.08-.79,9.2.21,2.59.74,5.08,1.71,7.49.4-.08.37-.36.33-.66-.32-2.89-.2-5.77.27-8.64.88-5.4,3.16-10.14,6.84-14.17,3.83-4.21,8.63-7.12,13.63-9.69,2.49-1.28,5.16-1.98,7.96-2.36,2.73-.37,5.46-.55,8.19-.77.07,0,.4.06.68-.12.13-.09.22-.21.27-.31Z"/>
    <path class="cls-12" d="M108.78,41.62c-2.7,3.1-4.96,6.48-6,10.5-.76,2.96-.74,5.33-.72,6,.13,5.05,2.11,9.12,3.16,11.23.05.1.09.19.12.24.96,1.16,2.45,2.82,4.49,4.56,2.29,1.95,3.98,2.89,5.8,4.03,5.28,3.32,8.59,5.64,11.56,9.45,2.11,2.71,3.72,5.56,4.06,9.04.04.45-.16,1.26.76,1.28-.07-8.3-3.03-15.14-10.07-19.9-2.03-1.37-4.11-2.68-6.09-4.14-.27-.23-.54-.46-.8-.69-.07,0-.18.02-.31,0,0,0-.24-.05-.47-.22-2.74-2.02-4.95-4.47-6.42-7.6-2.24-4.78-2.56-9.75-1.68-14.86.48-2.84,1.49-5.5,3.01-7.96.28-.45.41-.9-.37-.96Z"/>
    <path class="cls-12" d="M125.56,75.23c.29-.29.15-.58.03-.89-.88-2.26-1.84-4.5-2.61-6.8-.44-1.31-1.04-2.65-.7-4.12-.02-.14-.04-.27-.06-.41-.04-.09-.08-.17-.13-.26.01-.06,0-.11-.03-.17-.2,0-.4-.01-.59-.02.22,2.51.21,5.06,1.26,7.44.81,1.82,1.8,3.54,2.82,5.24Z"/>
  </g>
  <path class="cls-19" d="M152.5,51.82c-2,.94-3.28,4.41-2.97,7.87.51-2.75,1.74-5.24,2.97-7.87Z"/>
  <g>
    <path class="cls-6" d="M125.56,75.23c.51,1.05,1.02,2.1,1.64,3.39-.8-5.53-3.27-10.23-4.92-15.2-.34,1.47.26,2.81.7,4.12.77,2.3,1.73,4.54,2.61,6.8.12.31.26.6-.03.89Z"/>
    <path class="cls-6" d="M139.56,21.85c-.48.08-1.26.2-2.23.26-.85.05-1.47.04-1.6.04-2.96-.05-7.42,1.45-7.42,1.45-3.87,1.29-7.7,3.07-12.18,5.28-7.11,3.52-10.49,2.8-11.55,2.75-3.34-.15-6.02-1.16-7.76-1.98,3.69,2.56,7.8,3.46,12.24,3.13,4.86-.36,9.09-2.45,13.31-4.61,4.27-2.19,8.73-3.81,13.49-4.45,2.53-.34,5.08-.63,7.68-.56-.93-.37-1.94-.72-3.02-1.04-.33-.09-.65-.18-.97-.26Z"/>
    <path class="cls-6" d="M128.52,45.13c-1.01,2-1.38,4.18-1.7,6.37-.56,3.89.02,7.68.92,11.46.3,1.26.78,2.54.54,4.12-.92-1.21-1.69-2.33-2.57-3.35-.79-.91-1.19-2.09-2.09-2.9.28,2.09,1.48,3.75,2.57,5.46,1.22,1.91,2.34,3.84,2.84,6.08.02.1.07.2.19.51.7-2.62.41-4.93.08-7.2-.75-5.25-1.76-10.46-1.37-15.8.12-1.59.39-3.17.59-4.75Z"/>
    <path class="cls-6" d="M155.01,32.64c-1.38-.44-2.34.54-3.29,1.16-4.24,2.78-7.59,6.39-9.54,11.12-1.12,2.73-2.04,5.55-2.23,8.54-.03.52-.25,1.02-.39,1.53.14.69.29,1.37.48,2.33.9-4,1.9-7.69,3.35-11.24,1.02-2.48,2.54-5.42,5.44-8.53,2.25-2.4,4.53-3.96,6.17-4.93Z"/>
    <path class="cls-6" d="M140.71,39.18s-.15-.01-.63.4c-1.41,1.23-2.64,2.62-3.65,4.19-1.84,2.88-3.32,5.9-3.92,9.31-.28,1.59-.35,3.19-.35,4.8,0,.35.22.82-.33,1,.23,1.28.62,2.5,1.21,3.99.03-2.49-.12-4.66.22-6.81,1.15-7.33,5.54-13.85,6.36-15.03.23-.33,1.23-1.73,1.08-1.86Z"/>
    <path class="cls-6" d="M132.66,69.64c.56.26.43.78.42,1.22-.02,2.53.66,4.84,2.01,6.98,1.37,2.17,1.87,4.61,2.01,7.11.06,1.11.54,2.24.08,3.36.09.61.18,1.23.29,2.07.59-2.43.5-4.65.23-6.89-.37-3.19-1.56-6.12-2.74-9.07-.95-2.37-1.59-4.81-1.21-7.62-.21.36-.42.79-.62,1.28-.23.57-.38,1.11-.49,1.57Z"/>
    <path class="cls-6" d="M98.81,53.73c-1.2,1.8-1.58,3.89-1.86,5.96-.66,4.75-1.17,9.53-1.74,14.3-.05.42-.18.68-.66.63v3.95c.66-.91.78-1.85,1.04-2.73.79-2.64.98-5.38,1.25-8.09.47-4.7.7-9.42,1.96-14.01Z"/>
    <path class="cls-6" d="M101.21,42.79c.49.56.42.93-.22,1.43-4.14,3.21-7.88,6.81-10.7,11.29-.49.79-.7,1.77-1.55,2.32,0,.16,0,.33.03.51.04.38.14.69.23.94.09-.29.23-.72.46-1.22.43-.96.88-1.54,2.36-3.41.95-1.2,1.42-1.8,1.79-2.25,0,0,1.04-1.34,1.94-2.3,2.59-2.77,5.43-5.29,8.39-7.71-.95-.14-1.86,0-2.73.41Z"/>
    <path class="cls-6" d="M110.49,35.25c.21.08.56-.06.6.3.04.35-.26.46-.52.59-1.54.81-3.13,1.52-4.78,2.09-3.19,1.1-6.38,2.22-9.82,2.21,0,0-.43-.05-.64.13-.1.09-.14.2-.14.2-.02.07-.03.13-.03.17,2.99-.14,7.21-.69,11.87-2.57,2.76-1.11,5.02-2.42,6.8-3.63-.47.02-.98.07-1.52.14-.67.09-1.29.22-1.83.36Z"/>
    <path class="cls-6" d="M136.53,86.44c.02-2.11-1.14-3.69-2.38-5.23-.46-.58-.99-1.1-1.49-1.65.69,2.19,1.44,3.3,2.03,3.92.13.13.44.45.8.95.56.78.87,1.52,1.04,2.02Z"/>
    <path class="cls-6" d="M150.66,27.38c-.06.54-.49.42-.82.45-2.73.22-5.47.4-8.19.77-2.8.38-5.47,1.08-7.96,2.36-5,2.58-9.8,5.49-13.63,9.69-3.67,4.03-5.96,8.77-6.84,14.17-.47,2.87-.59,5.75-.27,8.64.03.3.06.58-.33.66.56,1.57,1.21,3.1,2.26,4.45-.47-1.45-.91-2.9-1.09-4.41-.28-2.38-.32-4.76.1-7.13.73-4.14,2.21-8,4.36-11.61,2.02-3.38,4.55-6.31,7.63-8.76.74-.59,1.32-1.39,2.52-1.93-3.48,3.78-5.95,7.73-6.57,12.48,7.27-12.73,18.06-19.29,33.1-18.4-1.38-.76-2.79-1.22-4.29-1.43Z"/>
    <path class="cls-6" d="M132,97.96c-.92-.02-.72-.84-.76-1.28-.33-3.48-1.95-6.33-4.06-9.04-3.14-4.04-7.35-6.73-11.56-9.45-3.58-2.32-6.93-4.92-9.67-8.22-.17-.2-.34-.36-.62-.37,1.35,3.05,3.59,5.39,6.05,7.54,3.24,2.83,7.04,4.91,10.36,7.64,2.31,1.89,7,5.79,8.82,12.13.92,3.21.82,6.05.61,7.88.79-2.4,1-4.58.81-6.82Z"/>
    <path class="cls-6" d="M108.78,41.62c.79.06.65.51.37.96-1.52,2.46-2.52,5.13-3.01,7.96-.87,5.11-.56,10.08,1.68,14.86,1.47,3.13,3.67,5.57,6.42,7.6.25.18.5.27.79.24-1.92-2.26-3.83-4.52-5.06-7.26-1.93-4.3-2.9-8.81-2.62-13.49.26-4.47,1.53-8.72,3.75-12.65.04-.08.02-.19.05-.53-.99.76-1.71,1.5-2.37,2.32Z"/>
    <path class="cls-6" d="M109.96,81.98c-.12.19,2.19,1.69,5.66,4.56,2.71,2.24,4.07,3.36,5.06,4.58,2.83,3.44,3.36,7.54,3.55,9,.06.45.09.82.11,1.09.02-.26.05-.63.06-1.08.02-.88.02-4.46-1.73-8-1.93-3.92-5.06-5.87-8.47-8.02-2.01-1.26-4.14-2.29-4.25-2.11Z"/>
    <path class="cls-6" d="M101.22,70.29c.09,1.19.32,2.99.96,5.07,1.17,3.78,2.55,4.74,4.01,8.42,1.73,4.37,1.65,7.74,1.84,7.71.2-.03.5-4.03-1.02-8.41-.94-2.7-1.84-3.42-3.72-7.59-.97-2.15-1.64-3.97-2.07-5.21Z"/>
  </g>
  <path class="cls-6" d="M150.59,116.57c.68,1.06,1.5,2,2.43,2.85,3.1,2.81,6.77,4.79,10.25,7.03,2.17,1.4,4.41,2.72,6.36,4.39,3.16,2.71,3.88,6.36,3.51,10.33-.08.82-.63.83-1.23.8-.57.72-1.26.79-2.09.51-1.92-.63-3.46-1.78-4.75-3.31-1.93-2.3-3.93-4.52-6.69-5.88-.79-.39-1.62-.62-2.48-.84-1.24-.32-2.07.11-2.73,1.09-.03.46.17.81.46,1.15,1.36,1.57,3.22,2.32,5.05,3.13.29.13.67.15.8.48.7,1.75,1.98,3.13,3.03,4.65,2.8,4.07,6.56,6.81,11.39,8.06,3.85.99,7.81,1.33,11.73,1.91,3.84.57,7.46,1.64,10.62,4.02,2.06,1.56,3.96,3.29,5.78,5.12,1.02,1.03,2.09,2.01,3.25,2.9.23-.28.13-.48.09-.68-.94-4.27-2.24-8.42-3.69-12.54-.28-.79-.8-1.58-.49-2.5-.83-2.15-2.13-4.01-3.5-5.84-3.21-4.29-6.15-8.76-9.04-13.27-.88-1.37-1.88-2.5-3.14-3.38-.52-.36-.85-.43-1.8-1-1.28-.76-2.17-1.44-2.84-1.96-3.61-2.78-4.51-3.64-6.82-5.28-1.51-1.06-2.26-1.5-2.48-1.63-2.44-1.4-2.41-1.08-3.89-1.92-.64-.36-1.25-.86-2.03-.92-.2-.02-.7-.03-.95.3-.14.18-.15.38-.15.43,0,.29.17.57.51.86.91.77,2.97,1.54,3.56,1.78,1.23.51.8.71,3.23,2.35,2.33,1.57,2.58,1.29,4.11,2.49,1.8,1.41,1.41,1.76,3.15,3,1.6,1.14,2.19,1.03,3.23,2.2.87.98,1.41,2.14,1.56,2.47.3.65.49,1.24.61,1.67-.47.17-.58-.3-.76-.54-.45-.59-.88-1.21-1.26-1.85-.86-1.42-2.13-2.28-3.71-2.68-3.48-.86-6.37-2.76-8.99-5.1-.84-.75-1.74-1.37-2.76-1.78-3.4-1.34-6.29-3.49-9.2-5.61-.39-.28-.7-.97-1.33-.42-.61.54-.73,1.2-.34,1.93.26.48.65.84,1.05,1.2,2.03,1.83,4.49,2.9,6.97,3.93,1.29.54,2.52,1.13,3.57,2.09,2.06,1.89,4.62,2.94,7.19,3.85,2.17.77,3.6,1.85,3.67,4.33.02.8.35,1.62.9,2.56-1.07-.51-1.57-1.31-1.92-2.03-1.15-2.36-3.11-3.56-5.49-4.37-2.06-.7-3.99-1.72-5.75-3.02-1.47-1.09-3.13-1.83-4.78-2.61-3.61-1.7-6.98-3.77-9.83-6.6-.53-.53-1.04-.94-1.59-.04-.05.63.1,1.21.44,1.74Z"/>
  <path class="cls-6" d="M75.39,164.82c.45,0,.61-.28.82-.53,2.77-3.23,5.49-6.51,8.68-9.34,1.88-1.66,4.05-2.95,6.39-3.88,3.6-1.43,7.4-2.11,11.18-2.88,3.5-.71,6.85-1.82,9.69-4.07,2.66-2.12,4.66-4.83,6.49-7.65.49-.75.96-1.31,1.87-1.64,1.54-.55,2.95-1.4,4.32-2.32.03-.11.05-.28.02-.47-.11-.69-.79-1.06-.97-1.15-.61-.33-1.23-.29-1.58-.25-2.26.24-4.13,1.29-5.76,2.78-1.02.94-1.95,1.99-2.92,2.99-1.08,1.13-2.34,1.93-3.86,2.36-.94.27-1.6.07-1.97-.86-.88.13-1.13-.31-1.07-1.11.05-.61-.02-1.22,0-1.82.14-3.27,1.43-6.02,3.88-8.17,3.88-3.42,8.42-5.87,12.77-8.61,2.97-1.87,5.86-3.86,7.68-7-.1-.38-.3-.94-.78-1.17-1.16-.55-2.6,1.54-5.96,3.62-2.01,1.24-2.09.86-5.87,2.93-1.06.58-1.88,1.07-3.52,2.05-6.12,3.66-5.67,3.84-7.25,4.44-.4.15-1.35.5-2.29,1.36-.48.44-.89.95-1.25,1.56-.71,1.22-1.62,2.32-2.53,3.45.26-.88.69-2.14,1.43-3.56.36-.69.59-1.13.95-1.61,1.13-1.5,2.22-1.65,4.33-3,1.98-1.27,1.57-1.51,3.67-2.86.59-.38,1.04-.63,3.84-2.01,2.22-1.1,3.41-1.67,5.24-2.59,0,0,2.89-1.31,4.71-3.29.46-.51.87-1.06.94-1.77.04-.49-.14-.91-.54-1.22-.12-.09-.22-.13-.32-.13-.31,0-.56.27-.62.34-1.27,1.4-3.23,1.98-4.81,3.02-.76.5-2.14,1.17-4.91,2.53-4.24,2.07-4.63,2.04-6.02,3.08-.24.18-1.24,1.05-3.23,2.78-1.7,1.48-2.16,1.9-3.08,2.49-1.3.82-1.5.7-2.43,1.42-.81.64-1.48,1.17-2.33,2.54-.54.87-1.14,1.71-1.82,2.51,1.19-3.26,2.84-5.04,4.17-6.07,1.73-1.34,3.29-1.69,5.26-3.92.76-.85.95-1.28,1.88-2.13.36-.33,1.22-1.08,3.77-2.49,1-.55,2.34-1.25,3.96-1.98.14-.05,1.11-.42,1.72-1.32.36-.53.35-.89.33-1.06-.04-.3-.21-.7-.55-.84-.39-.16-.84.09-1.02.2-7.4,4.34-11.1,6.52-12.44,8.04-1.85,2.11-2.5,3.48-4.51,4.4-.59.27-1.56.62-2.77,1.46-1.15.8-1.88,1.6-2.22,1.97-9.56,10.56-13.75,20.72-13.75,20.72-2.54,6.18-3.62,11.49-4.19,14.38-.43,2.17-.7,4-.88,5.33Z"/>
  <g>
    <path class="cls-7" d="M63.18,86.21c-2.39,1.69-4.45,3.38-6.22,5.38-5.94,6.72-10.26,14.42-12.79,23.13-2.08,7.14-3.22,14.45-2.56,21.92,1.02,11.63,5.1,21.73,13.92,29.52,4.94,4.36,10.3,8.07,15.63,11.87,4.17,2.97,8.33,5.96,12.51,8.91,5.25,3.71,10.91,6.58,16.95,8.62,1.37.46,2.75.89,4.22,1.14-1.57-1.36-3.14-2.73-4.72-4.08-5.39-4.62-10.36-9.72-15.46-14.67-3.63-3.53-7.02-7.29-10.36-11.09-2.46-2.81-4.7-5.84-7-8.81-2.84-3.68-5.32-7.62-7.61-11.63-2.95-5.15-5.32-10.66-6.87-16.49-.96-3.61-1.56-7.26-1.77-10.99-.17-3.12.32-6.18.97-9.21,1.18-5.46,3.57-10.41,6.3-15.19,1.41-2.47,2.97-4.84,4.49-7.23.17-.27.19-.54.37-1.12Z"/>
    <g>
      <path class="cls-10" d="M90.79,195.51c-1.5-.92-2.85-1.73-4.18-2.57-6.03-3.79-11.67-8.17-17.54-12.2-3.98-2.73-7.97-5.46-11.86-8.32-4.99-3.67-9.78-7.64-13.46-12.76-4.05-5.64-7.15-11.84-8.9-18.64-1.63-6.3-2.43-12.72-1.59-19.26.52-4.06,1.45-8,2.93-11.8.23-.58.43-1.17.65-1.75.07-.19.19-.42-.03-.55-.31-.19-.39.12-.54.31-2.74,3.38-4.76,7.18-6.42,11.23-2.5,6.13-3.42,12.54-3.19,19.12.13,3.87.76,7.69,1.89,11.4,1.88,6.14,4.36,11.98,7.94,17.31,3.04,4.53,6.82,8.28,11.2,11.36,6.51,4.59,13.35,8.61,20.79,11.39,6.3,2.35,12.73,4.22,19.36,5.3.91.15,1.78.56,2.95.43Z"/>
      <path class="cls-16" d="M105.75,201.4c-1.4-.82-2.92-1.02-4.41-1.26-7.56-1.19-15.2-1.45-22.82-1.8-6.8-.31-13.6-.73-20.33-1.82-7.43-1.2-14.65-3.28-21.47-6.67-5.93-2.95-11.2-6.76-15.38-12.06-.06-.08-.18-.12-.44-.28.61,2.7,1.54,5.08,2.74,7.33,1.95,3.66,4.25,7.09,7.27,9.94,1.84,1.74,3.86,3.2,5.94,4.63,3.15,2.16,6.64,3.41,10.24,4.43,3.29.93,6.66,1.06,10.03,1.14,4.18.1,8.38.04,12.54-.53,5.59-.77,11.2-1.39,16.79-2.18,4.92-.7,9.89-.77,14.85-.87,1.49-.03,2.97,0,4.46,0Z"/>
      <path class="cls-13" d="M36.77,207.98c1.46,2.02,2.96,3.9,5.06,5.28,1.57,1.03,2.95,2.37,4.65,3.26,7.48,3.94,15.02,4.19,22.6.38,2.71-1.36,5.26-3.03,7.83-4.67,4.92-3.14,10.28-5.26,15.78-7.03.35-.11.69-.25,1.34-.49-5.4.5-10.46,1.04-15.51,1.87-3.72.61-7.48,1.02-11.24,1.34-3.37.29-6.73.3-10.1.22-1.94-.04-3.88-.3-5.86-.28,1.28.33,2.56.72,3.85.98,1.35.27,2.72.47,4.09.59,1.33.12,2.68.14,4.02.16,1.36.02,2.72-.24,4.42-.01-10.69,2.8-20.86,2.42-30.94-1.61Z"/>
      <path class="cls-11" d="M77.83,195.73c-1.74-.53-3.59-1.06-5.43-1.66-5.56-1.81-11.21-3.32-16.67-5.45-2.85-1.11-5.61-2.38-8.25-3.95-4.49-2.67-8.11-6.37-11.53-10.32-3.82-4.4-7.3-9.03-9.97-14.27-1.53-2.99-2.83-6.08-3.58-9.38-.12-.52-.28-1.02-.52-1.89-.33,4.81.2,9.13,1.58,13.34,2.44,7.48,6.53,13.88,11.95,19.4,6.86,6.99,15.14,10.98,24.62,12.6,5.95,1.02,11.93,1.54,17.8,1.57Z"/>
    </g>
  </g>
  <g>
    <path class="cls-14" d="M218.45,88.96c1.69,2.82,3.44,5.6,5.06,8.46,2.3,4.06,4.18,8.3,5.43,12.85,1.1,3.98,1.54,8,1.37,12.11-.14,3.45-.86,6.79-1.71,10.1-1.78,6.95-4.91,13.28-8.56,19.33-3.28,5.44-7.03,10.55-11.14,15.37-5.06,5.93-10.36,11.61-15.94,17.01-5.04,4.88-10.02,9.84-15.51,14.2-.19.15-.5.26-.38.56.19.46.45.07.69,0,9.02-2.6,17.01-7.28,24.61-12.81,5.12-3.73,10.33-7.32,15.5-10.98,1.92-1.36,3.93-2.7,5.63-4.28,4.82-4.46,9.38-9.2,12.21-15.38,3.53-7.72,4.82-15.84,4.24-24.3-.3-4.47-1.14-8.86-2.36-13.16-2.49-8.74-6.34-16.76-12.33-23.55-1.94-2.2-3.96-4.34-6.55-5.76l-.26.24Z"/>
    <path class="cls-3" d="M190.24,197.86c2.4-.05,4.36-.62,6.32-1.02,7.93-1.63,15.72-3.77,23.03-7.46,5.87-2.96,11.47-6.4,16.63-10.53,6.13-4.9,10.42-11.28,13.63-18.5,2.31-5.2,4.17-10.55,4.76-16.25.44-4.28.4-8.6-.27-12.9-.93-5.98-2.97-11.48-6.05-16.6-.9-1.5-1.76-3.03-2.92-4.35-.16-.19-.32-.48-.57-.34-.38.22-.05.5.04.74,2.83,7.33,4.16,14.94,3.52,22.82-.81,9.9-4.09,18.92-9.57,27.11-3.54,5.3-8.13,9.46-13.12,13.21-9.13,6.85-18.65,13.1-28,19.62-2.26,1.58-4.62,3.03-7.4,4.46Z"/>
    <path class="cls-15" d="M260.7,180.06c-2.22,2.42-4.52,4.64-7.04,6.6-5.36,4.18-11.34,7.08-17.73,9.16-4.03,1.31-8.14,2.31-12.3,2.97-4.13.65-8.28,1.15-12.46,1.35-6.49.32-12.98.65-19.47,1.05-5.14.32-10.26.86-15.31,1.99-.19.04-.41.03-.55.34.61.27,1.25.12,1.86.12,7.85.08,15.66.56,23.45,1.7,4.82.7,9.66,1.31,14.52,1.67,5.69.42,11.36.47,17-.52,5.22-.91,9.94-3.08,14.19-6.27,6.35-4.75,10.81-10.99,13.42-18.62.17-.5.28-1.03.41-1.55Z"/>
    <path class="cls-4" d="M244.69,210.2c-2.85.95-5.66,1.99-8.62,2.59-5.27,1.06-10.54,1.29-15.85.33-2.14-.39-4.26-.81-6.53-1.62,5.77.71,11.25.44,16.84-1.4-.75-.15-1.25-.04-1.77.04-.56.08-1.14.06-1.7.11-4.59.39-9.17.25-13.76-.16-3.32-.29-6.62-.69-9.91-1.19-3.16-.48-6.32-.98-9.5-1.31-1.68-.17-3.36-.46-5.1-.2,1.48.52,2.94,1.05,4.43,1.54,2.9.96,5.64,2.28,8.37,3.68,3.6,1.85,6.86,4.27,10.4,6.22,9.45,5.2,19.3,3.6,27.58-2.98,1.99-1.58,3.89-3.28,5.2-5.55-.03-.03-.06-.07-.09-.1Z"/>
    <path class="cls-1" d="M203.33,197.99c8.47-.07,16.88-.6,25.04-3.12,2.67-.82,5.2-1.97,7.69-3.34,8.01-4.38,13.8-10.99,18.36-18.83,3.45-5.93,5.48-12.36,5.21-19.39,0-.17-.01-.34-.04-.5-.01-.06-.09-.11-.24-.28-.56,1.63-1.11,3.19-1.64,4.75-1.66,4.83-4.18,9.17-7.16,13.25-2.81,3.85-5.99,7.35-9.26,10.78-3.92,4.11-8.65,6.86-13.76,8.96-7.65,3.14-15.6,5.3-23.5,7.64-.22.06-.46.05-.69.07Z"/>
  </g>
  <text class="cls-17" transform="translate(215.86 246.04) rotate(-180) scale(.74 -1)"><tspan x="0" y="0">seelenruhe</tspan></text>
</svg>